SplineFontDB: 1.0
FontName: THKoHo-Bold
FullName: THKoHo-Bold
FamilyName: TH KoHo
Weight: Bold
Copyright: Copyright (c) 2006 by Department of Intellectual Property (DIP), Ministry of Commerce and Software Industry Promotion Agency (Public Organization) (SIPA). All rights reserved.
Version: 1.1
ItalicAngle: 0
UnderlinePosition: -35
UnderlineWidth: 30
Ascent: 800
Descent: 200
Order2: 1
XUID: [1021 375 425136265 3368139]
FSType: 0
OS2Version: 3
OS2_WeightWidthSlopeOnly: 0
OS2_UseTypoMetrics: 1
CreationTime: 1158666840
ModificationTime: 1174406397
PfmFamily: 17
TTFWeight: 700
TTFWidth: 5
LineGap: 60
VLineGap: 0
Panose: 2 0 8 6 0 0 0 2 0 4
OS2TypoAscent: 0
OS2TypoAOffset: 1
OS2TypoDescent: 0
OS2TypoDOffset: 1
OS2TypoLinegap: 0
OS2WinAscent: -14
OS2WinAOffset: 1
OS2WinDescent: -6066
OS2WinDOffset: 1
HheadAscent: -14
HheadAOffset: 1
HheadDescent: 6066
HheadDOffset: 1
OS2SubXSize: 700
OS2SubYSize: 650
OS2SubXOff: 0
OS2SubYOff: 140
OS2SupXSize: 700
OS2SupYSize: 650
OS2SupXOff: 0
OS2SupYOff: 477
OS2StrikeYSize: 30
OS2StrikeYPos: 250
OS2FamilyClass: 773
OS2Vendor: 'IPTH'
ScriptLang: 2
 1 latn 1 dflt 
 0 
ChainSub: coverage 0 0 'liga' 0 0 0 1
 1 0 1
  Coverage: 64 uni0E48.alt2 uni0E49.alt2 uni0E4A.alt2 uni0E4B.alt2 uni0E4C.alt2
  FCoverage: 7 uni0E33
 1
  SeqLookup: 0 'L027'
EndFPST
ChainSub: coverage 0 0 'liga' 0 0 0 1
 1 1 0
  Coverage: 7 uni0E47
  BCoverage: 12 uni0E2C.alt1
 1
  SeqLookup: 0 'L026'
EndFPST
ChainSub: coverage 0 0 'liga' 0 0 0 1
 1 0 1
  Coverage: 7 uni0E2C
  FCoverage: 39 uni0E34 uni0E35 uni0E36 uni0E37 uni0E47
 1
  SeqLookup: 0 'L026'
EndFPST
ChainSub: coverage 0 0 'liga' 0 0 0 1
 1 0 1
  Coverage: 15 uni0E0E uni0E0F
  FCoverage: 38 uni0E38.alt1 uni0E39.alt1 uni0E3A.alt1
 1
  SeqLookup: 0 'L026'
EndFPST
ChainSub: coverage 0 0 'liga' 0 0 0 1
 1 1 0
  Coverage: 5 a b c
  BCoverage: 23 uni0E1B uni0E1D uni0E1F
 1
  SeqLookup: 0 'L026'
EndFPST
ChainSub: coverage 0 0 'liga' 0 0 0 1
 1 0 1
  Coverage: 5 a b c

StartChar: .notdef
Encoding: 65536 -1 0
Width: 500
Flags: W
Fore
400 35 m 1,0,-1
 400 660 l 1,1,-1
 95 660 l 1,2,-1
 95 35 l 1,3,-1
 400 35 l 1,0,-1
436 0 m 1,4,-1
 63 0 l 1,5,-1
 61 695 l 1,6,-1
 434 695 l 1,7,-1
 436 0 l 1,4,-1
EndSplineSet
EndChar
StartChar: numbersign
Encoding: 35 35 4
Width: 509
Flags: W
Fore
365 290 m 1,0,1
 362 262 362 262 359 233 c 128,-1,2
 356 204 356 204 352 179 c 1,3,-1
 455 179 l 1,4,-1
 448 148 l 1,5,-1
 350 148 l 1,6,-1
 332 -1 l 1,7,-1
 280 -1 l 1,8,-1
 297 148 l 1,9,-1
 182 148 l 1,10,-1
 166 -1 l 1,11,-1
 114 -1 l 1,12,-1
 130 148 l 1,13,-1
 43 148 l 1,14,-1
 50 179 l 1,15,-1
 133 179 l 1,16,17
 135 208 135 208 139 235 c 128,-1,18
 143 262 143 262 146 290 c 1,19,-1
 54 290 l 1,20,-1
 62 321 l 1,21,-1
 150 321 l 1,22,-1
 167 465 l 1,23,-1
 217 465 l 1,24,-1
 201 321 l 1,25,-1
 317 321 l 1,26,27
 322 356 322 356 326 393 c 128,-1,28
 330 430 330 430 332 465 c 1,29,-1
 385 465 l 1,30,-1
 369 321 l 1,31,-1
 466 321 l 1,32,-1
 458 290 l 1,33,-1
 365 290 l 1,0,1
197 290 m 1,34,35
 195 262 195 262 191 235 c 128,-1,36
 187 208 187 208 185 179 c 1,37,-1
 300 179 l 1,38,39
 302 201 302 201 305 221 c 0,40,41
 307 238 307 238 309 257 c 128,-1,42
 311 276 311 276 313 290 c 1,43,-1
 197 290 l 1,34,35
EndSplineSet
EndChar
StartChar: dollar
Encoding: 36 36 5
Width: 476
Flags: W
Fore
427 131 m 0,0,1
 428 97 428 97 414 72 c 128,-1,2
 400 47 400 47 376.5 30 c 128,-1,3
 353 13 353 13 322.5 3.5 c 128,-1,4
 292 -6 292 -6 262 -9 c 1,5,-1
 263 -97 l 1,6,-1
 213 -97 l 1,7,-1
 212 -9 l 1,8,9
 188 -7 188 -7 163 -1 c 128,-1,10
 138 5 138 5 115.5 17.5 c 128,-1,11
 93 30 93 30 75 49 c 128,-1,12
 57 68 57 68 46 96 c 1,13,-1
 100 96 l 1,14,15
 107 80 107 80 120 70 c 128,-1,16
 133 60 133 60 148.5 53.5 c 128,-1,17
 164 47 164 47 180.5 43.5 c 128,-1,18
 197 40 197 40 212 38 c 1,19,-1
 212 227 l 1,20,21
 184 232 184 232 157.5 240 c 128,-1,22
 131 248 131 248 110 261.5 c 128,-1,23
 89 275 89 275 75.5 296.5 c 128,-1,24
 62 318 62 318 61 351 c 0,25,26
 59 382 59 382 72 405.5 c 128,-1,27
 85 429 85 429 107 446 c 128,-1,28
 129 463 129 463 156.5 473 c 128,-1,29
 184 483 184 483 212 486 c 1,30,-1
 212 565 l 1,31,-1
 261 565 l 1,32,-1
 262 487 l 1,33,34
 285 485 285 485 308.5 478 c 128,-1,35
 332 471 332 471 352.5 459 c 128,-1,36
 373 447 373 447 387.5 429.5 c 128,-1,37
 402 412 402 412 407 388 c 1,38,-1
 355 388 l 1,39,40
 338 416 338 416 313 426 c 128,-1,41
 288 436 288 436 262 441 c 1,42,-1
 262 259 l 1,43,44
 292 255 292 255 320.5 248.5 c 128,-1,45
 349 242 349 242 372.5 228.5 c 128,-1,46
 396 215 396 215 410.5 192 c 128,-1,47
 425 169 425 169 427 131 c 0,0,1
116 351 m 0,48,49
 117 330 117 330 124.5 315.5 c 128,-1,50
 132 301 132 301 145 292 c 128,-1,51
 158 283 158 283 175 278 c 128,-1,52
 192 273 192 273 212 269 c 1,53,-1
 212 440 l 1,54,55
 196 437 196 437 179 431.5 c 128,-1,56
 162 426 162 426 148 416 c 128,-1,57
 134 406 134 406 125 390 c 128,-1,58
 116 374 116 374 116 351 c 0,48,49
262 37 m 1,59,60
 284 38 284 38 303.5 43 c 128,-1,61
 323 48 323 48 338 58.5 c 128,-1,62
 353 69 353 69 362 86.5 c 128,-1,63
 371 104 371 104 371 131 c 0,64,65
 371 151 371 151 362.5 165 c 128,-1,66
 354 179 354 179 339 188.5 c 128,-1,67
 324 198 324 198 304 204.5 c 128,-1,68
 284 211 284 211 262 217 c 1,69,-1
 262 37 l 1,59,60
EndSplineSet
EndChar
StartChar: percent
Encoding: 37 37 6
Width: 694
Flags: W
Fore
509 482 m 1,0,-1
 219 -3 l 1,1,-1
 156 -3 l 1,2,-1
 446 482 l 1,3,-1
 509 482 l 1,0,-1
274 342 m 0,4,5
 274 313 274 313 265 287.5 c 128,-1,6
 256 262 256 262 240 242.5 c 128,-1,7
 224 223 224 223 201.5 212 c 128,-1,8
 179 201 179 201 151 201 c 0,9,10
 127 201 127 201 105.5 212.5 c 128,-1,11
 84 224 84 224 68 243.5 c 128,-1,12
 52 263 52 263 43 288.5 c 128,-1,13
 34 314 34 314 34 342 c 256,14,15
 34 370 34 370 43.5 395.5 c 128,-1,16
 53 421 53 421 69 439.5 c 128,-1,17
 85 458 85 458 106.5 469 c 128,-1,18
 128 480 128 480 152 480 c 0,19,20
 177 481 177 481 199 470 c 128,-1,21
 221 459 221 459 237.5 440 c 128,-1,22
 254 421 254 421 264 395.5 c 128,-1,23
 274 370 274 370 274 342 c 0,4,5
152 243 m 0,24,25
 167 242 167 242 179.5 249.5 c 128,-1,26
 192 257 192 257 200.5 270.5 c 128,-1,27
 209 284 209 284 213.5 303 c 128,-1,28
 218 322 218 322 217 343 c 0,29,30
 216 363 216 363 211 380.5 c 128,-1,31
 206 398 206 398 197.5 411 c 128,-1,32
 189 424 189 424 177 431 c 128,-1,33
 165 438 165 438 150 437 c 0,34,35
 135 435 135 435 124 426.5 c 128,-1,36
 113 418 113 418 105 405 c 128,-1,37
 97 392 97 392 93 376 c 128,-1,38
 89 360 89 360 89 344 c 0,39,40
 87 324 87 324 91 306 c 128,-1,41
 95 288 95 288 104 274.5 c 128,-1,42
 113 261 113 261 125.5 252.5 c 128,-1,43
 138 244 138 244 152 243 c 0,24,25
522 289 m 0,44,45
 546 290 546 290 569 280 c 128,-1,46
 592 270 592 270 610 251.5 c 128,-1,47
 628 233 628 233 638 207.5 c 128,-1,48
 648 182 648 182 647 151 c 0,49,50
 646 122 646 122 637.5 96.5 c 128,-1,51
 629 71 629 71 613 51.5 c 128,-1,52
 597 32 597 32 574 20.5 c 128,-1,53
 551 9 551 9 521 10 c 0,54,55
 494 11 494 11 471 22.5 c 128,-1,56
 448 34 448 34 431.5 53 c 128,-1,57
 415 72 415 72 406 97.5 c 128,-1,58
 397 123 397 123 397 151 c 256,59,60
 397 179 397 179 407.5 205 c 128,-1,61
 418 231 418 231 435.5 250.5 c 128,-1,62
 453 270 453 270 475.5 280.5 c 128,-1,63
 498 291 498 291 522 289 c 0,44,45
522 52 m 0,64,65
 537 51 537 51 549.5 58.5 c 128,-1,66
 562 66 562 66 571 79.5 c 128,-1,67
 580 93 580 93 585 112 c 128,-1,68
 590 131 590 131 589 152 c 0,69,70
 587 192 587 192 569.5 218.5 c 128,-1,71
 552 245 552 245 520 246 c 0,72,73
 505 246 505 246 493.5 237.5 c 128,-1,74
 482 229 482 229 473.5 215.5 c 128,-1,75
 465 202 465 202 460.5 185.5 c 128,-1,76
 456 169 456 169 456 153 c 0,77,78
 454 133 454 133 458.5 115 c 128,-1,79
 463 97 463 97 472.5 83.5 c 128,-1,80
 482 70 482 70 495 61.5 c 128,-1,81
 508 53 508 53 522 52 c 0,64,65
EndSplineSet
EndChar
StartChar: ampersand
Encoding: 38 38 7
Width: 476
Flags: W
Fore
393 -1 m 1,0,-1
 336 53 l 1,1,2
 294 18 294 18 258.5 7 c 128,-1,3
 223 -4 223 -4 181 -4 c 0,4,5
 151 -4 151 -4 121 6.5 c 128,-1,6
 91 17 91 17 66.5 35 c 128,-1,7
 42 53 42 53 26.5 78 c 128,-1,8
 11 103 11 103 11 132 c 0,9,10
 11 159 11 159 21 181.5 c 128,-1,11
 31 204 31 204 47 222 c 128,-1,12
 63 240 63 240 83 254 c 128,-1,13
 103 268 103 268 124 278 c 1,14,15
 103 306 103 306 91 331 c 128,-1,16
 79 356 79 356 79 380 c 0,17,18
 79 425 79 425 110.5 460 c 128,-1,19
 142 495 142 495 208 498 c 0,20,21
 231 499 231 499 252.5 492 c 128,-1,22
 274 485 274 485 291 472 c 128,-1,23
 308 459 308 459 318.5 440.5 c 128,-1,24
 329 422 329 422 330 400 c 0,25,26
 331 374 331 374 320.5 354 c 128,-1,27
 310 334 310 334 292 318.5 c 128,-1,28
 274 303 274 303 249 290.5 c 128,-1,29
 224 278 224 278 195 268 c 1,30,31
 240 219 240 219 273 182 c 128,-1,32
 306 145 306 145 332 122 c 1,33,34
 341 134 341 134 348.5 144.5 c 128,-1,35
 356 155 356 155 363.5 170 c 128,-1,36
 371 185 371 185 377 206.5 c 128,-1,37
 383 228 383 228 389 261 c 1,38,-1
 446 261 l 1,39,40
 434 196 434 196 414 155 c 128,-1,41
 394 114 394 114 371 88 c 1,42,43
 381 77 381 77 394.5 65 c 128,-1,44
 408 53 408 53 422 41 c 128,-1,45
 436 29 436 29 449 18.5 c 128,-1,46
 462 8 462 8 471 0 c 1,47,-1
 393 -1 l 1,48,-1
 393 -1 l 1,0,-1
278 396 m 0,49,50
 279 425 279 425 258.5 442.5 c 128,-1,51
 238 460 238 460 206 458 c 0,52,53
 169 456 169 456 150.5 436 c 128,-1,54
 132 416 132 416 132 384 c 0,55,56
 132 354 132 354 147 333.5 c 128,-1,57
 162 313 162 313 173 301 c 1,58,59
 195 312 195 312 214.5 321.5 c 128,-1,60
 234 331 234 331 248 341.5 c 128,-1,61
 262 352 262 352 270 365 c 128,-1,62
 278 378 278 378 278 396 c 0,49,50
183 43 m 0,63,64
 225 43 225 43 249.5 55.5 c 128,-1,65
 274 68 274 68 296 86 c 1,66,67
 280 102 280 102 243 143.5 c 128,-1,68
 206 185 206 185 153 245 c 1,69,70
 141 239 141 239 127 230 c 128,-1,71
 113 221 113 221 100.5 208.5 c 128,-1,72
 88 196 88 196 80 179 c 128,-1,73
 72 162 72 162 72 138 c 0,74,75
 72 113 72 113 83.5 95 c 128,-1,76
 95 77 95 77 111.5 65.5 c 128,-1,77
 128 54 128 54 147.5 48.5 c 128,-1,78
 167 43 167 43 183 43 c 0,63,64
EndSplineSet
EndChar
StartChar: quotesingle
Encoding: 39 39 8
Width: 137
Flags: W
Fore
83 339 m 1,0,-1
 47 339 l 1,1,-1
 36 480 l 1,2,-1
 94 480 l 1,3,-1
 83 339 l 1,0,-1
EndSplineSet
EndChar
StartChar: parenleft
Encoding: 40 40 9
Width: 221
Flags: W
Fore
167 -58 m 1,0,1
 146 -35 146 -35 126 -6 c 128,-1,2
 106 23 106 23 90.5 59.5 c 128,-1,3
 75 96 75 96 65.5 139.5 c 128,-1,4
 56 183 56 183 56 234 c 0,5,6
 56 288 56 288 65.5 331.5 c 128,-1,7
 75 375 75 375 90.5 411 c 128,-1,8
 106 447 106 447 125.5 476.5 c 128,-1,9
 145 506 145 506 166 532 c 1,10,-1
 220 532 l 1,11,12
 168 473 168 473 138 402 c 128,-1,13
 108 331 108 331 108 234 c 0,14,15
 108 186 108 186 116 145 c 128,-1,16
 124 104 124 104 139 69 c 128,-1,17
 154 34 154 34 174.5 2.5 c 128,-1,18
 195 -29 195 -29 219 -58 c 1,19,-1
 167 -58 l 1,0,1
EndSplineSet
EndChar
StartChar: parenright
Encoding: 41 41 10
Width: 222
Flags: W
Fore
51 532 m 1,0,1
 72 509 72 509 92 480 c 128,-1,2
 112 451 112 451 127.5 414.5 c 128,-1,3
 143 378 143 378 152.5 334.5 c 128,-1,4
 162 291 162 291 162 240 c 0,5,6
 162 186 162 186 152.5 142 c 128,-1,7
 143 98 143 98 127.5 62 c 128,-1,8
 112 26 112 26 92.5 -3.5 c 128,-1,9
 73 -33 73 -33 52 -58 c 1,10,-1
 1 -58 l 1,11,12
 26 -28 26 -28 46 4 c 128,-1,13
 66 36 66 36 80 72 c 128,-1,14
 94 108 94 108 102 149.5 c 128,-1,15
 110 191 110 191 110 240 c 0,16,17
 110 288 110 288 102 329 c 128,-1,18
 94 370 94 370 79 405 c 128,-1,19
 64 440 64 440 44 471.5 c 128,-1,20
 24 503 24 503 0 532 c 1,21,-1
 51 532 l 1,0,1
EndSplineSet
EndChar
StartChar: asterisk
Encoding: 42 42 11
Width: 318
Flags: W
Fore
289 404 m 1,0,-1
 289 348 l 1,1,-1
 188 357 l 1,2,-1
 248 280 l 1,3,-1
 201 252 l 1,4,-1
 157 337 l 1,5,-1
 120 246 l 1,6,-1
 70 269 l 1,7,-1
 126 357 l 1,8,-1
 23 347 l 1,9,-1
 23 403 l 1,10,-1
 120 395 l 1,11,-1
 58 475 l 1,12,-1
 106 503 l 1,13,-1
 153 411 l 1,14,-1
 191 506 l 1,15,-1
 240 482 l 1,16,-1
 186 394 l 1,17,-1
 289 404 l 1,18,-1
 289 404 l 1,0,-1
EndSplineSet
EndChar
StartChar: plus
Encoding: 43 43 12
Width: 437
Flags: W
Fore
246 162 m 1,0,-1
 248 0 l 1,1,-1
 188 0 l 1,2,-1
 186 162 l 1,3,-1
 27 162 l 1,4,-1
 27 217 l 1,5,-1
 186 217 l 1,6,-1
 186 383 l 1,7,-1
 246 383 l 1,8,-1
 246 217 l 1,9,-1
 407 217 l 1,10,-1
 407 162 l 1,11,-1
 246 162 l 1,12,-1
 246 162 l 1,0,-1
EndSplineSet
EndChar
StartChar: comma
Encoding: 44 44 13
Width: 141
Flags: W
Fore
97 67 m 0,0,1
 106 62 106 62 111.5 52 c 128,-1,2
 117 42 117 42 117 31 c 0,3,4
 117 11 117 11 110.5 -5.5 c 128,-1,5
 104 -22 104 -22 93.5 -35 c 128,-1,6
 83 -48 83 -48 70.5 -58 c 128,-1,7
 58 -68 58 -68 46 -74 c 1,8,-1
 17 -74 l 1,9,10
 39 -61 39 -61 58 -42 c 128,-1,11
 77 -23 77 -23 82 0 c 1,12,13
 71 -8 71 -8 58.5 -8 c 128,-1,14
 46 -8 46 -8 37 -2 c 1,15,16
 28 7 28 7 28.5 23.5 c 128,-1,17
 29 40 29 40 43 56 c 0,18,19
 56 70 56 70 72.5 71 c 128,-1,20
 89 72 89 72 97 67 c 0,0,1
EndSplineSet
EndChar
StartChar: hyphen
Encoding: 45 45 14
Width: 253
Flags: W
Fore
36 160 m 1,0,-1
 36 217 l 1,1,-1
 211 217 l 1,2,-1
 211 160 l 1,3,-1
 36 160 l 1,0,-1
EndSplineSet
EndChar
StartChar: period
Encoding: 46 46 15
Width: 141
Flags: W
Fore
69 79 m 1,0,1
 84 81 84 81 94 68 c 128,-1,2
 104 55 104 55 104 35 c 0,3,4
 104 16 104 16 94 2.5 c 128,-1,5
 84 -11 84 -11 69 -11 c 0,6,7
 52 -11 52 -11 41.5 2.5 c 128,-1,8
 31 16 31 16 32 35 c 0,9,10
 32 55 32 55 43 68 c 128,-1,11
 54 81 54 81 69 79 c 1,0,1
EndSplineSet
EndChar
StartChar: slash
Encoding: 47 47 16
Width: 306
Flags: W
Fore
50 -29 m 1,0,-1
 -7 -29 l 1,1,-1
 244 493 l 1,2,-1
 304 493 l 1,3,-1
 50 -29 l 1,4,-1
 50 -29 l 1,0,-1
EndSplineSet
EndChar
StartChar: zero
Encoding: 48 48 17
Width: 438
Flags: W
Fore
213 476 m 2,0,-1
 221 476 l 2,1,2
 269 476 269 476 299.5 456.5 c 128,-1,3
 330 437 330 437 348 406 c 128,-1,4
 366 375 366 375 373.5 337.5 c 128,-1,5
 381 300 381 300 383 263 c 0,6,7
 384 221 384 221 378.5 176 c 128,-1,8
 373 131 373 131 353 89 c 0,9,10
 336 53 336 53 305.5 28.5 c 128,-1,11
 275 4 275 4 225 2 c 2,12,-1
 218 2 l 2,13,14
 184 2 184 2 158 11.5 c 128,-1,15
 132 21 132 21 113.5 37.5 c 128,-1,16
 95 54 95 54 82.5 76.5 c 128,-1,17
 70 99 70 99 63 124 c 0,18,19
 57 143 57 143 54 163 c 0,20,21
 52 173 52 173 51.5 182.5 c 128,-1,22
 51 192 51 192 50 202 c 2,23,-1
 50 203 l 1,24,-1
 50 225 l 2,25,26
 50 263 50 263 56 305.5 c 128,-1,27
 62 348 62 348 79 386 c 0,28,29
 98 424 98 424 130 449 c 128,-1,30
 162 474 162 474 213 476 c 2,0,-1
220 436 m 2,31,-1
 219 436 l 2,32,33
 181 436 181 436 157.5 411.5 c 128,-1,34
 134 387 134 387 123 352 c 0,35,36
 111 316 111 316 108.5 275.5 c 128,-1,37
 106 235 106 235 107 205 c 0,38,39
 108 186 108 186 110.5 165.5 c 128,-1,40
 113 145 113 145 119 126 c 128,-1,41
 125 107 125 107 134.5 90 c 128,-1,42
 144 73 144 73 159 62 c 2,43,44
 170 51 170 51 186 47 c 128,-1,45
 202 43 202 43 218 42 c 2,46,-1
 219 42 l 1,47,-1
 222 42 l 2,48,49
 255 44 255 44 276.5 65 c 128,-1,50
 298 86 298 86 309 116 c 0,51,52
 322 152 322 152 324.5 191.5 c 128,-1,53
 327 231 327 231 327 265 c 0,54,55
 326 283 326 283 323 304 c 128,-1,56
 320 325 320 325 314 345 c 128,-1,57
 308 365 308 365 298.5 383.5 c 128,-1,58
 289 402 289 402 275 414 c 0,59,60
 269 419 269 419 263.5 423.5 c 128,-1,61
 258 428 258 428 251 430 c 0,62,63
 237 436 237 436 220 436 c 2,31,-1
EndSplineSet
EndChar
StartChar: one
Encoding: 49 49 18
Width: 438
Flags: W
Fore
197 4 m 1,0,-1
 197 410 l 1,1,-1
 164 391 l 1,2,-1
 153 385 l 1,3,-1
 154 397 l 1,4,-1
 155 438 l 1,5,-1
 155 442 l 1,6,-1
 158 443 l 1,7,-1
 207 472 l 1,8,-1
 211 473 l 1,9,-1
 242 473 l 1,10,-1
 249 473 l 1,11,-1
 249 466 l 1,12,-1
 250 4 l 1,13,-1
 250 -3 l 1,14,-1
 243 -3 l 1,15,-1
 204 -3 l 1,16,-1
 197 -3 l 1,17,-1
 197 4 l 1,0,-1
EndSplineSet
EndChar
StartChar: two
Encoding: 50 50 19
Width: 438
Flags: W
Fore
359 2 m 1,0,-1
 68 2 l 1,1,-1
 61 2 l 1,2,-1
 61 10 l 1,3,-1
 62 33 l 1,4,-1
 64 37 l 1,5,6
 96 69 96 69 127.5 101 c 128,-1,7
 159 133 159 133 189 167 c 0,8,9
 219 199 219 199 250.5 233.5 c 128,-1,10
 282 268 282 268 308 304 c 0,11,12
 313 313 313 313 317.5 320.5 c 128,-1,13
 322 328 322 328 325 335 c 0,14,15
 327 339 327 339 328 340 c 1,16,17
 333 358 333 358 333 369 c 256,18,19
 333 380 333 380 330 387.5 c 128,-1,20
 327 395 327 395 321 402 c 1,21,22
 315 407 315 407 305.5 411.5 c 128,-1,23
 296 416 296 416 284 421 c 0,24,25
 245 435 245 435 202 430.5 c 128,-1,26
 159 426 159 426 119 416 c 0,27,28
 108 414 108 414 95 410 c 1,29,-1
 86 409 l 1,30,-1
 87 418 l 1,31,-1
 90 459 l 1,32,-1
 96 460 l 2,33,34
 120 465 120 465 149.5 469 c 128,-1,35
 179 473 179 473 208 475 c 0,36,37
 239 476 239 476 268.5 472 c 128,-1,38
 298 468 298 468 322 457 c 0,39,40
 337 450 337 450 350 440 c 128,-1,41
 363 430 363 430 371 417 c 2,42,43
 373 415 373 415 374 412 c 128,-1,44
 375 409 375 409 377 407 c 1,45,46
 385 391 385 391 385 370 c 0,47,48
 385 356 385 356 380 338 c 0,49,50
 377 330 377 330 372.5 321.5 c 128,-1,51
 368 313 368 313 363 303 c 0,52,53
 341 267 341 267 315.5 233 c 128,-1,54
 290 199 290 199 261 167 c 0,55,56
 235 137 235 137 205.5 107 c 128,-1,57
 176 77 176 77 148 49 c 1,58,-1
 175 49 l 2,59,60
 199 49 199 49 220 49 c 128,-1,61
 241 49 241 49 262.5 49.5 c 128,-1,62
 284 50 284 50 307.5 50.5 c 128,-1,63
 331 51 331 51 358 53 c 2,64,-1
 365 54 l 1,65,-1
 365 46 l 1,66,-1
 366 9 l 1,67,-1
 366 2 l 1,68,-1
 359 2 l 1,0,-1
EndSplineSet
EndChar
StartChar: three
Encoding: 51 51 20
Width: 438
Flags: W
Fore
150 227 m 1,0,-1
 151 263 l 1,1,-1
 151 269 l 1,2,-1
 157 268 l 1,3,4
 166 268 166 268 174 267.5 c 128,-1,5
 182 267 182 267 190 267 c 0,6,7
 213 267 213 267 234.5 271 c 128,-1,8
 256 275 256 275 273 284 c 0,9,10
 290 294 290 294 305 309.5 c 128,-1,11
 320 325 320 325 322 348 c 2,12,13
 323 351 323 351 323 360 c 1,14,15
 319 383 319 383 309 397 c 128,-1,16
 299 411 299 411 285 419.5 c 128,-1,17
 271 428 271 428 252.5 431.5 c 128,-1,18
 234 435 234 435 214 437 c 0,19,20
 199 437 199 437 185 436 c 128,-1,21
 171 435 171 435 157 433 c 256,22,23
 143 431 143 431 130 429 c 128,-1,24
 117 427 117 427 104 422 c 1,25,-1
 94 420 l 1,26,-1
 95 429 l 1,27,-1
 98 460 l 1,28,-1
 99 465 l 1,29,-1
 104 466 l 2,30,31
 136 472 136 472 163.5 474.5 c 128,-1,32
 191 477 191 477 211 477 c 0,33,34
 238 477 238 477 267 472 c 128,-1,35
 296 467 296 467 319 455 c 0,36,37
 344 442 344 442 360 421.5 c 128,-1,38
 376 401 376 401 376 370 c 0,39,40
 376 315 376 315 345 284 c 0,41,42
 321 257 321 257 281 247 c 1,43,44
 300 242 300 242 313.5 237 c 128,-1,45
 327 232 327 232 336 227 c 128,-1,46
 345 222 345 222 351 217 c 128,-1,47
 357 212 357 212 362 208 c 1,48,49
 390 173 390 173 384 131 c 0,50,51
 377 81 377 81 349.5 53 c 128,-1,52
 322 25 322 25 285.5 12.5 c 128,-1,53
 249 0 249 0 209 -1 c 128,-1,54
 169 -2 169 -2 138 1 c 0,55,56
 129 3 129 3 119.5 4.5 c 128,-1,57
 110 6 110 6 100 8 c 0,58,59
 91 10 91 10 81.5 12 c 128,-1,60
 72 14 72 14 63 16 c 1,61,-1
 58 18 l 1,62,-1
 58 22 l 1,63,-1
 55 59 l 1,64,-1
 54 69 l 1,65,-1
 64 65 l 2,66,67
 107 48 107 48 157.5 41.5 c 128,-1,68
 208 35 208 35 251 50 c 0,69,70
 279 61 279 61 295.5 73.5 c 128,-1,71
 312 86 312 86 320 99.5 c 128,-1,72
 328 113 328 113 329.5 126 c 128,-1,73
 331 139 331 139 330 150 c 0,74,75
 325 173 325 173 309 189 c 0,76,77
 280 212 280 212 245 217 c 128,-1,78
 210 222 210 222 178 220 c 2,79,-1
 156 220 l 1,80,-1
 149 220 l 1,81,-1
 150 227 l 1,0,-1
EndSplineSet
EndChar
StartChar: four
Encoding: 52 52 21
Width: 438
Flags: W
Fore
272 2 m 1,0,-1
 274 163 l 1,1,-1
 59 163 l 1,2,-1
 52 163 l 1,3,-1
 52 170 l 1,4,-1
 52 208 l 1,5,-1
 53 212 l 1,6,-1
 255 475 l 1,7,-1
 257 478 l 1,8,-1
 261 478 l 1,9,-1
 320 478 l 1,10,-1
 327 478 l 1,11,-1
 327 471 l 1,12,-1
 326 208 l 1,13,-1
 397 208 l 1,14,-1
 397 201 l 1,15,-1
 397 170 l 1,16,-1
 397 163 l 1,17,-1
 326 163 l 1,18,-1
 332 3 l 1,19,-1
 333 -4 l 1,20,-1
 326 -4 l 1,21,-1
 278 -4 l 1,22,-1
 272 -4 l 1,23,-1
 272 2 l 1,24,-1
 272 2 l 1,25,-1
 272 2 l 1,0,-1
115 208 m 1,26,-1
 273 208 l 1,27,-1
 269 423 l 1,28,-1
 115 208 l 1,29,-1
 115 208 l 1,26,-1
EndSplineSet
EndChar
StartChar: five
Encoding: 53 53 22
Width: 438
Flags: W
Fore
72 240 m 1,0,-1
 98 468 l 1,1,-1
 98 475 l 1,2,-1
 103 475 l 1,3,-1
 368 475 l 1,4,-1
 374 475 l 1,5,-1
 374 468 l 1,6,-1
 374 434 l 1,7,-1
 374 428 l 1,8,-1
 368 428 l 2,9,10
 338 430 338 430 310.5 431.5 c 128,-1,11
 283 433 283 433 256 433 c 2,12,-1
 145 433 l 1,13,-1
 125 279 l 1,14,-1
 128 279 l 2,15,16
 154 282 154 282 182 284.5 c 128,-1,17
 210 287 210 287 237.5 285.5 c 128,-1,18
 265 284 265 284 290.5 276.5 c 128,-1,19
 316 269 316 269 337 252 c 0,20,21
 365 231 365 231 374 203 c 0,22,23
 382 186 382 186 383 167 c 128,-1,24
 384 148 384 148 379 130 c 256,25,26
 374 112 374 112 366 94 c 128,-1,27
 358 76 358 76 346 61 c 0,28,29
 332 43 332 43 313 28 c 128,-1,30
 294 13 294 13 272 5 c 0,31,32
 237 -9 237 -9 198.5 -12.5 c 128,-1,33
 160 -16 160 -16 121 -12 c 0,34,35
 113 -11 113 -11 106 -10 c 128,-1,36
 92 -8 l 0,37,38
 84 -6 84 -6 77 -5 c 128,-1,39
 70 -4 70 -4 63 -2 c 1,40,-1
 62 -2 l 1,41,-1
 59 -1 l 1,42,-1
 58 4 l 1,43,-1
 54 30 l 1,44,-1
 53 40 l 1,45,-1
 61 37 l 2,46,47
 90 30 90 30 118.5 25.5 c 128,-1,48
 147 21 147 21 174 23 c 0,49,50
 200 25 200 25 225.5 32.5 c 128,-1,51
 251 40 251 40 276 58 c 0,52,53
 293 71 293 71 306 90 c 0,54,55
 322 114 322 114 324 140 c 0,56,57
 325 152 325 152 322 168 c 128,-1,58
 319 184 319 184 311 195 c 0,59,60
 306 201 306 201 301 206.5 c 128,-1,61
 296 212 296 212 289 217 c 0,62,63
 268 231 268 231 242 236 c 128,-1,64
 216 241 216 241 188 242 c 256,65,66
 160 243 160 243 132 240 c 128,-1,67
 104 237 104 237 80 233 c 2,68,-1
 71 232 l 1,69,-1
 72 240 l 1,0,-1
EndSplineSet
EndChar
StartChar: six
Encoding: 54 54 23
Width: 438
Flags: W
Fore
122 341 m 0,0,1
 145 376 145 376 171.5 408.5 c 128,-1,2
 198 441 198 441 224 473 c 2,3,-1
 226 475 l 1,4,-1
 230 475 l 1,5,-1
 265 475 l 1,6,-1
 278 475 l 1,7,-1
 271 465 l 1,8,9
 266 460 266 460 262 453.5 c 128,-1,10
 258 447 258 447 253 439 c 0,11,12
 242 423 242 423 226.5 403 c 128,-1,13
 211 383 211 383 194 360.5 c 128,-1,14
 177 338 177 338 160.5 313 c 128,-1,15
 144 288 144 288 132 263 c 1,16,17
 152 268 152 268 180 270.5 c 128,-1,18
 208 273 208 273 228 273 c 0,19,20
 257 273 257 273 282.5 267.5 c 128,-1,21
 308 262 308 262 329 249 c 0,22,23
 351 236 351 236 365.5 217 c 128,-1,24
 380 198 380 198 386 170 c 0,25,26
 389 156 389 156 389 139 c 0,27,28
 389 106 389 106 375.5 78 c 128,-1,29
 362 50 362 50 339 29 c 0,30,31
 293 -14 293 -14 217 -14 c 0,32,33
 184 -14 184 -14 157 -8 c 0,34,35
 128 -1 128 -1 107 12.5 c 128,-1,36
 86 26 86 26 72 44 c 0,37,38
 57 64 57 64 50.5 87 c 128,-1,39
 44 110 44 110 44 136 c 256,40,41
 44 162 44 162 50 192 c 0,42,43
 60 230 60 230 78.5 267.5 c 128,-1,44
 97 305 97 305 122 341 c 0,0,1
115 208 m 1,45,46
 104 181 104 181 101 156 c 0,47,48
 93 110 93 110 118.5 72.5 c 128,-1,49
 144 35 144 35 207 26 c 0,50,51
 234 23 234 23 257 31 c 128,-1,52
 280 39 280 39 297 54.5 c 128,-1,53
 314 70 314 70 324 92.5 c 128,-1,54
 334 115 334 115 335 142 c 0,55,56
 335 150 335 150 334 156 c 128,-1,57
 333 162 333 162 331 169 c 0,58,59
 326 185 326 185 314.5 196 c 128,-1,60
 303 207 303 207 289 215 c 0,61,62
 262 230 262 230 221 230 c 0,63,64
 197 230 197 230 171.5 227.5 c 128,-1,65
 146 225 146 225 125 214 c 2,66,-1
 115 208 l 1,45,46
EndSplineSet
EndChar
StartChar: seven
Encoding: 55 55 24
Width: 438
Flags: W
Fore
160 147 m 0,0,1
 196 213 196 213 234 282 c 128,-1,2
 272 351 272 351 311 428 c 1,3,-1
 280 428 l 2,4,5
 228 428 228 428 177.5 428 c 128,-1,6
 127 428 127 428 70 426 c 2,7,-1
 64 426 l 1,8,-1
 64 432 l 1,9,-1
 64 468 l 1,10,-1
 64 475 l 1,11,-1
 70 475 l 1,12,-1
 362 475 l 1,13,-1
 369 475 l 1,14,-1
 369 468 l 1,15,-1
 368 429 l 1,16,-1
 367 427 l 2,17,18
 344 381 344 381 320 336 c 128,-1,19
 272 246 l 0,20,21
 239 184 239 184 206.5 123 c 128,-1,22
 174 62 174 62 142 -4 c 2,23,-1
 140 -8 l 1,24,-1
 136 -8 l 1,25,-1
 87 -8 l 1,26,-1
 76 -8 l 1,27,-1
 81 2 l 2,28,29
 101 39 101 39 120.5 74.5 c 128,-1,30
 140 110 140 110 160 147 c 0,0,1
0 -6111 m 0,31,32
 35 -6045 35 -6045 73 -5976 c 128,-1,33
 111 -5907 111 -5907 150 -5830 c 1,34,-1
 119 -5830 l 2,35,36
 67 -5830 67 -5830 21.5 -5830 c 128,-1,37
 -24 -5830 -24 -5830 -81 -5832 c 2,38,-1
 -87 -5832 l 1,39,-1
 -87 -5826 l 1,40,-1
 -87 -5790 l 1,41,-1
 -87 -5783 l 1,42,-1
 -81 -5783 l 1,43,-1
 210 -5783 l 1,44,-1
 217 -5783 l 1,45,-1
 217 -5790 l 1,46,-1
 216 -5829 l 1,47,-1
 215 -5831 l 2,48,49
 192 -5877 192 -5877 168 -5922 c 128,-1,50
 120 -6012 l 0,51,52
 87 -6074 87 -6074 55 -6135 c 128,-1,53
 23 -6196 23 -6196 -9 -6262 c 2,54,-1
 -11 -6266 l 1,55,-1
 -15 -6266 l 1,56,-1
 -73 -6266 l 1,57,-1
 -84 -6266 l 1,58,-1
 -79 -6256 l 2,59,60
 -59 -6219 -59 -6219 -39.5 -6183.5 c 128,-1,61
 -20 -6148 -20 -6148 0 -6111 c 0,31,32
EndSplineSet
EndChar
StartChar: eight
Encoding: 56 56 25
Width: 438
Flags: W
Fore
312 365 m 0,0,1
 312 400 312 400 285 422.5 c 128,-1,2
 258 445 258 445 218 445 c 0,3,4
 177 445 177 445 149.5 422.5 c 128,-1,5
 122 400 122 400 122 365 c 0,6,7
 122 331 122 331 150.5 306 c 128,-1,8
 179 281 179 281 218 281 c 0,9,10
 256 281 256 281 284 306 c 128,-1,11
 312 331 312 331 312 365 c 0,0,1
325 125 m 0,12,13
 325 167 325 167 294 194.5 c 128,-1,14
 263 222 263 222 218 222 c 256,15,16
 173 222 173 222 141.5 194 c 128,-1,17
 110 166 110 166 110 125 c 0,18,19
 110 83 110 83 140 57 c 128,-1,20
 170 31 170 31 218 31 c 0,21,22
 262 31 262 31 293.5 58 c 128,-1,23
 325 85 325 85 325 125 c 0,12,13
363 369 m 0,24,25
 363 299 363 299 283 255 c 1,26,27
 331 240 331 240 355.5 206 c 128,-1,28
 380 172 380 172 380 130 c 0,29,30
 380 67 380 67 333.5 28 c 128,-1,31
 287 -11 287 -11 220 -11 c 0,32,33
 146 -11 146 -11 101.5 27.5 c 128,-1,34
 57 66 57 66 57 130 c 0,35,36
 57 170 57 170 81.5 205 c 128,-1,37
 106 240 106 240 151 256 c 1,38,39
 72 299 72 299 73 363 c 0,40,41
 73 421 73 421 109.5 454 c 128,-1,42
 146 487 146 487 218 487 c 0,43,44
 286 487 286 487 324.5 455 c 128,-1,45
 363 423 363 423 363 369 c 0,24,25
EndSplineSet
EndChar
StartChar: nine
Encoding: 57 57 26
Width: 438
Flags: W
Fore
297 133 m 0,0,1
 274 98 274 98 253.5 65.5 c 128,-1,2
 233 33 233 33 207 3 c 1,3,-1
 205 2 l 1,4,-1
 202 2 l 1,5,-1
 168 2 l 1,6,-1
 155 2 l 1,7,-1
 162 12 l 2,8,9
 166 18 166 18 170 23.5 c 128,-1,10
 174 29 174 29 179 37 c 0,11,12
 201 68 201 68 231 113 c 128,-1,13
 261 158 261 158 287 209 c 1,14,15
 250 198 250 198 208.5 198.5 c 128,-1,16
 167 199 167 199 132.5 213 c 128,-1,17
 98 227 98 227 75 255.5 c 128,-1,18
 52 284 52 284 51 329 c 2,19,-1
 51 330 l 2,20,21
 52 362 52 362 64.5 389 c 128,-1,22
 77 416 77 416 100 436 c 256,23,24
 123 456 123 456 153.5 467.5 c 128,-1,25
 184 479 184 479 219 478 c 2,26,-1
 220 478 l 2,27,28
 252 478 252 478 278 472 c 0,29,30
 306 465 306 465 322.5 452 c 128,-1,31
 339 439 339 439 353 420 c 0,32,33
 364 405 364 405 369.5 387 c 128,-1,34
 375 369 375 369 375.5 350 c 128,-1,35
 376 331 376 331 374 312.5 c 128,-1,36
 372 294 372 294 368 277 c 0,37,38
 357 239 357 239 338.5 203 c 128,-1,39
 320 167 320 167 297 133 c 0,0,1
308 261 m 1,40,41
 313 275 313 275 317 284.5 c 128,-1,42
 321 294 321 294 323 306 c 0,43,44
 329 330 329 330 323.5 353.5 c 128,-1,45
 318 377 318 377 302.5 395.5 c 128,-1,46
 287 414 287 414 262.5 424.5 c 128,-1,47
 238 435 238 435 206 432 c 0,48,49
 166 432 166 432 140 408 c 0,50,51
 117 385 117 385 108 357.5 c 128,-1,52
 99 330 99 330 107 301 c 0,53,54
 111 286 111 286 123 275 c 128,-1,55
 135 264 135 264 148 256 c 0,56,57
 175 241 175 241 214 241 c 0,58,59
 237 241 237 241 262.5 246 c 128,-1,60
 288 251 288 251 308 261 c 1,40,41
EndSplineSet
EndChar
StartChar: colon
Encoding: 58 58 27
Width: 137
Flags: W
Fore
69 79 m 1,0,1
 84 81 84 81 94 68 c 128,-1,2
 104 55 104 55 104 35 c 0,3,4
 104 16 104 16 94 2.5 c 128,-1,5
 84 -11 84 -11 69 -11 c 0,6,7
 52 -11 52 -11 41.5 2.5 c 128,-1,8
 31 16 31 16 32 35 c 0,9,10
 32 55 32 55 43 68 c 128,-1,11
 54 81 54 81 69 79 c 1,0,1
69 330 m 1,12,13
 84 332 84 332 94 319 c 128,-1,14
 104 306 104 306 104 286 c 0,15,16
 104 267 104 267 94 253.5 c 128,-1,17
 84 240 84 240 69 240 c 0,18,19
 52 240 52 240 41.5 253.5 c 128,-1,20
 31 267 31 267 32 286 c 0,21,22
 32 306 32 306 43 319 c 128,-1,23
 54 332 54 332 69 330 c 1,12,13
EndSplineSet
EndChar
StartChar: semicolon
Encoding: 59 59 28
Width: 147
Flags: W
Fore
97 67 m 0,0,1
 106 62 106 62 111.5 52 c 128,-1,2
 117 42 117 42 117 31 c 0,3,4
 117 11 117 11 110.5 -5.5 c 128,-1,5
 104 -22 104 -22 93.5 -35 c 128,-1,6
 83 -48 83 -48 70.5 -58 c 128,-1,7
 58 -68 58 -68 46 -74 c 1,8,-1
 17 -74 l 1,9,10
 39 -61 39 -61 58 -42 c 128,-1,11
 77 -23 77 -23 82 0 c 1,12,13
 71 -8 71 -8 58.5 -8 c 128,-1,14
 46 -8 46 -8 37 -2 c 1,15,16
 28 7 28 7 28.5 23.5 c 128,-1,17
 29 40 29 40 43 56 c 0,18,19
 56 70 56 70 72.5 71 c 128,-1,20
 89 72 89 72 97 67 c 0,0,1
69 330 m 1,21,22
 84 332 84 332 94 319 c 128,-1,23
 104 306 104 306 104 286 c 0,24,25
 104 267 104 267 94 253.5 c 128,-1,26
 84 240 84 240 69 240 c 0,27,28
 52 240 52 240 41.5 253.5 c 128,-1,29
 31 267 31 267 32 286 c 0,30,31
 32 306 32 306 43 319 c 128,-1,32
 54 332 54 332 69 330 c 1,21,22
EndSplineSet
EndChar
StartChar: less
Encoding: 60 60 29
Width: 431
Flags: W
Fore
375 -1 m 1,0,1
 349 34 349 34 308 66 c 128,-1,2
 267 98 267 98 221.5 124 c 128,-1,3
 176 150 176 150 130.5 169.5 c 128,-1,4
 85 189 85 189 51 199 c 1,5,6
 85 211 85 211 129.5 230.5 c 128,-1,7
 174 250 174 250 219 276 c 128,-1,8
 264 302 264 302 305 334 c 128,-1,9
 346 366 346 366 375 403 c 1,10,-1
 375 330 l 1,11,12
 353 307 353 307 326 287.5 c 128,-1,13
 299 268 299 268 269 251.5 c 128,-1,14
 239 235 239 235 207.5 222 c 128,-1,15
 176 209 176 209 146 199 c 1,16,17
 175 190 175 190 206 178.5 c 128,-1,18
 237 167 237 167 267 151.5 c 128,-1,19
 297 136 297 136 325 116 c 128,-1,20
 353 96 353 96 375 71 c 1,21,-1
 375 -1 l 1,0,1
EndSplineSet
EndChar
StartChar: equal
Encoding: 61 61 30
Width: 448
Flags: W
Fore
36 100 m 1,0,-1
 36 157 l 1,1,-1
 408 157 l 1,2,-1
 408 100 l 1,3,-1
 36 100 l 1,0,-1
36 234 m 1,4,-1
 36 291 l 1,5,-1
 408 291 l 1,6,-1
 408 234 l 1,7,-1
 36 234 l 1,4,-1
EndSplineSet
EndChar
StartChar: greater
Encoding: 62 62 31
Width: 429
Flags: W
Fore
48 403 m 1,0,1
 73 368 73 368 114.5 336 c 128,-1,2
 156 304 156 304 201.5 278 c 128,-1,3
 247 252 247 252 292.5 232.5 c 128,-1,4
 338 213 338 213 372 203 c 1,5,6
 338 191 338 191 293.5 171.5 c 128,-1,7
 249 152 249 152 204 126 c 128,-1,8
 159 100 159 100 117.5 68 c 128,-1,9
 76 36 76 36 48 -1 c 1,10,-1
 48 72 l 1,11,12
 70 95 70 95 97 114.5 c 128,-1,13
 124 134 124 134 154 150.5 c 128,-1,14
 184 167 184 167 215.5 180 c 128,-1,15
 247 193 247 193 277 203 c 1,16,17
 248 212 248 212 217 223.5 c 128,-1,18
 186 235 186 235 156 250.5 c 128,-1,19
 126 266 126 266 98 285.5 c 128,-1,20
 70 305 70 305 48 331 c 1,21,-1
 48 403 l 1,0,1
EndSplineSet
EndChar
StartChar: question
Encoding: 63 63 32
Width: 375
Flags: W
Fore
178 363 m 1,0,1
 173 347 173 347 164 332.5 c 128,-1,2
 155 318 155 318 142.5 307 c 128,-1,3
 130 296 130 296 115 290.5 c 128,-1,4
 100 285 100 285 84 288 c 0,5,6
 70 290 70 290 59.5 301 c 128,-1,7
 49 312 49 312 42 327 c 128,-1,8
 35 342 35 342 33.5 359.5 c 128,-1,9
 32 377 32 377 36 394 c 0,10,11
 38 406 38 406 40.5 413.5 c 128,-1,12
 43 421 43 421 48 429 c 0,13,14
 65 455 65 455 86 469.5 c 128,-1,15
 107 484 107 484 144 493 c 0,16,17
 196 502 196 502 239.5 485.5 c 128,-1,18
 283 469 283 469 308 437.5 c 128,-1,19
 333 406 333 406 334 365 c 128,-1,20
 335 324 335 324 304 284 c 0,21,22
 295 272 295 272 283 262.5 c 128,-1,23
 271 253 271 253 259 243 c 128,-1,24
 247 233 247 233 236.5 222 c 128,-1,25
 226 211 226 211 221 197 c 0,26,27
 215 181 215 181 213 168 c 128,-1,28
 211 155 211 155 210 145 c 0,29,30
 209 134 209 134 210 124 c 1,31,-1
 151 123 l 1,32,33
 149 133 149 133 149 145 c 0,34,35
 149 156 149 156 151.5 171 c 128,-1,36
 154 186 154 186 162 206 c 0,37,38
 168 221 168 221 181 236 c 128,-1,39
 194 251 194 251 208 263 c 0,40,41
 224 277 224 277 243 289 c 1,42,43
 273 317 273 317 278.5 348 c 128,-1,44
 284 379 284 379 273 404.5 c 128,-1,45
 262 430 262 430 238 446.5 c 128,-1,46
 214 463 214 463 185 463 c 0,47,48
 176 463 176 463 161 461.5 c 128,-1,49
 146 460 146 460 135 454 c 1,50,51
 146 449 146 449 155.5 443 c 128,-1,52
 165 437 165 437 171 426.5 c 128,-1,53
 177 416 177 416 179 400.5 c 128,-1,54
 181 385 181 385 178 363 c 1,0,1
78 387 m 0,55,56
 76 378 76 378 75 367 c 128,-1,57
 74 356 74 356 75.5 346 c 128,-1,58
 77 336 77 336 80.5 328.5 c 128,-1,59
 84 321 84 321 91 320 c 1,60,61
 97 318 97 318 104 322.5 c 128,-1,62
 111 327 111 327 117.5 334 c 128,-1,63
 124 341 124 341 129 350 c 128,-1,64
 134 359 134 359 136 368 c 0,65,66
 141 386 141 386 138.5 405 c 128,-1,67
 136 424 136 424 122 429 c 0,68,69
 108 433 108 433 95.5 418.5 c 128,-1,70
 83 404 83 404 78 387 c 0,55,56
181 79 m 1,71,72
 196 81 196 81 206 68 c 128,-1,73
 216 55 216 55 216 35 c 0,74,75
 216 16 216 16 206 2.5 c 128,-1,76
 196 -11 196 -11 181 -11 c 0,77,78
 164 -11 164 -11 153.5 2.5 c 128,-1,79
 143 16 143 16 144 35 c 0,80,81
 144 55 144 55 155 68 c 128,-1,82
 166 81 166 81 181 79 c 1,71,72
EndSplineSet
EndChar
StartChar: at
Encoding: 64 64 33
Width: 637
Flags: W
Fore
334 400 m 0,0,1
 391 400 391 400 438.5 383.5 c 128,-1,2
 486 367 486 367 520 337 c 128,-1,3
 554 307 554 307 573 264.5 c 128,-1,4
 592 222 592 222 591 171 c 0,5,6
 591 135 591 135 579.5 105.5 c 128,-1,7
 568 76 568 76 550 53 c 128,-1,8
 532 30 532 30 510 14 c 128,-1,9
 488 -2 488 -2 467 -10 c 0,10,11
 447 -15 447 -15 437 -10 c 128,-1,12
 427 -5 427 -5 425 -3 c 1,13,14
 420 5 420 5 416 14 c 128,-1,15
 412 23 412 23 410 31 c 1,16,17
 402 25 402 25 387.5 15 c 128,-1,18
 373 5 373 5 353.5 -3 c 128,-1,19
 334 -11 334 -11 311 -15.5 c 128,-1,20
 288 -20 288 -20 263 -16 c 0,21,22
 228 -11 228 -11 204.5 11 c 128,-1,23
 181 33 181 33 180 68 c 0,24,25
 180 98 180 98 197.5 115 c 128,-1,26
 215 132 215 132 240 141 c 128,-1,27
 265 150 265 150 293.5 154.5 c 128,-1,28
 322 159 322 159 345 164 c 0,29,30
 352 166 352 166 363 169.5 c 128,-1,31
 374 173 374 173 384 178 c 128,-1,32
 394 183 394 183 401 190.5 c 128,-1,33
 408 198 408 198 408 208 c 0,34,35
 408 221 408 221 404.5 230.5 c 128,-1,36
 401 240 401 240 387 250 c 0,37,38
 372 262 372 262 347.5 265 c 128,-1,39
 323 268 323 268 295.5 265 c 128,-1,40
 268 262 268 262 241 254 c 128,-1,41
 214 246 214 246 195 236 c 1,42,-1
 200 273 l 1,43,44
 221 284 221 284 249.5 290 c 128,-1,45
 278 296 278 296 307 296.5 c 128,-1,46
 336 297 336 297 363.5 293 c 128,-1,47
 391 289 391 289 411 279 c 0,48,49
 430 271 430 271 441.5 251 c 128,-1,50
 453 231 453 231 453 207 c 2,51,-1
 453 51 l 2,52,53
 453 45 453 45 453 39.5 c 128,-1,54
 453 34 453 34 455 29 c 1,55,56
 471 36 471 36 486 49 c 128,-1,57
 501 62 501 62 512.5 80 c 128,-1,58
 524 98 524 98 531.5 120 c 128,-1,59
 539 142 539 142 539 167 c 0,60,61
 539 209 539 209 523.5 244 c 128,-1,62
 508 279 508 279 480.5 304 c 128,-1,63
 453 329 453 329 414 342 c 128,-1,64
 375 355 375 355 329 354 c 0,65,66
 276 352 276 352 232.5 337 c 128,-1,67
 189 322 189 322 157.5 293.5 c 128,-1,68
 126 265 126 265 109 223.5 c 128,-1,69
 92 182 92 182 92 127 c 0,70,71
 92 82 92 82 109.5 45.5 c 128,-1,72
 127 9 127 9 155.5 -17 c 128,-1,73
 184 -43 184 -43 221.5 -57 c 128,-1,74
 259 -71 259 -71 300 -71 c 0,75,76
 335 -71 335 -71 362.5 -66.5 c 128,-1,77
 390 -62 390 -62 415 -50 c 1,78,-1
 446 -72 l 1,79,80
 414 -90 414 -90 374 -100 c 128,-1,81
 334 -110 334 -110 298 -111 c 0,82,83
 247 -112 247 -112 200 -95 c 128,-1,84
 153 -78 153 -78 117 -46.5 c 128,-1,85
 81 -15 81 -15 60 29 c 128,-1,86
 39 73 39 73 39 124 c 0,87,88
 39 177 39 177 54.5 226.5 c 128,-1,89
 70 276 70 276 105 314 c 128,-1,90
 140 352 140 352 196 375.5 c 128,-1,91
 252 399 252 399 334 400 c 0,0,1
410 158 m 1,92,93
 380 134 380 134 341 128 c 0,94,95
 323 125 323 125 302 121.5 c 128,-1,96
 281 118 281 118 263.5 111.5 c 128,-1,97
 246 105 246 105 235 95 c 128,-1,98
 224 85 224 85 225 68 c 0,99,100
 226 45 226 45 241.5 31.5 c 128,-1,101
 257 18 257 18 279 17 c 0,102,103
 311 15 311 15 335 24 c 128,-1,104
 359 33 359 33 376 44 c 0,105,106
 395 57 395 57 410 75 c 1,107,-1
 410 158 l 1,92,93
EndSplineSet
EndChar
StartChar: A
Encoding: 65 65 34
Width: 476
Flags: W
Fore
345 145 m 1,0,-1
 125 145 l 1,1,-1
 88 1 l 1,2,-1
 36 1 l 1,3,-1
 127 364 l 2,4,5
 135 388 135 388 143 410 c 128,-1,6
 151 432 151 432 162.5 448.5 c 128,-1,7
 174 465 174 465 192 474.5 c 128,-1,8
 210 484 210 484 237 483 c 0,9,10
 260 482 260 482 276.5 473 c 128,-1,11
 293 464 293 464 304.5 450 c 128,-1,12
 316 436 316 436 323 418.5 c 128,-1,13
 330 401 330 401 335 384 c 0,14,15
 359 287 359 287 383.5 192 c 128,-1,16
 408 97 408 97 434 1 c 1,17,-1
 383 1 l 1,18,-1
 345 145 l 1,0,-1
335 185 m 1,19,-1
 293 347 l 2,20,21
 286 366 286 366 281 381 c 128,-1,22
 276 396 276 396 270 409 c 0,23,24
 263 426 263 426 252.5 434 c 128,-1,25
 242 442 242 442 231.5 441.5 c 128,-1,26
 221 441 221 441 211.5 433 c 128,-1,27
 202 425 202 425 197 411 c 0,28,29
 193 401 193 401 190.5 393.5 c 128,-1,30
 188 386 188 386 186 379 c 128,-1,31
 184 372 184 372 182.5 364.5 c 128,-1,32
 181 357 181 357 178 347 c 2,33,-1
 136 185 l 1,34,-1
 335 185 l 1,19,-1
EndSplineSet
EndChar
StartChar: B
Encoding: 66 66 35
Width: 502
Flags: W
Fore
297 285 m 1,0,1
 315 281 315 281 339 272 c 128,-1,2
 363 263 363 263 384.5 246.5 c 128,-1,3
 406 230 406 230 421 204.5 c 128,-1,4
 436 179 436 179 435 143 c 0,5,6
 435 101 435 101 421 74.5 c 128,-1,7
 407 48 407 48 386 32 c 128,-1,8
 365 16 365 16 340 9 c 128,-1,9
 315 2 315 2 293 1 c 1,10,-1
 295 0 l 1,11,-1
 71 0 l 1,12,-1
 69 475 l 1,13,-1
 287 475 l 2,14,15
 305 473 305 473 322.5 468 c 128,-1,16
 340 463 340 463 353.5 452 c 128,-1,17
 367 441 367 441 375.5 423.5 c 128,-1,18
 384 406 384 406 384 380 c 0,19,20
 384 363 384 363 378 349 c 128,-1,21
 372 335 372 335 362 321 c 0,22,23
 353 308 353 308 333.5 299 c 128,-1,24
 314 290 314 290 297 285 c 1,0,1
278 41 m 2,25,26
 297 41 297 41 316 45 c 128,-1,27
 335 49 335 49 350.5 60.5 c 128,-1,28
 366 72 366 72 376 92.5 c 128,-1,29
 386 113 386 113 386 146 c 0,30,31
 386 175 386 175 373 197 c 128,-1,32
 360 219 360 219 341 233.5 c 128,-1,33
 322 248 322 248 300 255.5 c 128,-1,34
 278 263 278 263 259 265 c 2,35,-1
 210 265 l 1,36,-1
 210 310 l 1,37,-1
 266 311 l 2,38,39
 293 313 293 313 315 331 c 128,-1,40
 337 349 337 349 337 378 c 0,41,42
 337 406 337 406 319.5 420.5 c 128,-1,43
 302 435 302 435 276 437 c 2,44,-1
 120 437 l 1,45,46
 120 391 120 391 120 339.5 c 128,-1,47
 120 288 120 288 120.5 236 c 128,-1,48
 121 184 121 184 121 134 c 128,-1,49
 121 84 121 84 121 41 c 1,50,-1
 278 41 l 2,25,26
EndSplineSet
EndChar
StartChar: C
Encoding: 67 67 36
Width: 446
Flags: W
Fore
70 347 m 2,0,1
 70 367 70 367 77.5 384.5 c 128,-1,2
 85 402 85 402 96 416 c 128,-1,3
 107 430 107 430 119.5 441 c 128,-1,4
 132 452 132 452 143 458 c 0,5,6
 168 473 168 473 206 478.5 c 128,-1,7
 244 484 244 484 282.5 479 c 128,-1,8
 321 474 321 474 354.5 457.5 c 128,-1,9
 388 441 388 441 403 411 c 1,10,-1
 376 382 l 1,11,12
 365 407 365 407 338.5 421 c 128,-1,13
 312 435 312 435 280.5 439 c 128,-1,14
 249 443 249 443 217.5 438 c 128,-1,15
 186 433 186 433 167 421 c 0,16,17
 147 409 147 409 133 390 c 128,-1,18
 119 371 119 371 119 349 c 2,19,-1
 119 129 l 2,20,21
 119 107 119 107 133 88 c 128,-1,22
 147 69 147 69 167 57 c 0,23,24
 186 45 186 45 217.5 40 c 128,-1,25
 249 35 249 35 280.5 39 c 128,-1,26
 312 43 312 43 338.5 56.5 c 128,-1,27
 365 70 365 70 376 96 c 1,28,-1
 403 67 l 1,29,30
 388 37 388 37 354.5 20.5 c 128,-1,31
 321 4 321 4 282.5 -1 c 128,-1,32
 244 -6 244 -6 206 -0.5 c 128,-1,33
 168 5 168 5 143 20 c 0,34,35
 132 26 132 26 119.5 37.5 c 128,-1,36
 107 49 107 49 96 64.5 c 128,-1,37
 85 80 85 80 77.5 100 c 128,-1,38
 70 120 70 120 70 144 c 2,39,-1
 70 347 l 2,0,1
EndSplineSet
EndChar
StartChar: D
Encoding: 68 68 37
Width: 465
Flags: W
Fore
323 428 m 1,0,1
 352 406 352 406 371 379.5 c 128,-1,2
 390 353 390 353 399.5 323 c 128,-1,3
 409 293 409 293 411.5 261 c 128,-1,4
 414 229 414 229 410 196 c 0,5,6
 406 162 406 162 395.5 127 c 128,-1,7
 385 92 385 92 360.5 64 c 128,-1,8
 336 36 336 36 295 18.5 c 128,-1,9
 254 1 254 1 189 3 c 2,10,11
 178.5 3 l 130,-1,12
 168 3 168 3 153 3 c 128,-1,13
 138 3 138 3 121 2.5 c 128,-1,14
 104 2 104 2 90.5 2 c 128,-1,15
 77 2 77 2 70.5 2 c 128,-1,16
 64 2 64 2 69 2 c 1,17,-1
 69 480 l 1,18,-1
 99 480 l 2,19,20
 162 477 162 477 201.5 470.5 c 128,-1,21
 241 464 241 464 265 456.5 c 128,-1,22
 289 449 289 449 301.5 441 c 128,-1,23
 314 433 314 433 323 428 c 1,0,1
335 115 m 0,24,25
 360 171 360 171 361.5 219 c 128,-1,26
 363 267 363 267 351 304.5 c 128,-1,27
 339 342 339 342 318.5 367.5 c 128,-1,28
 298 393 298 393 280 404 c 0,29,30
 257 417 257 417 231 424.5 c 128,-1,31
 205 432 205 432 182 435.5 c 128,-1,32
 159 439 159 439 141 440 c 128,-1,33
 123 441 123 441 116 441 c 1,34,-1
 116 41 l 1,35,36
 152 40 152 40 186 41.5 c 128,-1,37
 220 43 220 43 249.5 51 c 128,-1,38
 279 59 279 59 301 74 c 128,-1,39
 323 89 323 89 335 115 c 0,24,25
EndSplineSet
EndChar
StartChar: E
Encoding: 69 69 38
Width: 453
Flags: W
Fore
270 436 m 1,0,1
 242 436 242 436 214.5 432.5 c 128,-1,2
 187 429 187 429 165.5 415.5 c 128,-1,3
 144 402 144 402 130.5 375 c 128,-1,4
 117 348 117 348 118 302 c 2,5,-1
 118 255 l 1,6,-1
 329 255 l 1,7,-1
 329 215 l 1,8,-1
 118 215 l 1,9,-1
 118 170 l 2,10,11
 117 123 117 123 130.5 96.5 c 128,-1,12
 144 70 144 70 165.5 56.5 c 128,-1,13
 187 43 187 43 214.5 39.5 c 128,-1,14
 242 36 242 36 270 36 c 2,15,-1
 405 36 l 1,16,-1
 405 -3 l 1,17,-1
 271 -3 l 2,18,19
 235 -2 235 -2 198.5 3.5 c 128,-1,20
 162 9 162 9 133.5 27.5 c 128,-1,21
 105 46 105 46 87 80 c 128,-1,22
 69 114 69 114 69 172 c 2,23,-1
 69 300 l 2,24,25
 69 358 69 358 87 392 c 128,-1,26
 105 426 105 426 133.5 444.5 c 128,-1,27
 162 463 162 463 198.5 468.5 c 128,-1,28
 235 474 235 474 271 475 c 0,29,30
 276 475 276 475 295.5 475.5 c 128,-1,31
 315 476 315 476 337.5 476 c 128,-1,32
 360 476 360 476 380 475.5 c 128,-1,33
 400 475 400 475 405 475 c 1,34,-1
 405 436 l 1,35,-1
 270 436 l 1,36,-1
 270 436 l 1,0,1
EndSplineSet
EndChar
StartChar: F
Encoding: 70 70 39
Width: 450
Flags: W
Fore
271 437 m 1,0,1
 243 437 243 437 215.5 433.5 c 128,-1,2
 188 430 188 430 166.5 416.5 c 128,-1,3
 145 403 145 403 131.5 376 c 128,-1,4
 118 349 118 349 119 303 c 2,5,-1
 119 256 l 1,6,-1
 330 256 l 1,7,-1
 330 216 l 1,8,-1
 119 216 l 1,9,-1
 119 1 l 1,10,-1
 70 1 l 1,11,-1
 70 301 l 2,12,13
 70 359 70 359 88 393 c 128,-1,14
 106 427 106 427 134.5 445.5 c 128,-1,15
 163 464 163 464 199.5 469.5 c 128,-1,16
 236 475 236 475 272 476 c 0,17,18
 277 476 277 476 296.5 476.5 c 128,-1,19
 316 477 316 477 338.5 477 c 128,-1,20
 361 477 361 477 381 476.5 c 128,-1,21
 401 476 401 476 406 476 c 1,22,-1
 406 437 l 1,23,-1
 271 437 l 1,24,-1
 271 437 l 1,0,1
EndSplineSet
EndChar
StartChar: G
Encoding: 71 71 40
Width: 476
Flags: W
Fore
259 41 m 0,0,1
 320 40 320 40 347 66.5 c 128,-1,2
 374 93 374 93 376 147 c 0,3,4
 377 176 377 176 368 191.5 c 128,-1,5
 359 207 359 207 344 214 c 128,-1,6
 329 221 329 221 310 222.5 c 128,-1,7
 291 224 291 224 272 226 c 1,8,-1
 272 267 l 1,9,10
 305 271 305 271 333.5 267 c 128,-1,11
 362 263 362 263 383.5 248 c 128,-1,12
 405 233 405 233 416.5 207 c 128,-1,13
 428 181 428 181 426 143 c 0,14,15
 424 100 424 100 410.5 71.5 c 128,-1,16
 397 43 397 43 375 26 c 128,-1,17
 353 9 353 9 323.5 2.5 c 128,-1,18
 294 -4 294 -4 260 -4 c 0,19,20
 224 -3 224 -3 189.5 3 c 128,-1,21
 155 9 155 9 128 28 c 128,-1,22
 101 47 101 47 85 81.5 c 128,-1,23
 69 116 69 116 69 173 c 2,24,-1
 69 357 l 2,25,26
 69 376 69 376 76.5 392 c 128,-1,27
 84 408 84 408 95 420 c 128,-1,28
 106 432 106 432 119 441.5 c 128,-1,29
 132 451 132 451 143 457 c 0,30,31
 168 472 168 472 206.5 477.5 c 128,-1,32
 245 483 245 483 284 478 c 128,-1,33
 323 473 323 473 356.5 456.5 c 128,-1,34
 390 440 390 440 405 410 c 1,35,-1
 378 372 l 1,36,37
 367 397 367 397 341.5 412.5 c 128,-1,38
 316 428 316 428 285.5 433.5 c 128,-1,39
 255 439 255 439 224.5 435.5 c 128,-1,40
 194 432 194 432 174 420 c 256,41,42
 154 408 154 408 139.5 385.5 c 128,-1,43
 125 363 125 363 125 341 c 2,44,-1
 125 169 l 2,45,46
 127 124 127 124 139 99 c 128,-1,47
 151 74 151 74 169.5 61.5 c 128,-1,48
 188 49 188 49 211.5 45.5 c 128,-1,49
 235 42 235 42 259 41 c 0,0,1
EndSplineSet
EndChar
StartChar: H
Encoding: 72 72 41
Width: 501
Flags: W
Fore
381 476 m 1,0,-1
 431 476 l 1,1,-1
 431 1 l 1,2,-1
 381 1 l 1,3,-1
 381 216 l 1,4,-1
 121 216 l 1,5,-1
 121 1 l 1,6,-1
 71 1 l 1,7,-1
 70 476 l 1,8,-1
 121 476 l 1,9,-1
 121 256 l 1,10,-1
 381 256 l 1,11,-1
 381 476 l 1,12,-1
 381 476 l 1,0,-1
EndSplineSet
EndChar
StartChar: I
Encoding: 73 73 42
Width: 191
Flags: W
Fore
68 476 m 1,0,-1
 119 476 l 1,1,-1
 119 1 l 1,2,-1
 68 1 l 1,3,-1
 68 476 l 1,4,-1
 68 476 l 1,0,-1
EndSplineSet
EndChar
StartChar: J
Encoding: 74 74 43
Width: 321
Flags: W
Fore
64 98 m 1,0,1
 68 61 68 61 90 44 c 128,-1,2
 112 27 112 27 137 29 c 128,-1,3
 162 31 162 31 182 53 c 128,-1,4
 202 75 202 75 202 116 c 2,5,-1
 202 475 l 1,6,-1
 251 475 l 1,7,8
 251 437 251 437 251 388 c 128,-1,9
 251 339 251 339 251 288 c 128,-1,10
 251 237 251 237 251 187.5 c 128,-1,11
 251 138 251 138 251 100 c 0,12,13
 251 65 251 65 233.5 41.5 c 128,-1,14
 216 18 216 18 190 6 c 128,-1,15
 164 -6 164 -6 133.5 -6.5 c 128,-1,16
 103 -7 103 -7 77 4.5 c 128,-1,17
 51 16 51 16 33.5 39 c 128,-1,18
 16 62 16 62 16 98 c 1,19,-1
 64 98 l 1,0,1
EndSplineSet
EndChar
StartChar: K
Encoding: 75 75 44
Width: 491
Flags: W
Fore
336 279 m 0,0,1
 317 293 317 293 293 300 c 128,-1,2
 269 307 269 307 244 309 c 1,3,-1
 120 191 l 1,4,-1
 121 3 l 1,5,-1
 68 2 l 1,6,-1
 68 3 l 1,7,-1
 68 488 l 1,8,-1
 121 488 l 1,9,-1
 123 258 l 1,10,-1
 371 488 l 1,11,-1
 429 488 l 1,12,-1
 278 348 l 1,13,14
 307 346 307 346 334 334 c 128,-1,15
 361 322 361 322 380 306 c 0,16,17
 406 283 406 283 412.5 247.5 c 128,-1,18
 419 212 419 212 419 158 c 2,19,-1
 419 2 l 1,20,-1
 369 2 l 1,21,-1
 369 156 l 2,22,23
 370 195 370 195 363 230 c 128,-1,24
 356 265 356 265 336 279 c 0,0,1
EndSplineSet
EndChar
StartChar: L
Encoding: 76 76 45
Width: 423
Flags: W
Fore
376 -1 m 1,0,-1
 242 -1 l 2,1,2
 206 0 206 0 174 6 c 128,-1,3
 142 12 142 12 118.5 30 c 128,-1,4
 95 48 95 48 81.5 82.5 c 128,-1,5
 68 117 68 117 68 174 c 2,6,-1
 68 476 l 1,7,-1
 117 476 l 1,8,-1
 118 173 l 2,9,10
 117 126 117 126 128.5 99.5 c 128,-1,11
 140 73 140 73 159.5 59.5 c 128,-1,12
 179 46 179 46 205 42.5 c 128,-1,13
 231 39 231 39 259 39 c 2,14,-1
 376 39 l 1,15,-1
 376 -1 l 1,0,-1
EndSplineSet
EndChar
StartChar: M
Encoding: 77 77 46
Width: 596
Flags: W
Fore
126 486 m 1,0,-1
 127 486 l 1,1,-1
 126 486 l 1,0,-1
118 476 m 1,2,3
 138 466 138 466 162 448.5 c 128,-1,4
 186 431 186 431 210 408.5 c 128,-1,5
 234 386 234 386 256.5 360.5 c 128,-1,6
 279 335 279 335 296 310 c 1,7,8
 316 340 316 340 339.5 366 c 128,-1,9
 363 392 363 392 387 413.5 c 128,-1,10
 411 435 411 435 433.5 451 c 128,-1,11
 456 467 456 467 474 476 c 1,12,-1
 525 476 l 1,13,-1
 527 0 l 1,14,-1
 479 0 l 1,15,16
 478 16 478 16 478 49.5 c 128,-1,17
 478 83 478 83 477.5 125 c 128,-1,18
 477 167 477 167 477 214 c 128,-1,19
 477 261 477 261 477 303 c 128,-1,20
 477 345 477 345 477 378 c 128,-1,21
 477 411 477 411 477 427 c 1,22,23
 463 423 463 423 436 400 c 128,-1,24
 409 377 409 377 380 348 c 128,-1,25
 351 319 351 319 327 289 c 128,-1,26
 303 259 303 259 295 240 c 1,27,28
 277 272 277 272 254 302 c 128,-1,29
 231 332 231 332 207 357 c 128,-1,30
 183 382 183 382 159.5 400.5 c 128,-1,31
 136 419 136 419 118 427 c 1,32,33
 118 413 118 413 118 380.5 c 128,-1,34
 118 348 118 348 118 305.5 c 128,-1,35
 118 263 118 263 118 216 c 128,-1,36
 118 169 118 169 118.5 126 c 128,-1,37
 119 83 119 83 119 49 c 128,-1,38
 119 15 119 15 120 0 c 1,39,-1
 70 0 l 1,40,-1
 68 476 l 1,41,-1
 118 476 l 1,2,3
EndSplineSet
EndChar
StartChar: N
Encoding: 78 78 47
Width: 518
Flags: W
Fore
401 477 m 1,0,-1
 452 477 l 1,1,-1
 452 89 l 2,2,3
 452 64 452 64 442 46.5 c 128,-1,4
 432 29 432 29 417.5 18 c 128,-1,5
 403 7 403 7 386 1.5 c 128,-1,6
 369 -4 369 -4 356 -4 c 1,7,8
 352 3 352 3 333.5 33 c 128,-1,9
 315 63 315 63 289.5 104 c 128,-1,10
 264 145 264 145 235 192 c 128,-1,11
 206 239 206 239 181 280 c 128,-1,12
 156 321 156 321 138 351 c 128,-1,13
 120 381 120 381 117 388 c 1,14,-1
 116 1 l 1,15,-1
 62 1 l 1,16,-1
 63 477 l 1,17,-1
 112 477 l 1,18,-1
 380 43 l 1,19,20
 394 48 394 48 397.5 64.5 c 128,-1,21
 401 81 401 81 401 111 c 2,22,-1
 401 477 l 1,0,-1
EndSplineSet
EndChar
StartChar: O
Encoding: 79 79 48
Width: 494
Flags: W
Fore
261 485 m 0,0,1
 292 483 292 483 322 474.5 c 128,-1,2
 352 466 352 466 374.5 450.5 c 128,-1,3
 397 435 397 435 411 412.5 c 128,-1,4
 425 390 425 390 425 360 c 2,5,-1
 425 114 l 2,6,7
 425 84 425 84 410 61 c 128,-1,8
 395 38 395 38 369.5 22.5 c 128,-1,9
 344 7 344 7 310.5 -1 c 128,-1,10
 277 -9 277 -9 241 -10 c 0,11,12
 199 -10 199 -10 166.5 1 c 128,-1,13
 134 12 134 12 112.5 29 c 128,-1,14
 91 46 91 46 79.5 68.5 c 128,-1,15
 68 91 68 91 68 114 c 2,16,-1
 68 360 l 2,17,18
 68 393 68 393 85.5 417.5 c 128,-1,19
 103 442 103 442 131 457.5 c 128,-1,20
 159 473 159 473 193.5 480 c 128,-1,21
 228 487 228 487 261 485 c 0,0,1
376 347 m 2,22,23
 376 375 376 375 365 394 c 128,-1,24
 354 413 354 413 335.5 423.5 c 128,-1,25
 317 434 317 434 293.5 438 c 128,-1,26
 270 442 270 442 246 442 c 256,27,28
 222 442 222 442 199 437.5 c 128,-1,29
 176 433 176 433 158 422 c 128,-1,30
 140 411 140 411 128.5 393 c 128,-1,31
 117 375 117 375 117 347 c 2,32,-1
 117 127 l 2,33,34
 117 99 117 99 128 80.5 c 128,-1,35
 139 62 139 62 157.5 51.5 c 128,-1,36
 176 41 176 41 199 36.5 c 128,-1,37
 222 32 222 32 246 32 c 256,38,39
 270 32 270 32 293.5 36.5 c 128,-1,40
 317 41 317 41 335.5 51.5 c 128,-1,41
 354 62 354 62 365 80.5 c 128,-1,42
 376 99 376 99 376 127 c 2,43,-1
 376 347 l 2,22,23
EndSplineSet
EndChar
StartChar: P
Encoding: 80 80 49
Width: 456
Flags: W
Fore
257 474 m 2,0,1
 280 474 280 474 306.5 466.5 c 128,-1,2
 333 459 333 459 355.5 440.5 c 128,-1,3
 378 422 378 422 393.5 392 c 128,-1,4
 409 362 409 362 410 317 c 0,5,6
 410 288 410 288 398.5 263.5 c 128,-1,7
 387 239 387 239 366.5 221 c 128,-1,8
 346 203 346 203 317.5 192.5 c 128,-1,9
 289 182 289 182 255 182 c 2,10,-1
 117 182 l 1,11,12
 116 133 116 133 116 84.5 c 128,-1,13
 116 36 116 36 116 -1 c 1,14,-1
 65 -1 l 1,15,-1
 65 474 l 1,16,-1
 257 474 l 2,0,1
247 221 m 2,17,18
 268 222 268 222 289 226.5 c 128,-1,19
 310 231 310 231 327.5 241 c 128,-1,20
 345 251 345 251 355.5 268.5 c 128,-1,21
 366 286 366 286 366 314 c 0,22,23
 366 350 366 350 354.5 373.5 c 128,-1,24
 343 397 343 397 325 411.5 c 128,-1,25
 307 426 307 426 286 432 c 128,-1,26
 265 438 265 438 246 438 c 2,27,-1
 117 438 l 1,28,-1
 117 220 l 1,29,-1
 247 221 l 2,17,18
EndSplineSet
EndChar
StartChar: Q
Encoding: 81 81 50
Width: 493
Flags: W
Fore
425 -68 m 1,0,1
 408 -68 408 -68 389.5 -65.5 c 128,-1,2
 371 -63 371 -63 352.5 -56.5 c 128,-1,3
 334 -50 334 -50 318 -38 c 128,-1,4
 302 -26 302 -26 290 -7 c 1,5,6
 283 -9 283 -9 273.5 -9.5 c 128,-1,7
 264 -10 264 -10 254 -10 c 2,8,-1
 230 -10 l 2,9,10
 198 -8 198 -8 169 0.5 c 128,-1,11
 140 9 140 9 117.5 24.5 c 128,-1,12
 95 40 95 40 81.5 62.5 c 128,-1,13
 68 85 68 85 68 114 c 2,14,-1
 68 360 l 2,15,16
 68 390 68 390 82.5 412.5 c 128,-1,17
 97 435 97 435 121 451 c 128,-1,18
 145 467 145 467 175.5 475 c 128,-1,19
 206 483 206 483 238 485 c 0,20,21
 255 485 255 485 274 483 c 128,-1,22
 293 481 293 481 311 476.5 c 128,-1,23
 329 472 329 472 344.5 465.5 c 128,-1,24
 360 459 360 459 372 452 c 0,25,26
 396 436 396 436 410.5 413 c 128,-1,27
 425 390 425 390 425 360 c 2,28,-1
 425 114 l 2,29,30
 425 72 425 72 397.5 44 c 128,-1,31
 370 16 370 16 329 2 c 1,32,33
 343 -7 343 -7 359 -15 c 0,34,35
 373 -22 373 -22 389.5 -27.5 c 128,-1,36
 406 -33 406 -33 425 -32 c 1,37,-1
 425 -68 l 1,0,1
243 32 m 0,38,39
 260 32 260 32 283 36 c 128,-1,40
 306 40 306 40 326.5 51 c 128,-1,41
 347 62 347 62 361.5 80.5 c 128,-1,42
 376 99 376 99 376 127 c 2,43,-1
 376 347 l 2,44,45
 376 375 376 375 361 394 c 128,-1,46
 346 413 346 413 325 424 c 128,-1,47
 304 435 304 435 280.5 439 c 128,-1,48
 257 443 257 443 240 442 c 0,49,50
 217 440 217 440 194.5 435.5 c 128,-1,51
 172 431 172 431 155 420.5 c 128,-1,52
 138 410 138 410 127.5 392 c 128,-1,53
 117 374 117 374 117 347 c 2,54,-1
 117 127 l 2,55,56
 117 99 117 99 128 81 c 128,-1,57
 139 63 139 63 156.5 52 c 128,-1,58
 174 41 174 41 196.5 36.5 c 128,-1,59
 219 32 219 32 243 32 c 0,38,39
EndSplineSet
EndChar
StartChar: R
Encoding: 82 82 51
Width: 466
Flags: W
Fore
298 239 m 1,0,1
 318 231 318 231 338 219 c 128,-1,2
 358 207 358 207 374.5 188.5 c 128,-1,3
 391 170 391 170 401.5 144.5 c 128,-1,4
 412 119 412 119 412 84 c 2,5,-1
 414 0 l 1,6,-1
 362 0 l 1,7,-1
 360 82 l 2,8,9
 360 119 360 119 349.5 143.5 c 128,-1,10
 339 168 339 168 321.5 183 c 128,-1,11
 304 198 304 198 282 205 c 128,-1,12
 260 212 260 212 236 215 c 0,13,14
 228 216 228 216 219.5 217 c 128,-1,15
 211 218 211 218 198 218.5 c 128,-1,16
 185 219 185 219 165.5 219 c 128,-1,17
 146 219 146 219 116 219 c 1,18,19
 116 195 116 195 116 164.5 c 128,-1,20
 116 103.5 l 128,-1,21
 116 73 116 73 116.5 45.5 c 128,-1,22
 117 18 117 18 118 0 c 1,23,-1
 68 0 l 1,24,-1
 66 475 l 1,25,-1
 236 475 l 2,26,27
 259 475 259 475 288 470.5 c 128,-1,28
 317 466 317 466 343 452.5 c 128,-1,29
 369 439 369 439 387 413 c 128,-1,30
 405 387 405 387 406 344 c 0,31,32
 406 323 406 323 396.5 306 c 128,-1,33
 387 289 387 289 372 276 c 128,-1,34
 357 263 357 263 337.5 254 c 128,-1,35
 318 245 318 245 298 239 c 1,0,1
236 257 m 2,36,37
 257 259 257 259 278 261.5 c 128,-1,38
 299 264 299 264 316 272 c 128,-1,39
 333 280 333 280 344 296 c 128,-1,40
 355 312 355 312 355 340 c 0,41,42
 355 376 355 376 343.5 395.5 c 128,-1,43
 332 415 332 415 314.5 424.5 c 128,-1,44
 297 434 297 434 276 436.5 c 128,-1,45
 255 439 255 439 236 439 c 2,46,-1
 117 439 l 1,47,48
 117 414 117 414 117 395 c 128,-1,49
 117 376 117 376 117 356.5 c 128,-1,50
 117 337 117 337 116.5 313.5 c 128,-1,51
 116 290 116 290 116 257 c 1,52,-1
 236 257 l 2,36,37
EndSplineSet
EndChar
StartChar: S
Encoding: 83 83 52
Width: 476
Flags: W
Fore
368 130 m 0,0,1
 366 163 366 163 342 179 c 128,-1,2
 318 195 318 195 283.5 203.5 c 128,-1,3
 249 212 249 212 209.5 218 c 128,-1,4
 170 224 170 224 136.5 237.5 c 128,-1,5
 103 251 103 251 81 276.5 c 128,-1,6
 59 302 59 302 60 350 c 0,7,8
 60 384 60 384 77 410 c 128,-1,9
 94 436 94 436 119.5 453 c 128,-1,10
 145 470 145 470 177 478.5 c 128,-1,11
 209 487 209 487 239 487 c 0,12,13
 264 487 264 487 291 481 c 128,-1,14
 318 475 318 475 341.5 463 c 128,-1,15
 365 451 365 451 382.5 432 c 128,-1,16
 400 413 400 413 406 387 c 1,17,-1
 357 387 l 1,18,19
 345 408 345 408 330.5 419.5 c 128,-1,20
 316 431 316 431 300.5 437 c 128,-1,21
 285 443 285 443 269 445 c 128,-1,22
 253 447 253 447 238 447 c 0,23,24
 219 447 219 447 197.5 442.5 c 128,-1,25
 176 438 176 438 158 427 c 128,-1,26
 140 416 140 416 128 397 c 128,-1,27
 116 378 116 378 118 350 c 0,28,29
 120 312 120 312 143 294.5 c 128,-1,30
 166 277 166 277 199.5 269 c 128,-1,31
 233 261 233 261 272 256.5 c 128,-1,32
 311 252 311 252 344.5 240.5 c 128,-1,33
 378 229 378 229 401 204 c 128,-1,34
 424 179 424 179 426 130 c 0,35,36
 427 93 427 93 410 66.5 c 128,-1,37
 393 40 393 40 365 22.5 c 128,-1,38
 337 5 337 5 303 -3 c 128,-1,39
 269 -11 269 -11 237 -11 c 0,40,41
 210 -11 210 -11 181.5 -6.5 c 128,-1,42
 153 -2 153 -2 126.5 10 c 128,-1,43
 100 22 100 22 78.5 42.5 c 128,-1,44
 57 63 57 63 45 95 c 1,45,-1
 96 95 l 1,46,47
 105 74 105 74 125 61 c 128,-1,48
 145 48 145 48 167 40.5 c 128,-1,49
 189 33 189 33 210 30.5 c 128,-1,50
 231 28 231 28 242 30 c 0,51,52
 267 34 267 34 290.5 40.5 c 128,-1,53
 314 47 314 47 331 58.5 c 128,-1,54
 348 70 348 70 358 87.5 c 128,-1,55
 368 105 368 105 368 130 c 0,0,1
EndSplineSet
EndChar
StartChar: T
Encoding: 84 84 53
Width: 446
Flags: W
Fore
398 475 m 1,0,-1
 398 435 l 1,1,-1
 245 435 l 1,2,-1
 245 -1 l 1,3,-1
 194 -1 l 1,4,-1
 194 435 l 1,5,-1
 45 435 l 1,6,-1
 45 475 l 1,7,-1
 398 475 l 1,8,-1
 398 475 l 1,0,-1
EndSplineSet
EndChar
StartChar: U
Encoding: 85 85 54
Width: 511
Flags: W
Fore
443 475 m 1,0,-1
 443 115 l 2,1,2
 443 73 443 73 415 45.5 c 128,-1,3
 387 18 387 18 345.5 4 c 128,-1,4
 304 -10 304 -10 255.5 -10 c 128,-1,5
 207 -10 207 -10 165.5 4 c 128,-1,6
 124 18 124 18 96 45.5 c 128,-1,7
 68 73 68 73 68 115 c 2,8,-1
 68 476 l 1,9,-1
 117 476 l 1,10,-1
 117 128 l 2,11,12
 117 101 117 101 128 82.5 c 128,-1,13
 139 64 139 64 157.5 52.5 c 128,-1,14
 176 41 176 41 200 36 c 128,-1,15
 224 31 224 31 249 30 c 0,16,17
 276 29 276 29 302 33.5 c 128,-1,18
 328 38 328 38 348.5 49 c 128,-1,19
 369 60 369 60 381.5 79.5 c 128,-1,20
 394 99 394 99 394 128 c 2,21,-1
 394 475 l 1,22,-1
 443 475 l 1,0,-1
EndSplineSet
EndChar
StartChar: V
Encoding: 86 86 55
Width: 483
Flags: W
Fore
331 88 m 0,0,1
 326 71 326 71 318.5 53.5 c 128,-1,2
 311 36 311 36 300 21.5 c 128,-1,3
 289 7 289 7 273 -2 c 128,-1,4
 257 -11 257 -11 235 -9 c 1,5,6
 201 -14 201 -14 174 11.5 c 128,-1,7
 147 37 147 37 137 76 c 2,8,-1
 39 475 l 1,9,-1
 87 475 l 1,10,-1
 177 129 l 2,11,12
 182 109 182 109 187 95 c 128,-1,13
 192 81 192 81 199 62 c 0,14,15
 205 48 205 48 214.5 39.5 c 128,-1,16
 224 31 224 31 234.5 30 c 128,-1,17
 245 29 245 29 255.5 36.5 c 128,-1,18
 266 44 266 44 273 61 c 2,19,-1
 294 130 l 1,20,-1
 389 475 l 1,21,-1
 441 475 l 1,22,23
 428 429 428 429 414.5 378.5 c 128,-1,24
 401 328 401 328 386.5 277 c 128,-1,25
 372 226 372 226 358 178 c 128,-1,26
 344 130 344 130 331 88 c 0,0,1
EndSplineSet
EndChar
StartChar: W
Encoding: 87 87 56
Width: 599
Flags: W
Fore
121 0 m 1,0,-1
 39 475 l 1,1,-1
 86 475 l 1,2,-1
 165 52 l 1,3,4
 198 86 198 86 219.5 130 c 128,-1,5
 241 174 241 174 254.5 219.5 c 128,-1,6
 268 265 268 265 277.5 309 c 128,-1,7
 287 353 287 353 296 387 c 1,8,9
 308 354 308 354 319 312 c 128,-1,10
 330 270 330 270 343.5 225.5 c 128,-1,11
 357 181 357 181 376 136.5 c 128,-1,12
 395 92 395 92 424 53 c 1,13,14
 433 99 433 99 444.5 153.5 c 128,-1,15
 456 208 456 208 468 264 c 128,-1,16
 480 320 480 320 491 374.5 c 128,-1,17
 502 429 502 429 510 475 c 1,18,-1
 558 475 l 1,19,-1
 473 0 l 1,20,-1
 427 0 l 1,21,22
 406 8 406 8 385.5 33.5 c 128,-1,23
 365 59 365 59 347.5 94 c 128,-1,24
 330 129 330 129 317 170 c 128,-1,25
 304 211 304 211 298 250 c 1,26,27
 295 204 295 204 281.5 163 c 128,-1,28
 268 122 268 122 249 89 c 128,-1,29
 230 56 230 56 208.5 33 c 128,-1,30
 187 10 187 10 168 0 c 1,31,-1
 121 0 l 1,0,-1
EndSplineSet
EndChar
StartChar: X
Encoding: 88 88 57
Width: 480
Flags: W
Fore
91 478 m 1,0,-1
 248 275 l 1,1,-1
 404 478 l 1,2,-1
 460 478 l 1,3,-1
 275 239 l 1,4,-1
 460 1 l 1,5,-1
 405 1 l 1,6,-1
 248 203 l 1,7,-1
 91 1 l 1,8,-1
 36 1 l 1,9,-1
 220 239 l 1,10,-1
 36 478 l 1,11,-1
 91 478 l 1,12,-1
 91 478 l 1,0,-1
EndSplineSet
EndChar
StartChar: Y
Encoding: 89 89 58
Width: 471
Flags: W
Fore
207 193 m 1,0,1
 196 198 196 198 186 212 c 128,-1,2
 176 226 176 226 173 231 c 0,3,4
 157 256 157 256 139.5 287 c 128,-1,5
 122 318 122 318 104 351 c 128,-1,6
 86 384 86 384 68.5 416 c 128,-1,7
 51 448 51 448 36 475 c 1,8,-1
 86 475 l 1,9,10
 115 420 115 420 149 362.5 c 128,-1,11
 183 305 183 305 212 254 c 0,12,13
 224 232 224 232 231.5 231 c 128,-1,14
 239 230 239 230 252 251 c 0,15,16
 284 303 284 303 318.5 361.5 c 128,-1,17
 353 420 353 420 384 475 c 1,18,-1
 431 475 l 1,19,20
 415 446 415 446 397.5 414 c 128,-1,21
 380 382 380 382 362 350 c 128,-1,22
 344 318 344 318 326 286.5 c 128,-1,23
 308 255 308 255 292 228 c 0,24,25
 287 220 287 220 278.5 209.5 c 128,-1,26
 270 199 270 199 260 194 c 1,27,-1
 260 -1 l 1,28,-1
 207 -1 l 1,29,-1
 207 193 l 1,0,1
EndSplineSet
EndChar
StartChar: Z
Encoding: 90 90 59
Width: 514
Flags: W
Fore
454 51 m 1,0,-1
 454 1 l 1,1,-1
 154 1 l 2,2,3
 129 1 129 1 111 9.5 c 128,-1,4
 93 18 93 18 82 30.5 c 128,-1,5
 71 43 71 43 65.5 58.5 c 128,-1,6
 60 74 60 74 60 88 c 1,7,8
 65 93 65 93 89 118.5 c 128,-1,9
 113 144 113 144 145.5 180 c 128,-1,10
 178 216 178 216 215.5 256.5 c 128,-1,11
 253 297 253 297 285 333 c 128,-1,12
 317 369 317 369 340 394.5 c 128,-1,13
 363 420 363 420 368 426 c 1,14,-1
 65 426 l 1,15,-1
 65 477 l 1,16,-1
 454 477 l 1,17,-1
 454 430 l 1,18,-1
 133 81 l 1,19,20
 137 66 137 66 146 58.5 c 128,-1,21
 155 51 155 51 185 51 c 2,22,-1
 454 51 l 1,0,-1
EndSplineSet
EndChar
StartChar: bracketleft
Encoding: 91 91 60
Width: 220
Flags: W
Fore
62 -80 m 1,0,-1
 62 493 l 1,1,-1
 217 493 l 1,2,-1
 217 463 l 1,3,-1
 117 463 l 1,4,-1
 117 -49 l 1,5,-1
 217 -49 l 1,6,-1
 217 -80 l 1,7,-1
 62 -80 l 1,0,-1
EndSplineSet
EndChar
StartChar: backslash
Encoding: 92 92 61
Width: 316
Flags: W
Fore
0 492 m 1,0,-1
 60 492 l 1,1,-1
 315 -30 l 1,2,-1
 254 -30 l 1,3,-1
 0 492 l 1,4,-1
 0 492 l 1,0,-1
EndSplineSet
EndChar
StartChar: bracketright
Encoding: 93 93 62
Width: 220
Flags: W
Fore
1 -80 m 1,0,-1
 1 -49 l 1,1,-1
 98 -49 l 1,2,-1
 98 463 l 1,3,-1
 -1 463 l 1,4,-1
 -1 493 l 1,5,-1
 154 493 l 1,6,-1
 154 -80 l 1,7,-1
 1 -80 l 1,0,-1
EndSplineSet
EndChar
StartChar: asciicircum
Encoding: 94 94 63
Width: 484
Flags: W
Fore
51 139 m 1,0,1
 79 170 79 170 109 213.5 c 128,-1,2
 139 257 139 257 165.5 305 c 128,-1,3
 192 353 192 353 212 401.5 c 128,-1,4
 232 450 232 450 240 492 c 1,5,6
 249 450 249 450 269 403 c 128,-1,7
 289 356 289 356 315 308.5 c 128,-1,8
 341 261 341 261 371 217 c 128,-1,9
 401 173 401 173 430 139 c 1,10,-1
 360 139 l 1,11,12
 318 194 318 194 286.5 257 c 128,-1,13
 255 320 255 320 242 389 c 1,14,15
 226 321 226 321 193.5 257 c 128,-1,16
 161 193 161 193 120 139 c 1,17,-1
 51 139 l 1,0,1
EndSplineSet
EndChar
StartChar: underscore
Encoding: 95 95 64
Width: 360
Flags: W
Fore
1 -199 m 1,0,-1
 1 -147 l 1,1,-1
 358 -147 l 1,2,-1
 358 -199 l 1,3,-1
 1 -199 l 1,0,-1
EndSplineSet
EndChar
StartChar: grave
Encoding: 96 96 65
Width: 205
Flags: W
Fore
115 386 m 1,0,-1
 31 490 l 1,1,-1
 99 490 l 1,2,-1
 163 386 l 1,3,-1
 115 386 l 1,0,-1
EndSplineSet
EndChar
StartChar: a
Encoding: 97 97 66
Width: 436
Flags: W
Fore
314 195 m 1,0,1
 296 181 296 181 278.5 173 c 128,-1,2
 261 165 261 165 238 161 c 0,3,4
 217 157 217 157 192.5 153.5 c 128,-1,5
 168 150 168 150 148 142.5 c 128,-1,6
 128 135 128 135 114.5 122 c 128,-1,7
 101 109 101 109 101 88 c 0,8,9
 101 62 101 62 115 46 c 128,-1,10
 129 30 129 30 155 29 c 0,11,12
 194 27 194 27 224 36.5 c 128,-1,13
 254 46 254 46 274 57 c 0,14,15
 298 70 298 70 314 88 c 1,16,-1
 314 195 l 1,0,1
349 -7 m 1,17,18
 343 -4 343 -4 337.5 2 c 128,-1,19
 332 8 332 8 327 15.5 c 128,-1,20
 322 23 322 23 318.5 31 c 128,-1,21
 315 39 315 39 314 46 c 1,22,23
 305 39 305 39 289 28.5 c 128,-1,24
 273 18 273 18 251 9 c 128,-1,25
 229 0 229 0 202.5 -4.5 c 128,-1,26
 176 -9 176 -9 148 -3 c 0,27,28
 111 4 111 4 80.5 26 c 128,-1,29
 50 48 50 48 49 88 c 0,30,31
 49 122 49 122 69 140 c 128,-1,32
 89 158 89 158 118 167.5 c 128,-1,33
 147 177 147 177 179.5 181 c 128,-1,34
 212 185 212 185 238 191 c 0,35,36
 247 193 247 193 259.5 198 c 128,-1,37
 272 203 272 203 284 210 c 128,-1,38
 296 217 296 217 304 226 c 128,-1,39
 312 235 312 235 312 246 c 0,40,41
 312 272 312 272 280 295 c 0,42,43
 263 308 263 308 235.5 312.5 c 128,-1,44
 208 317 208 317 177 314.5 c 128,-1,45
 146 312 146 312 116 303.5 c 128,-1,46
 86 295 86 295 64 284 c 1,47,-1
 70 323 l 1,48,49
 94 335 94 335 127 341.5 c 128,-1,50
 160 348 160 348 194.5 348.5 c 128,-1,51
 229 349 229 349 260.5 343.5 c 128,-1,52
 292 338 292 338 315 327 c 0,53,54
 337 317 337 317 350.5 294.5 c 128,-1,55
 364 272 364 272 364 245 c 2,56,-1
 364 69 l 2,57,58
 364 54 364 54 367 40 c 128,-1,59
 370 26 370 26 387 13 c 1,60,61
 381 7 381 7 367.5 2 c 128,-1,62
 354 -3 354 -3 349 -7 c 1,17,18
EndSplineSet
Substitution: 0 65534 'L026' uni0E38
Substitution: 0 65534 'L026' uni0E38
EndChar
StartChar: b
Encoding: 98 98 67
Width: 453
Flags: W
Fore
117 86 m 1,0,-1
 117 84 l 1,1,2
 140 63 140 63 168.5 47 c 128,-1,3
 197 31 197 31 240 33 c 0,4,5
 291 35 291 35 318 69 c 128,-1,6
 345 103 345 103 350 154 c 0,7,8
 353 182 353 182 347.5 209.5 c 128,-1,9
 342 237 342 237 328 259 c 128,-1,10
 314 281 314 281 290 294.5 c 128,-1,11
 266 308 266 308 232 309 c 0,12,13
 221 309 221 309 205.5 305.5 c 128,-1,14
 190 302 190 302 173.5 294 c 128,-1,15
 157 286 157 286 142 274 c 128,-1,16
 127 262 127 262 117 246 c 1,17,-1
 117 86 l 1,0,-1
67 476 m 1,18,-1
 117 476 l 1,19,-1
 117 300 l 1,20,21
 127 313 127 313 143 322 c 128,-1,22
 159 331 159 331 176.5 336.5 c 128,-1,23
 194 342 194 342 209 344.5 c 128,-1,24
 224 347 224 347 232 347 c 0,25,26
 277 349 277 349 311 332 c 128,-1,27
 345 315 345 315 366.5 286.5 c 128,-1,28
 388 258 388 258 397.5 222.5 c 128,-1,29
 407 187 407 187 402 151 c 0,30,31
 398 121 398 121 385 93.5 c 128,-1,32
 372 66 372 66 351.5 44.5 c 128,-1,33
 331 23 331 23 304.5 10.5 c 128,-1,34
 278 -2 278 -2 247 -2 c 0,35,36
 218 -2 218 -2 198 1.5 c 128,-1,37
 178 5 178 5 164 11 c 128,-1,38
 150 17 150 17 139 24.5 c 128,-1,39
 128 32 128 32 117 40 c 1,40,-1
 111 43 l 1,41,42
 105 28 105 28 93.5 15.5 c 128,-1,43
 82 3 82 3 68 -2 c 1,44,45
 60 4 60 4 51 11 c 128,-1,46
 42 18 42 18 32 29 c 1,47,48
 52 44 52 44 58.5 58.5 c 128,-1,49
 65 73 65 73 67 90 c 2,50,-1
 67 476 l 1,18,-1
EndSplineSet
Substitution: 0 65534 'L026' uni0E39
Substitution: 0 65534 'L026' uni0E39
EndChar
StartChar: c
Encoding: 99 99 68
Width: 420
Flags: W
Fore
68 245 m 2,0,1
 68 271 68 271 84.5 290.5 c 128,-1,2
 101 310 101 310 124 323 c 0,3,4
 149 338 149 338 186 343.5 c 128,-1,5
 223 349 223 349 261 344 c 128,-1,6
 299 339 299 339 331.5 322.5 c 128,-1,7
 364 306 364 306 379 276 c 1,8,-1
 345 254 l 1,9,10
 334 279 334 279 311.5 293 c 128,-1,11
 289 307 289 307 262 310.5 c 128,-1,12
 235 314 235 314 208 309.5 c 128,-1,13
 181 305 181 305 162 293 c 0,14,15
 142 281 142 281 131 267.5 c 128,-1,16
 120 254 120 254 120 232 c 2,17,-1
 120 109 l 2,18,19
 120 87 120 87 133.5 70.5 c 128,-1,20
 147 54 147 54 167 42 c 0,21,22
 186 30 186 30 212 26 c 128,-1,23
 238 22 238 22 263 27 c 128,-1,24
 288 32 288 32 309 46.5 c 128,-1,25
 330 61 330 61 341 87 c 1,26,-1
 379 65 l 1,27,28
 364 35 364 35 331.5 18.5 c 128,-1,29
 299 2 299 2 261 -3 c 128,-1,30
 223 -8 223 -8 186 -2.5 c 128,-1,31
 149 3 149 3 124 18 c 0,32,33
 101 31 101 31 84.5 50.5 c 128,-1,34
 68 70 68 70 68 96 c 2,35,-1
 68 245 l 2,0,1
EndSplineSet
Substitution: 0 65534 'L026' uni0E3A
Substitution: 0 65534 'L026' uni0E3A
EndChar
StartChar: d
Encoding: 100 100 69
Width: 458
Flags: W
Fore
337 245 m 1,0,1
 317 267 317 267 301 280 c 128,-1,2
 285 293 285 293 271 299.5 c 128,-1,3
 257 306 257 306 245 307 c 128,-1,4
 233 308 233 308 221 308 c 0,5,6
 187 307 187 307 163.5 293.5 c 128,-1,7
 140 280 140 280 126 258 c 128,-1,8
 112 236 112 236 106.5 208.5 c 128,-1,9
 101 181 101 181 104 153 c 0,10,11
 109 102 109 102 136 68 c 128,-1,12
 163 34 163 34 214 32 c 0,13,14
 256 30 256 30 285 46 c 128,-1,15
 314 62 314 62 337 83 c 1,16,-1
 337 85 l 2,17,18
 337 119 337 119 337 143 c 128,-1,19
 337 167 337 167 337 184.5 c 128,-1,20
 337 202 337 202 337 216 c 128,-1,21
 337 230 337 230 337 245 c 1,0,1
387 89 m 2,22,23
 388 72 388 72 394.5 57.5 c 128,-1,24
 401 43 401 43 421 28 c 1,25,26
 412 17 412 17 403 10 c 128,-1,27
 394 3 394 3 386 -3 c 1,28,29
 371 2 371 2 360 14.5 c 128,-1,30
 349 27 349 27 342 42 c 1,31,32
 308 19 308 19 278 8 c 128,-1,33
 248 -3 248 -3 207 -3 c 0,34,35
 176 -3 176 -3 149 9.5 c 128,-1,36
 122 22 122 22 101.5 43 c 128,-1,37
 81 64 81 64 67.5 92 c 128,-1,38
 54 120 54 120 51 150 c 0,39,40
 47 184 47 184 57 219 c 128,-1,41
 67 254 67 254 88.5 282.5 c 128,-1,42
 110 311 110 311 144 329 c 128,-1,43
 178 347 178 347 222 346 c 0,44,45
 229 346 229 346 244.5 343.5 c 128,-1,46
 260 341 260 341 277 336 c 128,-1,47
 294 331 294 331 310.5 321.5 c 128,-1,48
 327 312 327 312 337 299 c 1,49,-1
 337 475 l 1,50,-1
 387 475 l 1,51,-1
 387 89 l 2,22,23
EndSplineSet
EndChar
StartChar: e
Encoding: 101 101 70
Width: 433
Flags: W
Fore
122 19 m 2,0,1
 114 22 114 22 104 30 c 128,-1,2
 94 38 94 38 85.5 51 c 128,-1,3
 77 64 77 64 71.5 83 c 128,-1,4
 66 102 66 102 66 128 c 2,5,-1
 66 246 l 2,6,7
 66 272 66 272 82.5 291.5 c 128,-1,8
 99 311 99 311 122 324 c 0,9,10
 141 335 141 335 166 341 c 128,-1,11
 191 347 191 347 218 347.5 c 128,-1,12
 245 348 245 348 271.5 342.5 c 128,-1,13
 298 337 298 337 320 324 c 256,14,15
 342 311 342 311 357 287.5 c 128,-1,16
 372 264 372 264 374 238 c 0,17,18
 376 209 376 209 368.5 191.5 c 128,-1,19
 361 174 361 174 343 165 c 128,-1,20
 325 156 325 156 295.5 153 c 128,-1,21
 266 150 266 150 223 150 c 2,22,-1
 115 150 l 1,23,-1
 115 114 l 2,24,25
 115 100 115 100 119.5 90 c 128,-1,26
 124 80 124 80 131 72.5 c 128,-1,27
 138 65 138 65 146.5 59.5 c 128,-1,28
 155 54 155 54 163 49 c 0,29,30
 181 39 181 39 205.5 34.5 c 128,-1,31
 230 30 230 30 255.5 33.5 c 128,-1,32
 281 37 281 37 304.5 50 c 128,-1,33
 328 63 328 63 343 88 c 1,34,-1
 373 66 l 1,35,36
 358 36 358 36 326 19.5 c 128,-1,37
 294 3 294 3 257 -2 c 128,-1,38
 220 -7 220 -7 183.5 -1.5 c 128,-1,39
 147 4 147 4 122 19 c 2,0,1
297 290 m 0,40,41
 262 313 262 313 226.5 312 c 128,-1,42
 191 311 191 311 163 294 c 0,43,44
 143 282 143 282 129 266.5 c 128,-1,45
 115 251 115 251 115 229 c 2,46,-1
 115 188 l 1,47,-1
 223 188 l 2,48,49
 254 188 254 188 274.5 188 c 128,-1,50
 295 188 295 188 308 191 c 128,-1,51
 321 194 321 194 326 201.5 c 128,-1,52
 331 209 331 209 331 224 c 0,53,54
 330 243 330 243 321 261.5 c 128,-1,55
 312 280 312 280 297 290 c 0,40,41
EndSplineSet
EndChar
StartChar: f
Encoding: 102 102 71
Width: 281
Flags: W
Fore
212 302 m 1,0,-1
 118 302 l 1,1,-1
 118 93 l 1,2,-1
 118 15 l 1,3,4
 114 -6 114 -6 101 -23.5 c 128,-1,5
 88 -41 88 -41 68 -49 c 1,6,7
 60 -43 60 -43 51.5 -36 c 128,-1,8
 43 -29 43 -29 33 -18 c 1,9,10
 58 1 58 1 63 20 c 128,-1,11
 68 39 68 39 68 63 c 2,12,-1
 68 334 l 2,13,14
 68 414 68 414 103 444.5 c 128,-1,15
 138 475 138 475 213 474 c 2,16,-1
 230 474 l 1,17,-1
 230 438 l 1,18,-1
 211 438 l 2,19,20
 180 438 180 438 161 432 c 128,-1,21
 142 426 142 426 132.5 414 c 128,-1,22
 123 402 123 402 120 383.5 c 128,-1,23
 117 365 117 365 118 339 c 1,24,-1
 212 339 l 1,25,-1
 212 302 l 1,0,-1
EndSplineSet
EndChar
StartChar: g
Encoding: 103 103 72
Width: 448
Flags: W
Fore
213 37 m 0,0,1
 251 36 251 36 279.5 53.5 c 128,-1,2
 308 71 308 71 328 100 c 1,3,-1
 328 263 l 1,4,5
 305 284 305 284 276.5 299.5 c 128,-1,6
 248 315 248 315 205 313 c 0,7,8
 154 311 154 311 127 277.5 c 128,-1,9
 100 244 100 244 95 193 c 0,10,11
 92 164 92 164 97.5 137 c 128,-1,12
 103 110 103 110 117 88 c 128,-1,13
 131 66 131 66 154.5 52 c 128,-1,14
 178 38 178 38 213 37 c 0,0,1
238 -110 m 2,15,16
 268 -110 268 -110 286.5 -105 c 128,-1,17
 305 -100 305 -100 314.5 -88.5 c 128,-1,18
 324 -77 324 -77 326.5 -59 c 128,-1,19
 329 -41 329 -41 328 -15 c 2,20,-1
 328 46 l 1,21,22
 318 33 318 33 302 24 c 128,-1,23
 286 15 286 15 269 10 c 128,-1,24
 252 5 252 5 237 2.5 c 128,-1,25
 222 0 222 0 215 0 c 0,26,27
 171 0 171 0 137.5 18 c 128,-1,28
 104 36 104 36 82 64 c 128,-1,29
 60 92 60 92 50 127 c 128,-1,30
 40 162 40 162 43 196 c 0,31,32
 46 226 46 226 58 254.5 c 128,-1,33
 70 283 70 283 89.5 304.5 c 128,-1,34
 109 326 109 326 136.5 338.5 c 128,-1,35
 164 351 164 351 198 349 c 0,36,37
 238 347 238 347 270 337.5 c 128,-1,38
 302 328 302 328 334 303 c 1,39,40
 347 336 347 336 377 349 c 1,41,42
 385 343 385 343 394 335.5 c 128,-1,43
 403 328 403 328 413 318 c 1,44,45
 392 303 392 303 385.5 288.5 c 128,-1,46
 379 274 379 274 378 257 c 2,47,-1
 378 -14 l 2,48,49
 378 -91 378 -91 343.5 -120 c 128,-1,50
 309 -149 309 -149 237 -149 c 2,51,-1
 208 -149 l 1,52,-1
 208 -110 l 1,53,-1
 238 -110 l 2,15,16
EndSplineSet
EndChar
StartChar: h
Encoding: 104 104 73
Width: 430
Flags: W
Fore
118 407 m 1,0,1
 118 369 118 369 118.5 330.5 c 128,-1,2
 119 292 119 292 119 254 c 1,3,4
 134 307 134 307 165.5 326.5 c 128,-1,5
 197 346 197 346 253 346 c 0,6,7
 280 346 280 346 300.5 335 c 128,-1,8
 321 324 321 324 334 305.5 c 128,-1,9
 347 287 347 287 353.5 261.5 c 128,-1,10
 360 236 360 236 360 207 c 2,11,-1
 362 0 l 1,12,-1
 314 0 l 1,13,-1
 312 181 l 2,14,15
 312 206 312 206 308.5 228.5 c 128,-1,16
 305 251 305 251 296 268 c 128,-1,17
 287 285 287 285 270.5 294.5 c 128,-1,18
 254 304 254 304 228 304 c 0,19,20
 198 304 198 304 177.5 286.5 c 128,-1,21
 157 269 157 269 143.5 242.5 c 128,-1,22
 130 216 130 216 124.5 183.5 c 128,-1,23
 119 151 119 151 119 121 c 2,24,-1
 121 0 l 1,25,-1
 71 0 l 1,26,-1
 68 363 l 2,27,28
 68 387 68 387 63.5 405.5 c 128,-1,29
 59 424 59 424 33 444 c 1,30,-1
 68 475 l 1,31,32
 70 476 70 476 73 473 c 2,33,34
 90 465 90 465 102.5 446 c 128,-1,35
 115 427 115 427 118 407 c 1,0,1
EndSplineSet
EndChar
StartChar: i
Encoding: 105 105 74
Width: 190
Flags: W
Fore
68 328 m 1,0,-1
 118 328 l 1,1,-1
 118 92 l 2,2,3
 118 69 118 69 123 51 c 128,-1,4
 128 33 128 33 153 14 c 1,5,-1
 118 -17 l 1,6,7
 116 -18 116 -18 115 -16.5 c 128,-1,8
 114 -15 114 -15 113 -15 c 1,9,10
 96 -6 96 -6 83.5 13 c 128,-1,11
 71 32 71 32 68 52 c 1,12,-1
 68 328 l 1,0,-1
91 475 m 1,13,14
 107 477 107 477 117.5 463 c 128,-1,15
 128 449 128 449 128 428 c 0,16,17
 128 408 128 408 117.5 393.5 c 128,-1,18
 107 379 107 379 91 379 c 0,19,20
 73 379 73 379 61 393.5 c 128,-1,21
 49 408 49 408 50 428 c 0,22,23
 50 449 50 449 62 463 c 128,-1,24
 74 477 74 477 91 475 c 1,13,14
EndSplineSet
EndChar
StartChar: j
Encoding: 106 106 75
Width: 241
Flags: W
Fore
119 329 m 1,0,-1
 169 329 l 1,1,-1
 169 -16 l 2,2,3
 169 -93 169 -93 135 -122 c 128,-1,4
 101 -151 101 -151 31 -151 c 2,5,-1
 2 -151 l 1,6,-1
 2 -112 l 1,7,-1
 30 -112 l 2,8,9
 60 -112 60 -112 78.5 -107 c 128,-1,10
 97 -102 97 -102 106.5 -90.5 c 128,-1,11
 116 -79 116 -79 118.5 -61 c 128,-1,12
 121 -43 121 -43 120 -17 c 2,13,-1
 119 329 l 1,0,-1
143 475 m 1,14,15
 159 477 159 477 169.5 463 c 128,-1,16
 180 449 180 449 180 428 c 0,17,18
 180 408 180 408 169.5 393.5 c 128,-1,19
 159 379 159 379 143 379 c 0,20,21
 125 379 125 379 113 393.5 c 128,-1,22
 101 408 101 408 102 428 c 0,23,24
 102 449 102 449 114 463 c 128,-1,25
 126 477 126 477 143 475 c 1,14,15
EndSplineSet
EndChar
StartChar: k
Encoding: 107 107 76
Width: 406
Flags: W
Fore
338 338 m 1,0,-1
 232 234 l 1,1,2
 253 231 253 231 272.5 223.5 c 128,-1,3
 292 216 292 216 307 201.5 c 128,-1,4
 322 187 322 187 331 164.5 c 128,-1,5
 340 142 340 142 340 109 c 2,6,-1
 340 1 l 1,7,-1
 290 1 l 1,8,-1
 290 108 l 2,9,10
 290 135 290 135 282.5 152 c 128,-1,11
 275 169 275 169 262 179.5 c 128,-1,12
 249 190 249 190 232.5 194.5 c 128,-1,13
 216 199 216 199 199 201 c 1,14,-1
 118 121 l 1,15,-1
 120 0 l 1,16,-1
 70 0 l 1,17,-1
 68 367 l 2,18,19
 68 390 68 390 63 408 c 128,-1,20
 58 426 58 426 33 445 c 1,21,-1
 68 476 l 1,22,23
 88 468 88 468 101 448 c 128,-1,24
 114 428 114 428 118 408 c 1,25,-1
 118 185 l 1,26,-1
 276 338 l 1,27,-1
 338 338 l 1,0,-1
EndSplineSet
EndChar
StartChar: l
Encoding: 108 108 77
Width: 190
Flags: W
Fore
118 80 m 1,0,1
 119 60 119 60 124.5 44 c 128,-1,2
 130 28 130 28 153 11 c 1,3,-1
 118 -20 l 1,4,5
 98 -12 98 -12 84.5 8 c 128,-1,6
 71 28 71 28 68 48 c 1,7,-1
 68 70 l 1,8,-1
 68 366 l 2,9,10
 68 389 68 389 63 406.5 c 128,-1,11
 58 424 58 424 33 444 c 1,12,-1
 68 474 l 1,13,14
 88 467 88 467 101 446.5 c 128,-1,15
 114 426 114 426 118 406 c 1,16,-1
 118 80 l 1,17,-1
 118 80 l 1,0,1
EndSplineSet
EndChar
StartChar: m
Encoding: 109 109 78
Width: 518
Flags: W
Fore
69 234 m 2,0,1
 69 257 69 257 64 274 c 128,-1,2
 59 291 59 291 34 310 c 1,3,-1
 69 341 l 1,4,5
 86 335 86 335 98 319.5 c 128,-1,6
 110 304 110 304 115 287 c 1,7,8
 129 316 129 316 147 331 c 0,9,10
 163 344 163 344 187 343 c 128,-1,11
 211 342 211 342 226 331 c 0,12,13
 240 322 240 322 249.5 306 c 128,-1,14
 259 290 259 290 267 270 c 1,15,16
 285 313 285 313 309 331 c 0,17,18
 317 337 317 337 330.5 340 c 128,-1,19
 344 343 344 343 359 342.5 c 128,-1,20
 374 342 374 342 387.5 339 c 128,-1,21
 401 336 401 336 409 331 c 0,22,23
 434 315 434 315 440 281.5 c 128,-1,24
 446 248 446 248 446 206 c 2,25,-1
 446 90 l 2,26,27
 446 67 446 67 450 45 c 128,-1,28
 454 23 454 23 481 10 c 1,29,-1
 446 -21 l 1,30,31
 426 -13 426 -13 412 5 c 128,-1,32
 398 23 398 23 396 47 c 2,33,-1
 396 190 l 2,34,35
 396 212 396 212 396.5 226 c 128,-1,36
 397 240 397 240 396 250 c 128,-1,37
 395 260 395 260 391.5 268.5 c 128,-1,38
 388 277 388 277 381 289 c 0,39,40
 370 307 370 307 349 305.5 c 128,-1,41
 328 304 328 304 316 286 c 0,42,43
 303 268 303 268 294.5 239 c 128,-1,44
 286 210 286 210 284 174 c 2,45,-1
 284 -1 l 1,46,-1
 232 -1 l 1,47,-1
 232 190 l 2,48,49
 232 232 232 232 228 253.5 c 128,-1,50
 224 275 224 275 213 289 c 0,51,52
 200 306 200 306 180 302 c 128,-1,53
 160 298 160 298 148 280 c 0,54,55
 124 245 124 245 119 173 c 0,56,57
 118 156 118 156 118 138.5 c 128,-1,58
 118 121 118 121 118.5 100.5 c 128,-1,59
 119 80 119 80 120 55.5 c 128,-1,60
 121 31 121 31 121 0 c 1,61,-1
 71 0 l 1,62,63
 68 82 68 82 68 167 c 2,64,-1
 69 234 l 2,0,1
EndSplineSet
EndChar
StartChar: n
Encoding: 110 110 79
Width: 423
Flags: W
Fore
68 236 m 1,0,1
 68 259 68 259 63 276.5 c 128,-1,2
 58 294 58 294 33 312 c 1,3,-1
 69 343 l 1,4,5
 89 335 89 335 102 315 c 128,-1,6
 115 295 115 295 119 275 c 1,7,-1
 119 233 l 1,8,9
 137 286 137 286 161.5 316.5 c 128,-1,10
 186 347 186 347 235 347 c 0,11,12
 262 347 262 347 284 336 c 128,-1,13
 306 325 306 325 321 306 c 128,-1,14
 336 287 336 287 344 261.5 c 128,-1,15
 352 236 352 236 352 208 c 2,16,-1
 352 92 l 2,17,18
 352 69 352 69 356 47 c 128,-1,19
 360 25 360 25 387 12 c 1,20,-1
 352 -19 l 1,21,22
 332 -11 332 -11 318 7 c 128,-1,23
 304 25 304 25 302 49 c 2,24,-1
 302 192 l 2,25,26
 302 247 302 247 283 278 c 128,-1,27
 264 309 264 309 224 306 c 0,28,29
 202 304 202 304 184.5 283.5 c 128,-1,30
 167 263 167 263 153.5 232.5 c 128,-1,31
 140 202 140 202 131 165 c 128,-1,32
 122 128 122 128 119 94 c 2,33,-1
 119 2 l 1,34,-1
 116 2 l 1,35,-1
 116 1 l 1,36,-1
 68 1 l 1,37,-1
 68 2 l 1,38,-1
 68 236 l 1,39,-1
 68 236 l 1,0,1
EndSplineSet
EndChar
StartChar: o
Encoding: 111 111 80
Width: 462
Flags: W
Fore
66 222 m 1,0,1
 66 264 66 264 90.5 291.5 c 128,-1,2
 115 319 115 319 151.5 333 c 128,-1,3
 188 347 188 347 230 347 c 128,-1,4
 272 347 272 347 308 333 c 128,-1,5
 344 319 344 319 368 291.5 c 128,-1,6
 392 264 392 264 392 222 c 0,7,8
 392 199 392 199 392 187.5 c 128,-1,9
 392 176 392 176 392 171 c 128,-1,10
 392 166 392 166 392 164 c 128,-1,11
 392 162 392 162 392 158 c 128,-1,12
 392 154 392 154 392 145 c 128,-1,13
 392 136 392 136 392 116 c 0,14,15
 391 74 391 74 367.5 46.5 c 128,-1,16
 344 19 344 19 308 5 c 128,-1,17
 272 -9 272 -9 230.5 -8.5 c 128,-1,18
 189 -8 189 -8 153 5.5 c 128,-1,19
 117 19 117 19 93 47 c 128,-1,20
 69 75 69 75 68 116 c 0,21,22
 68 127 68 127 67.5 149.5 c 128,-1,23
 67 172 67 172 66.5 192.5 c 128,-1,24
 66 213 66 213 66 223.5 c 128,-1,25
 66 234 66 234 66 222 c 1,0,1
117 200 m 2,26,-1
 117 136 l 2,27,28
 117 98 117 98 133.5 73 c 128,-1,29
 150 48 150 48 175 35.5 c 128,-1,30
 200 23 200 23 229 23.5 c 128,-1,31
 258 24 258 24 283 36.5 c 128,-1,32
 308 49 308 49 325 74 c 128,-1,33
 342 99 342 99 343 136 c 0,34,35
 343 151 343 151 343 154 c 128,-1,36
 343 157 343 157 343 159 c 128,-1,37
 343 161 343 161 342.5 168.5 c 128,-1,38
 342 176 342 176 342 199 c 0,39,40
 342 237 342 237 325 262 c 128,-1,41
 308 287 308 287 283 299.5 c 128,-1,42
 258 312 258 312 229 312 c 128,-1,43
 200 312 200 312 175 299.5 c 128,-1,44
 150 287 150 287 133.5 262 c 128,-1,45
 117 237 117 237 117 200 c 2,26,-1
EndSplineSet
EndChar
StartChar: p
Encoding: 112 112 81
Width: 466
Flags: W
Fore
233 39 m 0,0,1
 267 40 267 40 290.5 53 c 128,-1,2
 314 66 314 66 327.5 86.5 c 128,-1,3
 341 107 341 107 345.5 133.5 c 128,-1,4
 350 160 350 160 347 189 c 0,5,6
 342 240 342 240 317 271 c 128,-1,7
 292 302 292 302 241 304 c 0,8,9
 198 306 198 306 169.5 290 c 128,-1,10
 141 274 141 274 118 253 c 1,11,-1
 118 112 l 1,12,13
 132 81 132 81 161.5 61.5 c 128,-1,14
 191 42 191 42 233 39 c 0,0,1
68 253 m 2,15,16
 67 270 67 270 60.5 284.5 c 128,-1,17
 54 299 54 299 33 314 c 1,18,19
 43 325 43 325 52 332 c 128,-1,20
 61 339 61 339 69 345 c 1,21,22
 99 332 99 332 112 300 c 1,23,24
 124 309 124 309 135 317.5 c 128,-1,25
 146 326 146 326 160.5 332 c 128,-1,26
 175 338 175 338 196 341.5 c 128,-1,27
 217 345 217 345 248 345 c 256,28,29
 279 345 279 345 306.5 332.5 c 128,-1,30
 334 320 334 320 354.5 299 c 128,-1,31
 375 278 375 278 388 250 c 128,-1,32
 401 222 401 222 403 192 c 0,33,34
 406 158 406 158 395.5 123.5 c 128,-1,35
 385 89 385 89 363 60.5 c 128,-1,36
 341 32 341 32 308 14 c 128,-1,37
 275 -4 275 -4 233 -4 c 0,38,39
 225 -4 225 -4 210 -1.5 c 128,-1,40
 195 1 195 1 177.5 6 c 128,-1,41
 160 11 160 11 144 20 c 128,-1,42
 128 29 128 29 118 43 c 1,43,-1
 118 -125 l 1,44,-1
 68 -125 l 1,45,-1
 68 253 l 2,15,16
EndSplineSet
EndChar
StartChar: q
Encoding: 113 113 82
Width: 455
Flags: W
Fore
216 44 m 0,0,1
 290 44 290 44 332 102 c 1,2,-1
 332 254 l 1,3,-1
 332 256 l 1,4,5
 309 277 309 277 279.5 293 c 128,-1,6
 250 309 250 309 209 301 c 0,7,8
 159 291 159 291 134.5 261 c 128,-1,9
 110 231 110 231 103 189 c 0,10,11
 98 161 98 161 102.5 135 c 128,-1,12
 107 109 107 109 121 89.5 c 128,-1,13
 135 70 135 70 158.5 57.5 c 128,-1,14
 182 45 182 45 216 44 c 0,0,1
332 43 m 1,15,16
 322 29 322 29 305.5 20.5 c 128,-1,17
 289 12 289 12 272 6.5 c 128,-1,18
 255 1 255 1 239.5 -1.5 c 128,-1,19
 224 -4 224 -4 217 -4 c 0,20,21
 173 -6 173 -6 139 11.5 c 128,-1,22
 105 29 105 29 82.5 57.5 c 128,-1,23
 60 86 60 86 50.5 121.5 c 128,-1,24
 41 157 41 157 46 192 c 0,25,26
 50 222 50 222 63.5 249.5 c 128,-1,27
 77 277 77 277 97 298.5 c 128,-1,28
 117 320 117 320 144 332.5 c 128,-1,29
 171 345 171 345 202 345 c 256,30,31
 233 345 233 345 254.5 341 c 128,-1,32
 276 337 276 337 292 330.5 c 128,-1,33
 308 324 308 324 318.5 316 c 128,-1,34
 329 308 329 308 338 300 c 1,35,36
 344 315 344 315 355 327 c 128,-1,37
 366 339 366 339 381 345 c 1,38,39
 389 339 389 339 398 332 c 128,-1,40
 407 325 407 325 416 314 c 1,41,42
 396 299 396 299 389.5 284.5 c 128,-1,43
 383 270 383 270 382 253 c 2,44,-1
 382 -42 l 2,45,46
 382 -66 382 -66 386.5 -84.5 c 128,-1,47
 391 -103 391 -103 417 -123 c 1,48,-1
 382 -154 l 1,49,50
 362 -146 362 -146 348.5 -126 c 128,-1,51
 335 -106 335 -106 332 -86 c 1,52,-1
 332 43 l 1,15,16
EndSplineSet
EndChar
StartChar: r
Encoding: 114 114 83
Width: 276
Flags: W
Fore
119 150 m 0,0,1
 119 122 119 122 118.5 94.5 c 128,-1,2
 118 67 118 67 118 39 c 0,3,4
 118 31 118 31 113.5 20.5 c 128,-1,5
 109 10 109 10 102.5 0.5 c 128,-1,6
 96 -9 96 -9 87 -17.5 c 128,-1,7
 78 -26 78 -26 68 -29 c 1,8,-1
 33 1 l 1,9,10
 58 20 58 20 63 39 c 128,-1,11
 68 58 68 58 68 82 c 2,12,-1
 68 339 l 1,13,-1
 118 339 l 1,14,-1
 118 282 l 1,15,16
 133 308 133 308 156 324 c 128,-1,17
 179 340 179 340 213 340 c 2,18,-1
 230 340 l 1,19,-1
 230 300 l 1,20,-1
 212 300 l 2,21,22
 184 300 184 300 166.5 286 c 128,-1,23
 149 272 149 272 138.5 250.5 c 128,-1,24
 128 229 128 229 123.5 202.5 c 128,-1,25
 119 176 119 176 119 150 c 0,0,1
EndSplineSet
EndChar
StartChar: s
Encoding: 115 115 84
Width: 375
Flags: W
Fore
277 91 m 0,0,1
 275 117 275 117 258 130.5 c 128,-1,2
 241 144 241 144 216.5 151 c 128,-1,3
 192 158 192 158 163.5 162 c 128,-1,4
 135 166 135 166 110 175 c 128,-1,5
 85 184 85 184 68 201 c 128,-1,6
 51 218 51 218 50 250 c 0,7,8
 49 275 49 275 61.5 293.5 c 128,-1,9
 74 312 74 312 94 324.5 c 128,-1,10
 114 337 114 337 138.5 343 c 128,-1,11
 163 349 163 349 185 349 c 0,12,13
 203 349 203 349 222.5 345 c 128,-1,14
 242 341 242 341 259 332 c 128,-1,15
 276 323 276 323 288 309.5 c 128,-1,16
 300 296 300 296 302 277 c 1,17,-1
 262 277 l 1,18,19
 258 289 258 289 248.5 296 c 128,-1,20
 239 303 239 303 227.5 307 c 128,-1,21
 216 311 216 311 204 312 c 128,-1,22
 192 313 192 313 182 313 c 0,23,24
 168 313 168 313 153.5 309.5 c 128,-1,25
 139 306 139 306 127.5 298.5 c 128,-1,26
 116 291 116 291 108.5 279 c 128,-1,27
 101 267 101 267 102 250 c 0,28,29
 103 225 103 225 120 213.5 c 128,-1,30
 137 202 137 202 161.5 195.5 c 128,-1,31
 186 189 186 189 214.5 185 c 128,-1,32
 243 181 243 181 268 171.5 c 128,-1,33
 293 162 293 162 309.5 143.5 c 128,-1,34
 326 125 326 125 328 91 c 0,35,36
 329 64 329 64 315.5 44.5 c 128,-1,37
 302 25 302 25 280.5 13 c 128,-1,38
 259 1 259 1 233 -5 c 128,-1,39
 207 -11 207 -11 184 -11 c 0,40,41
 164 -11 164 -11 142.5 -7.5 c 128,-1,42
 121 -4 121 -4 101 5 c 128,-1,43
 81 14 81 14 63.5 28.5 c 128,-1,44
 46 43 46 43 36 66 c 1,45,-1
 84 66 l 1,46,47
 95 50 95 50 109 41 c 128,-1,48
 123 32 123 32 137.5 28 c 128,-1,49
 152 24 152 24 165 23 c 128,-1,50
 178 22 178 22 187 23 c 0,51,52
 206 25 206 25 223 28.5 c 128,-1,53
 240 32 240 32 252.5 39.5 c 128,-1,54
 265 47 265 47 271.5 59.5 c 128,-1,55
 278 72 278 72 277 91 c 0,0,1
EndSplineSet
EndChar
StartChar: t
Encoding: 116 116 85
Width: 281
Flags: W
Fore
212 301 m 1,0,-1
 118 301 l 1,1,-1
 118 136 l 2,2,3
 117 109 117 109 119.5 89.5 c 128,-1,4
 122 70 122 70 132 58 c 128,-1,5
 142 46 142 46 160.5 40 c 128,-1,6
 179 34 179 34 211 34 c 2,7,-1
 230 34 l 1,8,-1
 230 -3 l 1,9,10
 225 -3 225 -3 223.5 -3 c 128,-1,11
 222 -3 222 -3 221 -2.5 c 128,-1,12
 220 -2 220 -2 219 -2 c 128,-1,13
 218 -2 218 -2 213 -2 c 0,14,15
 175 -2 175 -2 148 4.5 c 128,-1,16
 121 11 121 11 103 27.5 c 128,-1,17
 85 44 85 44 76.5 70.5 c 128,-1,18
 68 97 68 97 68 137 c 2,19,-1
 68 373 l 2,20,21
 67 393 67 393 61.5 409.5 c 128,-1,22
 56 426 56 426 33 443 c 1,23,24
 42 453 42 453 51 460.5 c 128,-1,25
 60 468 60 468 68 474 c 1,26,27
 88 466 88 466 100.5 448 c 128,-1,28
 113 430 113 430 117 409 c 1,29,-1
 117 378 l 1,30,-1
 118 378 l 1,31,-1
 118 338 l 1,32,-1
 212 338 l 1,33,-1
 212 301 l 1,0,-1
EndSplineSet
EndChar
StartChar: u
Encoding: 117 117 86
Width: 448
Flags: W
Fore
371 340 m 1,0,-1
 371 99 l 2,1,2
 371 75 371 75 375.5 56 c 128,-1,3
 380 37 380 37 406 17 c 1,4,5
 388 -1 388 -1 371 -13 c 1,6,7
 357 -8 357 -8 345.5 4 c 128,-1,8
 334 16 334 16 328 30 c 1,9,10
 305 10 305 10 276 0.5 c 128,-1,11
 247 -9 247 -9 219 -9 c 0,12,13
 194 -9 194 -9 167.5 -0.5 c 128,-1,14
 141 8 141 8 119 24 c 128,-1,15
 97 40 97 40 82.5 64 c 128,-1,16
 68 88 68 88 68 119 c 2,17,-1
 68 340 l 1,18,-1
 117 340 l 1,19,-1
 117 132 l 2,20,21
 117 103 117 103 126 82.5 c 128,-1,22
 135 62 135 62 150 49.5 c 128,-1,23
 165 37 165 37 183.5 31.5 c 128,-1,24
 202 26 202 26 222 26 c 0,25,26
 241 27 241 27 259 33 c 128,-1,27
 277 39 277 39 291 52 c 128,-1,28
 305 65 305 65 313.5 84.5 c 128,-1,29
 322 104 322 104 322 132 c 2,30,-1
 322 340 l 1,31,-1
 371 340 l 1,0,-1
EndSplineSet
EndChar
StartChar: v
Encoding: 118 118 87
Width: 355
Flags: W
Fore
263 103 m 2,0,1
 258 83 258 83 250.5 63.5 c 128,-1,2
 243 44 243 44 232.5 28.5 c 128,-1,3
 222 13 222 13 208.5 3 c 128,-1,4
 195 -7 195 -7 178 -7 c 0,5,6
 145 -7 145 -7 125 20 c 128,-1,7
 105 47 105 47 93 93 c 2,8,-1
 40 338 l 1,9,-1
 90 338 l 1,10,-1
 139 109 l 2,11,12
 140 104 140 104 143.5 91.5 c 128,-1,13
 147 79 147 79 151.5 66 c 128,-1,14
 156 53 156 53 162.5 43.5 c 128,-1,15
 169 34 169 34 178 34 c 256,16,17
 187 34 187 34 194 43.5 c 128,-1,18
 201 53 201 53 206.5 65.5 c 128,-1,19
 212 78 212 78 215.5 90.5 c 128,-1,20
 219 103 219 103 220 109 c 2,21,-1
 267 338 l 1,22,-1
 313 338 l 1,23,-1
 263 103 l 2,0,1
EndSplineSet
EndChar
StartChar: w
Encoding: 119 119 88
Width: 501
Flags: W
Fore
103 -2 m 1,0,-1
 43 339 l 1,1,-1
 92 339 l 1,2,-1
 150 46 l 1,3,4
 166 55 166 55 180 77.5 c 128,-1,5
 194 100 194 100 206 130 c 128,-1,6
 218 160 218 160 229 194.5 c 128,-1,7
 240 229 240 229 250 263 c 1,8,9
 262 230 262 230 272 195.5 c 128,-1,10
 282 161 282 161 293 131.5 c 128,-1,11
 304 102 304 102 316.5 79.5 c 128,-1,12
 329 57 329 57 346 47 c 1,13,14
 358 109 358 109 375 185.5 c 128,-1,15
 392 262 392 262 407 339 c 1,16,-1
 456 339 l 1,17,-1
 390 -2 l 1,18,-1
 348 -2 l 1,19,20
 327 9 327 9 313 21.5 c 128,-1,21
 299 34 299 34 288.5 51 c 128,-1,22
 278 68 278 68 269 91 c 128,-1,23
 260 114 260 114 251 146 c 1,24,25
 242 114 242 114 232 91.5 c 128,-1,26
 222 69 222 69 210 52 c 128,-1,27
 198 35 198 35 183.5 22 c 128,-1,28
 169 9 169 9 150 -2 c 1,29,-1
 103 -2 l 1,0,-1
EndSplineSet
EndChar
StartChar: x
Encoding: 120 120 89
Width: 411
Flags: W
Fore
94 338 m 1,0,-1
 204 203 l 1,1,-1
 314 338 l 1,2,-1
 373 338 l 1,3,-1
 242 169 l 1,4,-1
 375 0 l 1,5,-1
 316 0 l 1,6,-1
 204 136 l 1,7,-1
 96 0 l 1,8,-1
 37 0 l 1,9,-1
 169 169 l 1,10,-1
 35 338 l 1,11,-1
 94 338 l 1,12,-1
 94 338 l 1,0,-1
EndSplineSet
EndChar
StartChar: y
Encoding: 121 121 90
Width: 451
Flags: W
Fore
321 25 m 1,0,1
 299 8 299 8 272 -1 c 128,-1,2
 245 -10 245 -10 219 -10 c 0,3,4
 194 -10 194 -10 167.5 -1.5 c 128,-1,5
 141 7 141 7 119 23 c 128,-1,6
 97 39 97 39 82.5 63 c 128,-1,7
 68 87 68 87 68 119 c 2,8,-1
 68 339 l 1,9,-1
 117 339 l 1,10,-1
 117 131 l 2,11,12
 117 102 117 102 126 82 c 128,-1,13
 135 62 135 62 150 49.5 c 128,-1,14
 165 37 165 37 183.5 31.5 c 128,-1,15
 202 26 202 26 222 26 c 0,16,17
 241 26 241 26 258.5 32.5 c 128,-1,18
 276 39 276 39 290 51.5 c 128,-1,19
 304 64 304 64 312.5 84 c 128,-1,20
 321 104 321 104 321 131 c 2,21,-1
 321 219 l 1,22,-1
 321 282 l 1,23,24
 325 303 325 303 338 321 c 128,-1,25
 351 339 351 339 371 347 c 1,26,27
 379 341 379 341 387.5 333.5 c 128,-1,28
 396 326 396 326 406 316 c 1,29,30
 380 296 380 296 375.5 277 c 128,-1,31
 371 258 371 258 371 235 c 2,32,-1
 371 -32 l 2,33,34
 370 -108 370 -108 336 -136.5 c 128,-1,35
 302 -165 302 -165 230 -165 c 2,36,-1
 201 -165 l 1,37,-1
 201 -126 l 1,38,-1
 231 -126 l 2,39,40
 261 -126 261 -126 279 -121.5 c 128,-1,41
 297 -117 297 -117 306 -106.5 c 128,-1,42
 315 -96 315 -96 318 -77.5 c 128,-1,43
 321 -59 321 -59 321 -31 c 2,44,-1
 321 4 l 1,45,-1
 321 25 l 1,0,1
EndSplineSet
EndChar
StartChar: z
Encoding: 122 122 91
Width: 426
Flags: W
Fore
365 43 m 1,0,-1
 365 -1 l 1,1,-1
 150 -1 l 2,2,3
 125 -1 125 -1 107.5 8 c 128,-1,4
 90 17 90 17 79 30.5 c 128,-1,5
 68 44 68 44 62.5 59.5 c 128,-1,6
 57 75 57 75 57 89 c 1,7,8
 62 94 62 94 80.5 110 c 128,-1,9
 99 126 99 126 123.5 147 c 128,-1,10
 148 168 148 168 175.5 192 c 128,-1,11
 203 216 203 216 227.5 237 c 128,-1,12
 252 258 252 258 269.5 274 c 128,-1,13
 287 290 287 290 292 296 c 1,14,-1
 62 296 l 1,15,-1
 62 338 l 1,16,-1
 365 337 l 1,17,-1
 365 297 l 1,18,-1
 111 70 l 1,19,20
 115 55 115 55 123 49 c 128,-1,21
 131 43 131 43 161 43 c 2,22,-1
 365 43 l 1,0,-1
EndSplineSet
EndChar
StartChar: braceleft
Encoding: 123 123 92
Width: 228
Flags: W
Fore
198 -83 m 1,0,1
 148 -81 148 -81 116.5 -32.5 c 128,-1,2
 85 16 85 16 85 104 c 2,3,-1
 85 178 l 1,4,5
 68 189 68 189 50 197.5 c 128,-1,6
 32 206 32 206 16 212 c 1,7,8
 49 225 49 225 85 248 c 1,9,-1
 85 331 l 2,10,11
 85 418 85 418 115 464 c 128,-1,12
 145 510 145 510 198 518 c 1,13,-1
 198 475 l 1,14,15
 161 464 161 464 148.5 431 c 128,-1,16
 136 398 136 398 137 332 c 2,17,-1
 137 253 l 1,18,-1
 137 249 l 2,19,20
 137 247 137 247 136 245 c 128,-1,21
 134 241 l 0,22,23
 132 238 132 238 128 234 c 0,24,25
 126 232 126 232 124 231 c 0,26,27
 120 228 120 228 112 226 c 128,-1,28
 104 224 104 224 95.5 221.5 c 128,-1,29
 87 219 87 219 79 217 c 128,-1,30
 71 215 71 215 67 214 c 1,31,32
 71 212 71 212 79 210.5 c 128,-1,33
 87 209 87 209 95.5 206.5 c 128,-1,34
 104 204 104 204 112 202 c 128,-1,35
 120 200 120 200 124 197 c 0,36,37
 125 196 125 196 127 195 c 256,38,39
 129 194 129 194 130 192.5 c 128,-1,40
 131 191 131 191 133 189 c 1,41,-1
 136 180 l 2,42,43
 137 177 137 177 137 175 c 2,44,-1
 137 103 l 2,45,46
 136 37 136 37 149.5 4.5 c 128,-1,47
 163 -28 163 -28 198 -40 c 1,48,-1
 198 -83 l 1,0,1
EndSplineSet
EndChar
StartChar: bar
Encoding: 124 124 93
Width: 202
Flags: W
Fore
70 -178 m 1,0,-1
 69 539 l 1,1,-1
 130 539 l 1,2,-1
 130 -178 l 1,3,-1
 70 -178 l 1,0,-1
EndSplineSet
EndChar
StartChar: braceright
Encoding: 125 125 94
Width: 226
Flags: W
Fore
15 520 m 1,0,1
 65 518 65 518 96.5 469.5 c 128,-1,2
 128 421 128 421 128 333 c 2,3,-1
 128 259 l 1,4,5
 145 248 145 248 163 239.5 c 128,-1,6
 181 231 181 231 197 225 c 1,7,8
 164 212 164 212 128 189 c 1,9,-1
 128 106 l 2,10,11
 128 19 128 19 98 -27 c 128,-1,12
 68 -73 68 -73 17 -81 c 1,13,-1
 16 -38 l 1,14,15
 52 -27 52 -27 64 6 c 128,-1,16
 76 39 76 39 75 105 c 2,17,-1
 76 184 l 1,18,-1
 76 188 l 2,19,20
 76 191 76 191 79 196 c 0,21,22
 80 198 80 198 81.5 199.5 c 128,-1,23
 83 201 83 201 85 203 c 256,24,25
 87 205 87 205 89 206 c 0,26,27
 93 209 93 209 101 211 c 128,-1,28
 109 213 109 213 117.5 215.5 c 128,-1,29
 126 218 126 218 134 219.5 c 128,-1,30
 142 221 142 221 146 223 c 1,31,32
 142 224 142 224 134 226 c 128,-1,33
 126 228 126 228 117.5 230.5 c 128,-1,34
 109 233 109 233 101 235 c 128,-1,35
 93 237 93 237 89 240 c 0,36,37
 88 241 88 241 86 242 c 0,38,39
 81 244 81 244 80 248 c 2,40,41
 78 250 78 250 78 252.5 c 128,-1,42
 78 255 78 255 77 257 c 0,43,44
 76 260 76 260 76 262 c 2,45,-1
 76 334 l 2,46,47
 77 400 77 400 63.5 433 c 128,-1,48
 50 466 50 466 15 478 c 1,49,-1
 15 520 l 1,0,1
EndSplineSet
EndChar
StartChar: asciitilde
Encoding: 126 126 95
Width: 501
Flags: W
Fore
450 255 m 1,0,-1
 450 248 l 2,1,2
 451 218 451 218 442.5 196.5 c 128,-1,3
 434 175 434 175 420.5 161.5 c 128,-1,4
 407 148 407 148 390.5 142 c 128,-1,5
 374 136 374 136 358 136 c 0,6,7
 339 136 339 136 310 140.5 c 128,-1,8
 281 145 281 145 243 169 c 0,9,10
 230 177 230 177 219 186 c 128,-1,11
 208 195 208 195 197 202.5 c 128,-1,12
 186 210 186 210 174.5 215 c 128,-1,13
 163 220 163 220 150 220 c 0,14,15
 126 220 126 220 110.5 203.5 c 128,-1,16
 95 187 95 187 95 155 c 1,17,-1
 48 155 l 1,18,-1
 48 162 l 2,19,20
 48 184 48 184 55 204 c 128,-1,21
 62 224 62 224 74 240 c 128,-1,22
 86 256 86 256 102 265.5 c 128,-1,23
 118 275 118 275 137 276 c 0,24,25
 152 277 152 277 165 275.5 c 128,-1,26
 178 274 178 274 192 269 c 128,-1,27
 206 264 206 264 222.5 255 c 128,-1,28
 239 246 239 246 261 231 c 256,29,30
 283 216 283 216 306.5 203 c 128,-1,31
 330 190 330 190 356 190 c 0,32,33
 402 190 402 190 402 255 c 1,34,-1
 450 255 l 1,0,-1
EndSplineSet
EndChar
StartChar: uni0E33.alt1
Encoding: 65539 -1 96
Width: 358
Flags: W
Fore
126 401 m 0,0,1
 157 401 157 401 186 391 c 128,-1,2
 215 381 215 381 237 363 c 128,-1,3
 259 345 259 345 272 321 c 128,-1,4
 285 297 285 297 285 269 c 2,5,-1
 285 -2 l 1,6,-1
 231 -2 l 1,7,-1
 231 250 l 2,8,9
 231 279 231 279 228.5 298 c 128,-1,10
 226 317 226 317 211 334 c 0,11,12
 197 350 197 350 175 358.5 c 128,-1,13
 153 367 153 367 128.5 367.5 c 128,-1,14
 104 368 104 368 79 361.5 c 128,-1,15
 54 355 54 355 34 342 c 1,16,-1
 39 371 l 1,17,18
 49 381 49 381 62.5 387 c 128,-1,19
 76 393 76 393 89 396 c 128,-1,20
 102 399 102 399 112.5 400 c 128,-1,21
 123 401 123 401 126 401 c 0,0,1
-322 502 m 0,22,23
 -323 531 -323 531 -302.5 550.5 c 128,-1,24
 -282 570 -282 570 -255 570 c 0,25,26
 -229 570 -229 570 -208.5 550 c 128,-1,27
 -188 530 -188 530 -189 501 c 0,28,29
 -187 472 -187 472 -208 452 c 128,-1,30
 -229 432 -229 432 -255 432 c 0,31,32
 -284 432 -284 432 -303 453 c 128,-1,33
 -322 474 -322 474 -322 502 c 0,22,23
-288 502 m 0,34,35
 -288 485 -288 485 -280 470.5 c 128,-1,36
 -272 456 -272 456 -255 455 c 0,37,38
 -240 455 -240 455 -232 470 c 128,-1,39
 -224 485 -224 485 -223 502 c 0,40,41
 -223 517 -223 517 -231 530.5 c 128,-1,42
 -239 544 -239 544 -255 545 c 0,43,44
 -271 544 -271 544 -279.5 530 c 128,-1,45
 -288 516 -288 516 -288 502 c 0,34,35
EndSplineSet
EndChar
StartChar: quotedbl
Encoding: 34 34 97
Width: 259
Flags: W
Fore
198 339 m 1,0,-1
 163 339 l 1,1,-1
 151 480 l 1,2,-1
 210 481 l 1,3,-1
 198 339 l 1,4,-1
 198 339 l 1,0,-1
95 339 m 1,5,-1
 59 339 l 1,6,-1
 48 480 l 1,7,-1
 106 481 l 1,8,-1
 95 339 l 1,9,-1
 95 339 l 1,5,-1
EndSplineSet
EndChar
StartChar: exclam
Encoding: 33 33 98
Width: 171
Flags: W
Fore
64 141 m 1,0,-1
 54 488 l 1,1,-1
 123 488 l 1,2,-1
 111 141 l 1,3,-1
 64 141 l 1,0,-1
88 105 m 0,4,5
 105 105 105 105 116.5 90 c 128,-1,6
 128 75 128 75 128 53 c 0,7,8
 128 30 128 30 117 15 c 128,-1,9
 106 0 106 0 88 -2 c 1,10,11
 73 0 73 0 60.5 15 c 128,-1,12
 48 30 48 30 49 53 c 0,13,14
 49 75 49 75 60.5 90 c 128,-1,15
 72 105 72 105 88 105 c 0,4,5
EndSplineSet
EndChar
StartChar: uni0E4E.alt1
Encoding: 65540 -1 99
Width: 0
Flags: W
Fore
-97 662 m 1,0,-1
 -105 633 l 1,1,2
 -119 636 -119 636 -133 637 c 128,-1,3
 -147 638 -147 638 -158.5 635 c 128,-1,4
 -170 632 -170 632 -177.5 624.5 c 128,-1,5
 -185 617 -185 617 -185 604 c 0,6,7
 -185 588 -185 588 -169.5 581 c 128,-1,8
 -154 574 -154 574 -136 572 c 1,9,-1
 -143 535 l 1,10,11
 -162 533 -162 533 -177.5 531.5 c 128,-1,12
 -193 530 -193 530 -203.5 526 c 128,-1,13
 -214 522 -214 522 -220 515 c 128,-1,14
 -226 508 -226 508 -226 495 c 0,15,16
 -225 479 -225 479 -204 473 c 128,-1,17
 -183 467 -183 467 -148 471 c 1,18,-1
 -155 443 l 1,19,20
 -181 439 -181 439 -204.5 440.5 c 128,-1,21
 -228 442 -228 442 -246 447.5 c 128,-1,22
 -264 453 -264 453 -275.5 462.5 c 128,-1,23
 -287 472 -287 472 -287 486 c 0,24,25
 -287 506 -287 506 -279.5 520 c 128,-1,26
 -272 534 -272 534 -258.5 542.5 c 128,-1,27
 -245 551 -245 551 -227 554.5 c 128,-1,28
 -209 558 -209 558 -189 557 c 1,29,30
 -210 562 -210 562 -226 576.5 c 128,-1,31
 -242 591 -242 591 -242 605 c 0,32,33
 -244 627 -244 627 -232 640.5 c 128,-1,34
 -220 654 -220 654 -199.5 660.5 c 128,-1,35
 -179 667 -179 667 -152 667 c 128,-1,36
 -125 667 -125 667 -97 662 c 1,0,-1
EndSplineSet
EndChar
StartChar: exclamdown
Encoding: 161 161 100
Width: 155
Flags: W
Fore
98 204 m 1,0,-1
 109 -143 l 1,1,-1
 40 -143 l 1,2,-1
 51 204 l 1,3,-1
 98 204 l 1,0,-1
74 240 m 0,4,5
 57 240 57 240 45.5 255.5 c 128,-1,6
 34 271 34 271 34 293 c 256,7,8
 34 315 34 315 45.5 330.5 c 128,-1,9
 57 346 57 346 74 347 c 0,10,11
 91 346 91 346 102.5 330.5 c 128,-1,12
 114 315 114 315 113 293 c 0,13,14
 113 271 113 271 101.5 255.5 c 128,-1,15
 90 240 90 240 74 240 c 0,4,5
EndSplineSet
EndChar
StartChar: cent
Encoding: 162 162 101
Width: 428
Flags: W
Fore
202 62 m 1,0,1
 179 64 179 64 159 70 c 128,-1,2
 139 76 139 76 124 85 c 0,3,4
 101 98 101 98 84.5 117.5 c 128,-1,5
 68 137 68 137 68 163 c 2,6,-1
 68 312 l 2,7,8
 68 338 68 338 84.5 357.5 c 128,-1,9
 101 377 101 377 124 390 c 0,10,11
 155 409 155 409 202 412 c 1,12,-1
 202 491 l 1,13,-1
 260 491 l 1,14,-1
 260 411 l 1,15,16
 298 406 298 406 331 389.5 c 128,-1,17
 364 373 364 373 379 343 c 1,18,-1
 345 321 l 1,19,20
 333 348 333 348 310 361.5 c 128,-1,21
 287 375 287 375 260 378 c 1,22,-1
 260 96 l 1,23,24
 286 100 286 100 308 113.5 c 128,-1,25
 330 127 330 127 341 154 c 1,26,-1
 379 132 l 1,27,28
 364 101 364 101 331 85 c 128,-1,29
 298 69 298 69 260 64 c 1,30,-1
 262 0 l 1,31,-1
 204 0 l 1,32,-1
 202 62 l 1,0,1
169 115 m 0,33,34
 185 105 185 105 202 101 c 1,35,-1
 202 373 l 1,36,37
 193 371 193 371 184.5 368 c 128,-1,38
 176 365 176 365 169 360 c 0,39,40
 149 348 149 348 134.5 334.5 c 128,-1,41
 120 321 120 321 120 299 c 2,42,-1
 120 176 l 2,43,44
 120 154 120 154 134.5 140.5 c 128,-1,45
 149 127 149 127 169 115 c 0,33,34
EndSplineSet
EndChar
StartChar: sterling
Encoding: 163 163 102
Width: 418
Flags: W
Fore
66 0 m 1,0,-1
 64 33 l 1,1,2
 93 45 93 45 111 59.5 c 128,-1,3
 129 74 129 74 139 89.5 c 128,-1,4
 149 105 149 105 152.5 123 c 128,-1,5
 156 141 156 141 156 161 c 0,6,7
 156 175 156 175 154.5 183.5 c 128,-1,8
 153 192 153 192 150 210 c 1,9,-1
 63 210 l 1,10,-1
 63 255 l 1,11,-1
 145 255 l 1,12,13
 141 272 141 272 137.5 293.5 c 128,-1,14
 134 315 134 315 134 338 c 0,15,16
 134 368 134 368 144 393.5 c 128,-1,17
 154 419 154 419 171.5 437 c 128,-1,18
 189 455 189 455 213 465.5 c 128,-1,19
 237 476 237 476 266 476 c 0,20,21
 297 476 297 476 316.5 469.5 c 128,-1,22
 336 463 336 463 350 457 c 1,23,-1
 335 419 l 1,24,25
 324 424 324 424 306.5 431.5 c 128,-1,26
 289 439 289 439 263 438 c 0,27,28
 233 437 233 437 212.5 412 c 128,-1,29
 192 387 192 387 192 337 c 0,30,31
 192 311 192 311 194.5 294 c 128,-1,32
 197 277 197 277 201 260 c 1,33,-1
 295 260 l 1,34,-1
 295 214 l 1,35,-1
 207 213 l 1,36,37
 208.5 204.5 l 130,-1,38
 210 196 210 196 211.5 183.5 c 128,-1,39
 213 171 213 171 213 154.5 c 128,-1,40
 213 138 213 138 210 122 c 0,41,42
 205 92 205 92 185.5 70 c 128,-1,43
 166 48 166 48 140 35 c 1,44,-1
 367 36 l 1,45,-1
 369 0 l 1,46,-1
 66 0 l 1,0,-1
EndSplineSet
EndChar
StartChar: currency
Encoding: 164 164 103
Width: 486
Flags: W
Fore
416 58 m 1,0,-1
 376 99 l 1,1,2
 354 78 354 78 318 67 c 128,-1,3
 282 56 282 56 242.5 56 c 128,-1,4
 203 56 203 56 166.5 66 c 128,-1,5
 130 76 130 76 107 96 c 1,6,-1
 64 56 l 1,7,-1
 40 84 l 1,8,-1
 80 125 l 1,9,10
 70 139 70 139 67.5 150.5 c 128,-1,11
 65 162 65 162 65 182 c 0,12,13
 64 205 64 205 64.5 234 c 128,-1,14
 65 263 65 263 65 286 c 0,15,16
 65 308 65 308 70.5 322 c 128,-1,17
 76 336 76 336 88 350 c 1,18,-1
 51 386 l 1,19,-1
 77 412 l 1,20,-1
 113 375 l 1,21,22
 136 393 136 393 171 401.5 c 128,-1,23
 206 410 206 410 243 409.5 c 128,-1,24
 280 409 280 409 314 399.5 c 128,-1,25
 348 390 348 390 370 371 c 1,26,-1
 409 409 l 1,27,-1
 438 381 l 1,28,-1
 395 342 l 1,29,30
 405 328 405 328 408.5 315 c 128,-1,31
 412 302 412 302 412 282 c 2,32,-1
 412 182 l 2,33,34
 412 163 412 163 409 152 c 128,-1,35
 406 141 406 141 398 128 c 1,36,-1
 442 83 l 1,37,-1
 416 58 l 1,0,-1
115 187 m 0,38,39
 115 159 115 159 133 140 c 128,-1,40
 151 121 151 121 178 111 c 128,-1,41
 205 101 205 101 237 100.5 c 128,-1,42
 269 100 269 100 296.5 109.5 c 128,-1,43
 324 119 324 119 343 137.5 c 128,-1,44
 362 156 362 156 363 184 c 0,45,46
 363 199 363 199 363 205.5 c 128,-1,47
 363 218.5 l 128,-1,48
 363 225 363 225 363 235.5 c 128,-1,49
 363 246 363 246 363 269 c 0,50,51
 362 301 362 301 343.5 322.5 c 128,-1,52
 325 344 325 344 298 354.5 c 128,-1,53
 271 365 271 365 239.5 365 c 128,-1,54
 208 365 208 365 180.5 355 c 128,-1,55
 153 345 153 345 134.5 324.5 c 128,-1,56
 116 304 116 304 115 274 c 0,57,58
 115 269 115 269 115 257.5 c 128,-1,59
 115 246 115 246 115 232 c 128,-1,60
 115 218 115 218 115 205.5 c 128,-1,61
 115 193 115 193 115 187 c 0,38,39
EndSplineSet
EndChar
StartChar: yen
Encoding: 165 165 104
Width: 437
Flags: W
Fore
273 229 m 0,0,1
 272 228 272 228 272 227.5 c 128,-1,2
 272 227 272 227 271 226 c 1,3,-1
 406 226 l 1,4,-1
 406 169 l 1,5,-1
 241 169 l 1,6,-1
 241 117 l 1,7,-1
 406 117 l 1,8,-1
 406 62 l 1,9,-1
 241 62 l 1,10,-1
 243 0 l 1,11,-1
 190 0 l 1,12,-1
 188 62 l 1,13,-1
 34 62 l 1,14,-1
 34 117 l 1,15,-1
 188 117 l 1,16,-1
 188 169 l 1,17,-1
 34 169 l 1,18,-1
 34 226 l 1,19,-1
 158 226 l 1,20,21
 155 231 155 231 154 232 c 0,22,23
 138 257 138 257 120.5 288 c 128,-1,24
 103 319 103 319 85 352 c 128,-1,25
 67 385 67 385 49.5 417 c 128,-1,26
 32 449 32 449 17 476 c 1,27,-1
 67 476 l 1,28,29
 96 421 96 421 130 363.5 c 128,-1,30
 164 306 164 306 193 255 c 0,31,32
 205 233 205 233 212.5 232 c 128,-1,33
 220 231 220 231 233 252 c 0,34,35
 265 304 265 304 299.5 362.5 c 128,-1,36
 334 421 334 421 365 476 c 1,37,-1
 412 476 l 1,38,39
 396 447 396 447 378.5 415 c 128,-1,40
 361 383 361 383 343 351 c 128,-1,41
 325 319 325 319 307 287.5 c 128,-1,42
 289 256 289 256 273 229 c 0,0,1
EndSplineSet
EndChar
StartChar: brokenbar
Encoding: 166 166 105
Width: 169
Flags: W
Fore
59 232 m 1,0,-1
 59 485 l 1,1,-1
 112 485 l 1,2,-1
 112 232 l 1,3,-1
 59 232 l 1,4,-1
 59 232 l 1,0,-1
59 -125 m 1,5,-1
 59 129 l 1,6,-1
 112 129 l 1,7,-1
 112 -125 l 1,8,-1
 59 -125 l 1,9,-1
 59 -125 l 1,5,-1
EndSplineSet
EndChar
StartChar: section
Encoding: 167 167 106
Width: 403
Flags: W
Fore
347 69 m 0,0,1
 348 42 348 42 334.5 22 c 128,-1,2
 321 2 321 2 299 -10.5 c 128,-1,3
 277 -23 277 -23 250.5 -29 c 128,-1,4
 224 -35 224 -35 199 -34 c 0,5,6
 179 -34 179 -34 154.5 -29.5 c 128,-1,7
 130 -25 130 -25 108 -16 c 128,-1,8
 86 -7 86 -7 69 7.5 c 128,-1,9
 52 22 52 22 48 44 c 1,10,-1
 111 44 l 1,11,12
 123 21 123 21 146.5 13 c 128,-1,13
 170 5 170 5 202 5 c 0,14,15
 240 5 240 5 262.5 22.5 c 128,-1,16
 285 40 285 40 286 66 c 0,17,18
 284 88 284 88 270 102.5 c 128,-1,19
 256 117 256 117 232 125 c 0,20,21
 209 132 209 132 180 137 c 128,-1,22
 151 142 151 142 124.5 152.5 c 128,-1,23
 98 163 98 163 79.5 181 c 128,-1,24
 61 199 61 199 60 231 c 0,25,26
 59 247 59 247 66.5 262 c 128,-1,27
 74 277 74 277 86 289 c 128,-1,28
 98 301 98 301 112 309 c 128,-1,29
 126 317 126 317 139 319 c 1,30,31
 127 323 127 323 113 329 c 128,-1,32
 99 335 99 335 87.5 344 c 128,-1,33
 76 353 76 353 68 365.5 c 128,-1,34
 60 378 60 378 59 395 c 0,35,36
 57 420 57 420 70 439 c 128,-1,37
 83 458 83 458 104 470.5 c 128,-1,38
 125 483 125 483 149.5 489 c 128,-1,39
 174 495 174 495 197 495 c 0,40,41
 215 495 215 495 237.5 491 c 128,-1,42
 260 487 260 487 280.5 478 c 128,-1,43
 301 469 301 469 316.5 455 c 128,-1,44
 332 441 332 441 336 422 c 1,45,-1
 280 422 l 1,46,47
 266 447 266 447 245.5 453.5 c 128,-1,48
 225 460 225 460 195 459 c 0,49,50
 160 458 160 458 134.5 441 c 128,-1,51
 109 424 109 424 113 395 c 0,52,53
 114 381 114 381 120.5 372 c 128,-1,54
 127 363 127 363 137 357 c 128,-1,55
 147 351 147 351 159.5 347 c 128,-1,56
 172 343 172 343 186 339 c 1,57,58
 208 336 208 336 230.5 331 c 128,-1,59
 253 326 253 326 272.5 319 c 128,-1,60
 292 312 292 312 307.5 302 c 128,-1,61
 323 292 323 292 332 277 c 0,62,63
 343 259 343 259 344 233 c 0,64,65
 345 217 345 217 338.5 204.5 c 128,-1,66
 332 192 332 192 322 182 c 128,-1,67
 312 172 312 172 299.5 164 c 128,-1,68
 287 156 287 156 275 150 c 1,69,70
 286 145 286 145 298.5 138.5 c 128,-1,71
 311 132 311 132 321.5 122 c 128,-1,72
 332 112 332 112 339 99 c 128,-1,73
 346 86 346 86 347 69 c 0,0,1
116 231 m 0,74,75
 116 212 116 212 124 201.5 c 128,-1,76
 132 191 132 191 145.5 185.5 c 128,-1,77
 159 180 159 180 176.5 177.5 c 128,-1,78
 194 175 194 175 214 172 c 1,79,80
 229 174 229 174 243 178 c 128,-1,81
 257 182 257 182 268 189.5 c 128,-1,82
 279 197 279 197 285.5 207.5 c 128,-1,83
 292 218 292 218 291 233 c 0,84,85
 289 249 289 249 283 259.5 c 128,-1,86
 277 270 277 270 267.5 277 c 128,-1,87
 258 284 258 284 244.5 288 c 128,-1,88
 231 292 231 292 216 296 c 1,89,-1
 198 296 l 2,90,91
 184 296 184 296 169 292 c 128,-1,92
 154 288 154 288 142 280.5 c 128,-1,93
 130 273 130 273 122.5 260.5 c 128,-1,94
 115 248 115 248 116 231 c 0,74,75
EndSplineSet
EndChar
StartChar: dieresis
Encoding: 168 168 107
Width: 284
Flags: W
Fore
68 369 m 0,0,1
 51 369 51 369 40 384.5 c 128,-1,2
 29 400 29 400 29 422 c 256,3,4
 29 444 29 444 40.5 459.5 c 128,-1,5
 52 475 52 475 68 476 c 0,6,7
 85 475 85 475 96 459.5 c 128,-1,8
 107 444 107 444 107 422 c 256,9,10
 107 400 107 400 95.5 384.5 c 128,-1,11
 84 369 84 369 68 369 c 0,0,1
218 369 m 0,12,13
 201 369 201 369 190 384.5 c 128,-1,14
 179 400 179 400 179 422 c 256,15,16
 179 444 179 444 190.5 459.5 c 128,-1,17
 202 475 202 475 218 476 c 0,18,19
 235 475 235 475 246 459.5 c 128,-1,20
 257 444 257 444 257 422 c 256,21,22
 257 400 257 400 245.5 384.5 c 128,-1,23
 234 369 234 369 218 369 c 0,12,13
EndSplineSet
EndChar
StartChar: copyright
Encoding: 169 169 108
Width: 609
Flags: W
Fore
69 364 m 2,0,1
 69 406 69 406 103.5 434.5 c 128,-1,2
 138 463 138 463 190.5 477 c 128,-1,3
 243 491 243 491 303.5 491.5 c 128,-1,4
 364 492 364 492 416.5 477.5 c 128,-1,5
 469 463 469 463 503.5 434.5 c 128,-1,6
 538 406 538 406 538 364 c 2,7,-1
 538 112 l 2,8,9
 538 70 538 70 503.5 41.5 c 128,-1,10
 469 13 469 13 416.5 -1.5 c 128,-1,11
 364 -16 364 -16 303.5 -15.5 c 128,-1,12
 243 -15 243 -15 190.5 -1 c 128,-1,13
 138 13 138 13 103.5 41 c 128,-1,14
 69 69 69 69 69 112 c 2,15,-1
 69 364 l 2,0,1
486 345 m 2,16,17
 486 380 486 380 459 403.5 c 128,-1,18
 432 427 432 427 391 438.5 c 128,-1,19
 350 450 350 450 303 450 c 128,-1,20
 256 450 256 450 215 438.5 c 128,-1,21
 174 427 174 427 147 403.5 c 128,-1,22
 120 380 120 380 120 345 c 2,23,-1
 120 133 l 2,24,25
 120 97 120 97 147 73 c 128,-1,26
 174 49 174 49 215 37 c 128,-1,27
 256 25 256 25 303 25 c 128,-1,28
 350 25 350 25 391 37 c 128,-1,29
 432 49 432 49 459 73 c 128,-1,30
 486 97 486 97 486 133 c 2,31,-1
 486 345 l 2,16,17
235 361 m 0,32,33
 215 349 215 349 210.5 333 c 128,-1,34
 206 317 206 317 206 296 c 2,35,-1
 206 178 l 2,36,37
 206 157 206 157 210.5 144 c 128,-1,38
 215 131 215 131 235 119 c 0,39,40
 254 108 254 108 281 103 c 128,-1,41
 308 98 308 98 335 101 c 128,-1,42
 362 104 362 104 384.5 117 c 128,-1,43
 407 130 407 130 417 155 c 1,44,-1
 447 136 l 1,45,46
 433 107 433 107 403.5 91 c 128,-1,47
 374 75 374 75 339.5 70 c 128,-1,48
 305 65 305 65 271 70 c 128,-1,49
 237 75 237 75 213 89 c 0,50,51
 191 102 191 102 175 121.5 c 128,-1,52
 159 141 159 141 159 165 c 2,53,-1
 159 309 l 2,54,55
 159 333 159 333 175 354 c 128,-1,56
 191 375 191 375 213 388 c 0,57,58
 237 402 237 402 271 406.5 c 128,-1,59
 305 411 305 411 339.5 405.5 c 128,-1,60
 374 400 374 400 403.5 383.5 c 128,-1,61
 433 367 433 367 447 338 c 1,62,-1
 411 327 l 1,63,64
 402 348 402 348 380 360 c 128,-1,65
 358 372 358 372 332 376 c 128,-1,66
 306 380 306 380 280 376 c 128,-1,67
 254 372 254 372 235 361 c 0,32,33
EndSplineSet
EndChar
StartChar: ordfeminine
Encoding: 170 170 109
Width: 288
Flags: W
Fore
206 316 m 1,0,1
 194 307 194 307 183 303 c 128,-1,2
 172 299 172 299 157 296 c 0,3,4
 138 292 138 292 121.5 289 c 128,-1,5
 105 286 105 286 93.5 281 c 128,-1,6
 82 276 82 276 75.5 268 c 128,-1,7
 69 260 69 260 69 246 c 0,8,9
 69 235 69 235 79 227.5 c 128,-1,10
 89 220 89 220 102 218 c 0,11,12
 125 215 125 215 142.5 218 c 128,-1,13
 160 221 160 221 172.5 227 c 128,-1,14
 185 233 185 233 193 240 c 128,-1,15
 201 247 201 247 206 251 c 1,16,-1
 206 253 l 1,17,-1
 206 315 l 1,18,-1
 206 316 l 1,0,1
230 191 m 1,19,20
 222 194 222 194 215 203 c 128,-1,21
 208 212 208 212 206 221 c 1,22,23
 200 216 200 216 189 209.5 c 128,-1,24
 178 203 178 203 163.5 197.5 c 128,-1,25
 149 192 149 192 131 189 c 128,-1,26
 113 186 113 186 94 190 c 0,27,28
 70 195 70 195 51.5 210 c 128,-1,29
 33 225 33 225 32 251 c 0,30,31
 32 272 32 272 44 284.5 c 128,-1,32
 56 297 56 297 74.5 304.5 c 128,-1,33
 93 312 93 312 115 316 c 128,-1,34
 137 320 137 320 157 325 c 0,35,36
 163 326 163 326 171 328 c 128,-1,37
 179 330 179 330 186.5 334 c 128,-1,38
 194 338 194 338 199.5 343 c 128,-1,39
 205 348 205 348 205 355 c 0,40,41
 205 364 205 364 197.5 373 c 128,-1,42
 190 382 190 382 179 389 c 0,43,44
 167 396 167 396 150.5 398 c 128,-1,45
 134 400 134 400 117 398 c 128,-1,46
 100 396 100 396 82.5 390.5 c 128,-1,47
 65 385 65 385 51 378 c 1,48,-1
 54 406 l 1,49,50
 70 414 70 414 89.5 418 c 128,-1,51
 109 422 109 422 129 423 c 128,-1,52
 149 424 149 424 167.5 420.5 c 128,-1,53
 186 417 186 417 201 410 c 0,54,55
 216 404 216 404 228.5 388 c 128,-1,56
 241 372 241 372 241 354 c 2,57,-1
 241 238 l 2,58,59
 241 228 241 228 243 220 c 128,-1,60
 245 212 245 212 256 204 c 1,61,62
 252 199 252 199 242.5 196 c 128,-1,63
 233 193 233 193 230 191 c 1,19,20
EndSplineSet
EndChar
StartChar: guillemotleft
Encoding: 171 171 110
Width: 450
Flags: W
Fore
101 169 m 1,0,1
 111 165 111 165 130 152 c 128,-1,2
 149 139 149 139 169.5 121.5 c 128,-1,3
 190 104 190 104 210 84 c 128,-1,4
 230 64 230 64 242 46 c 1,5,-1
 187 46 l 1,6,7
 170 66 170 66 150 85.5 c 128,-1,8
 130 105 130 105 109 121.5 c 128,-1,9
 88 138 88 138 66.5 150 c 128,-1,10
 45 162 45 162 26 167 c 1,11,12
 64 184 64 184 108 216 c 128,-1,13
 152 248 152 248 185 294 c 1,14,-1
 242 294 l 1,15,16
 227 272 227 272 207 251 c 128,-1,17
 187 230 187 230 167 213.5 c 128,-1,18
 147 197 147 197 129 185 c 128,-1,19
 111 173 111 173 101 169 c 1,0,1
261 169 m 1,20,21
 271 165 271 165 290 152 c 128,-1,22
 309 139 309 139 329.5 121.5 c 128,-1,23
 350 104 350 104 370 84 c 128,-1,24
 390 64 390 64 402 46 c 1,25,-1
 347 46 l 1,26,27
 330 66 330 66 310 85.5 c 128,-1,28
 290 105 290 105 269 121.5 c 128,-1,29
 248 138 248 138 226.5 150 c 128,-1,30
 205 162 205 162 186 167 c 1,31,32
 224 184 224 184 268 216 c 128,-1,33
 312 248 312 248 345 294 c 1,34,-1
 402 294 l 1,35,36
 387 272 387 272 367 251 c 128,-1,37
 347 230 347 230 327 213.5 c 128,-1,38
 307 197 307 197 289 185 c 128,-1,39
 271 173 271 173 261 169 c 1,20,21
EndSplineSet
EndChar
StartChar: logicalnot
Encoding: 172 172 111
Width: 473
Flags: W
Fore
384 91 m 1,0,-1
 384 241 l 1,1,-1
 38 241 l 1,2,-1
 38 286 l 1,3,-1
 429 286 l 1,4,-1
 429 91 l 1,5,-1
 384 91 l 1,6,-1
 384 91 l 1,0,-1
EndSplineSet
EndChar
StartChar: registered
Encoding: 174 174 112
Width: 484
Flags: W
Fore
68 368 m 0,0,1
 68 410 68 410 94 438 c 128,-1,2
 120 466 120 466 158.5 480 c 128,-1,3
 197 494 197 494 242.5 494 c 128,-1,4
 288 494 288 494 326.5 480 c 128,-1,5
 365 466 365 466 391 438 c 128,-1,6
 417 410 417 410 417 368 c 2,7,-1
 417 264 l 2,8,9
 417 222 417 222 391.5 194 c 128,-1,10
 366 166 366 166 328 152 c 128,-1,11
 290 138 290 138 245 138 c 128,-1,12
 200 138 200 138 161.5 152 c 128,-1,13
 123 166 123 166 97 194 c 128,-1,14
 71 222 71 222 70 264 c 0,15,16
 69 287 69 287 68.5 316 c 128,-1,17
 68 345 68 345 68 368 c 0,0,1
116 363 m 2,18,-1
 116 270 l 2,19,20
 115 239 115 239 134 217.5 c 128,-1,21
 153 196 153 196 181 185 c 128,-1,22
 209 174 209 174 242 173 c 128,-1,23
 275 172 275 172 303.5 182 c 128,-1,24
 332 192 332 192 351.5 212.5 c 128,-1,25
 371 233 371 233 371 264 c 2,26,-1
 371 364 l 2,27,28
 371 393 371 393 352.5 414 c 128,-1,29
 334 435 334 435 305.5 446 c 128,-1,30
 277 457 277 457 244 458 c 128,-1,31
 211 459 211 459 183 449 c 128,-1,32
 155 439 155 439 135.5 418 c 128,-1,33
 116 397 116 397 116 363 c 2,18,-1
278 317 m 1,34,35
 297 322 297 322 310 334 c 128,-1,36
 323 346 323 346 324 366 c 0,37,38
 324 385 324 385 316 397 c 128,-1,39
 308 409 308 409 296 416 c 128,-1,40
 284 423 284 423 270.5 425 c 128,-1,41
 257 427 257 427 247 427 c 2,42,-1
 179 427 l 1,43,-1
 179 213 l 1,44,-1
 210 213 l 1,45,-1
 210 303 l 1,46,-1
 221 303 l 2,47,48
 234 303 234 303 247 302 c 128,-1,49
 260 301 260 301 269.5 295.5 c 128,-1,50
 279 290 279 290 284.5 278 c 128,-1,51
 290 266 290 266 290 244 c 2,52,-1
 290 213 l 1,53,-1
 321 213 l 1,54,-1
 321 245 l 2,55,56
 321 267 321 267 317.5 279.5 c 128,-1,57
 314 292 314 292 308 299.5 c 128,-1,58
 302 307 302 307 294.5 310.5 c 128,-1,59
 287 314 287 314 278 317 c 1,34,35
210 400 m 1,60,-1
 248 400 l 2,61,62
 257 400 257 400 265.5 399.5 c 128,-1,63
 274 399 274 399 281 396 c 128,-1,64
 288 393 288 393 292 386 c 128,-1,65
 296 379 296 379 296 366 c 0,66,67
 294 349 294 349 280 345.5 c 128,-1,68
 266 342 266 342 246 340 c 2,69,-1
 210 340 l 1,70,71
 210 356 210 356 210 363 c 128,-1,72
 210 370 210 370 210 374.5 c 128,-1,73
 210 383.5 l 128,-1,74
 210 388 210 388 210 400 c 1,60,-1
EndSplineSet
EndChar
StartChar: macron
Encoding: 175 175 113
Width: 236
Flags: W
Fore
36 415 m 1,0,-1
 36 463 l 1,1,-1
 195 463 l 1,2,-1
 195 415 l 1,3,-1
 36 415 l 1,4,-1
 36 415 l 1,0,-1
EndSplineSet
EndChar
StartChar: degree
Encoding: 176 176 114
Width: 219
Flags: W
Fore
27 410 m 0,0,1
 27 443 27 443 50.5 465.5 c 128,-1,2
 74 488 74 488 106 488 c 0,3,4
 121 488 121 488 135 482 c 128,-1,5
 149 476 149 476 160 465 c 128,-1,6
 171 454 171 454 177.5 439.5 c 128,-1,7
 184 425 184 425 184 409 c 0,8,9
 184 392 184 392 177.5 377.5 c 128,-1,10
 171 363 171 363 160 352.5 c 128,-1,11
 149 342 149 342 135 335.5 c 128,-1,12
 121 329 121 329 106 329 c 0,13,14
 89 329 89 329 74.5 335.5 c 128,-1,15
 60 342 60 342 49.5 353.5 c 128,-1,16
 39 365 39 365 33 379.5 c 128,-1,17
 27 394 27 394 27 410 c 0,0,1
68 410 m 0,18,19
 68 391 68 391 77 374 c 128,-1,20
 86 357 86 357 106 356 c 0,21,22
 123 356 123 356 132.5 373 c 128,-1,23
 142 390 142 390 143 410 c 0,24,25
 143 427 143 427 133.5 442.5 c 128,-1,26
 124 458 124 458 106 459 c 0,27,28
 88 458 88 458 78 442.5 c 128,-1,29
 68 427 68 427 68 410 c 0,18,19
EndSplineSet
EndChar
StartChar: plusminus
Encoding: 177 177 115
Width: 448
Flags: W
Fore
241 223 m 1,0,-1
 241 95 l 1,1,-1
 191 95 l 1,2,-1
 191 223 l 1,3,-1
 33 223 l 1,4,-1
 33 275 l 1,5,-1
 191 275 l 1,6,-1
 191 408 l 1,7,-1
 241 408 l 1,8,-1
 241 275 l 1,9,-1
 404 275 l 1,10,-1
 404 223 l 1,11,-1
 241 223 l 1,12,-1
 241 223 l 1,0,-1
35 0 m 1,13,-1
 34 51 l 1,14,-1
 405 51 l 1,15,-1
 406 0 l 1,16,-1
 35 0 l 1,17,-1
 35 0 l 1,13,-1
EndSplineSet
EndChar
StartChar: twosuperior
Encoding: 178 178 116
Width: 297
Flags: W
Fore
38 226 m 1,0,-1
 148 324 l 2,1,2
 163 340 163 340 173 353.5 c 128,-1,3
 183 367 183 367 192 378 c 0,4,5
 211 403 211 403 207 420 c 128,-1,6
 203 437 203 437 190 443 c 0,7,8
 178 449 178 449 166 449 c 128,-1,9
 154 449 154 449 147 449 c 0,10,11
 129 449 129 449 100.5 436.5 c 128,-1,12
 72 424 72 424 51 407 c 1,13,-1
 51 442 l 1,14,15
 77 464 77 464 103.5 473 c 128,-1,16
 130 482 130 482 150 482 c 0,17,18
 188 482 188 482 217 468 c 128,-1,19
 246 454 246 454 248 418 c 0,20,21
 249 405 249 405 242.5 385 c 128,-1,22
 236 365 236 365 207 331 c 0,23,24
 201 324 201 324 183.5 307 c 128,-1,25
 166 290 166 290 147 272 c 128,-1,26
 128 254 128 254 112.5 240 c 128,-1,27
 97 226 97 226 96 226 c 1,28,29
 112 227 112 227 133.5 227 c 128,-1,30
 176.5 227 l 128,-1,31
 198 227 198 227 216 226.5 c 128,-1,32
 234 226 234 226 243 226 c 1,33,-1
 243 191 l 1,34,-1
 38 191 l 1,35,-1
 38 226 l 1,0,-1
EndSplineSet
EndChar
StartChar: threesuperior
Encoding: 179 179 117
Width: 278
Flags: W
Fore
78 373 m 1,0,1
 95 373 95 373 98 374 c 2,2,3
 110 375 110 375 126 378.5 c 128,-1,4
 142 382 142 382 153 387 c 0,5,6
 173 395 173 395 178.5 407.5 c 128,-1,7
 184 420 184 420 171 433 c 0,8,9
 162 442 162 442 145 445.5 c 128,-1,10
 128 449 128 449 110 449 c 0,11,12
 90 448 90 448 76.5 444 c 128,-1,13
 63 440 63 440 46 435 c 1,14,-1
 48 470 l 1,15,16
 66 475 66 475 78.5 477.5 c 128,-1,17
 91 480 91 480 105 481 c 0,18,19
 120 483 120 483 138 482 c 128,-1,20
 156 481 156 481 167 477 c 0,21,22
 187 471 187 471 204.5 459 c 128,-1,23
 222 447 222 447 225 423 c 0,24,25
 229 391 229 391 204 374.5 c 128,-1,26
 179 358 179 358 143 351 c 1,27,-1
 143 350 l 1,28,29
 161 350 161 350 182 343 c 128,-1,30
 203 336 203 336 213 328 c 0,31,32
 235 308 235 308 236 282.5 c 128,-1,33
 237 257 237 257 222 235.5 c 128,-1,34
 207 214 207 214 178 201 c 128,-1,35
 149 188 149 188 109 193 c 0,36,37
 104 193 104 193 95.5 193.5 c 128,-1,38
 87 194 87 194 77.5 195.5 c 128,-1,39
 68 197 68 197 58 199.5 c 128,-1,40
 48 202 48 202 42 205 c 1,41,-1
 40 244 l 1,42,43
 59 237 59 237 74.5 233 c 128,-1,44
 90 229 90 229 112 228 c 0,45,46
 147 227 147 227 166 241 c 128,-1,47
 185 255 185 255 185 278 c 0,48,49
 185 295 185 295 176.5 305 c 128,-1,50
 168 315 168 315 153.5 319.5 c 128,-1,51
 139 324 139 324 119.5 325 c 128,-1,52
 100 326 100 326 78 325 c 1,53,-1
 78 373 l 1,54,-1
 78 373 l 1,0,1
EndSplineSet
EndChar
StartChar: acute
Encoding: 180 180 118
Width: 222
Flags: W
Fore
113 350 m 1,0,-1
 68 350 l 1,1,-1
 98 491 l 1,2,-1
 163 491 l 1,3,-1
 113 350 l 1,4,-1
 113 350 l 1,0,-1
EndSplineSet
EndChar
StartChar: mu
Encoding: 956 181 119
AltUni: 956
Width: 477
Flags: W
Fore
349 1 m 1,0,-1
 349 65 l 1,1,2
 340 52 340 52 329 39.5 c 128,-1,3
 318 27 318 27 303.5 16.5 c 128,-1,4
 289 6 289 6 271 -0.5 c 128,-1,5
 253 -7 253 -7 230 -7 c 0,6,7
 222 -7 222 -7 210 -6 c 128,-1,8
 198 -5 198 -5 184.5 0.5 c 128,-1,9
 171 6 171 6 157.5 16 c 128,-1,10
 144 26 144 26 132 44 c 1,11,-1
 130 -167 l 1,12,-1
 73 -167 l 1,13,-1
 73 348 l 1,14,-1
 132 348 l 1,15,-1
 132 180 l 2,16,17
 132 156 132 156 137.5 131 c 128,-1,18
 143 106 143 106 156 85 c 128,-1,19
 169 64 169 64 189.5 51 c 128,-1,20
 210 38 210 38 239 38 c 0,21,22
 261 38 261 38 281 47 c 128,-1,23
 301 56 301 56 315 71.5 c 128,-1,24
 329 87 329 87 337.5 106.5 c 128,-1,25
 346 126 346 126 346 147 c 2,26,-1
 346 348 l 1,27,-1
 406 348 l 1,28,-1
 406 86 l 2,29,30
 406 65 406 65 405.5 43.5 c 128,-1,31
 405 22 405 22 406 1 c 1,32,-1
 349 1 l 1,0,-1
EndSplineSet
EndChar
StartChar: paragraph
Encoding: 182 182 120
Width: 414
Flags: W
Fore
344 484 m 1,0,-1
 344 -37 l 1,1,-1
 291 -37 l 1,2,-1
 291 430 l 1,3,-1
 215 430 l 1,4,-1
 215 -37 l 1,5,-1
 186 -37 l 1,6,-1
 163 -37 l 1,7,-1
 163 215 l 1,8,9
 140 205 140 205 117 205.5 c 128,-1,10
 94 206 94 206 74 217 c 0,11,12
 54 229 54 229 43 249.5 c 128,-1,13
 32 270 32 270 29.5 294.5 c 128,-1,14
 27 319 27 319 33 346.5 c 128,-1,15
 39 374 39 374 55 400 c 0,16,17
 79 442 79 442 115 463.5 c 128,-1,18
 151 485 151 485 186 483 c 1,19,-1
 186 484 l 1,20,-1
 344 484 l 1,0,-1
EndSplineSet
EndChar
StartChar: periodcentered
Encoding: 183 183 121
Width: 265
Flags: W
Fore
208 237 m 256,0,1
 208 204 208 204 185 181 c 128,-1,2
 162 158 162 158 128 158 c 0,3,4
 96 158 96 158 72 181 c 128,-1,5
 48 204 48 204 48 237 c 0,6,7
 48 253 48 253 54.5 268 c 128,-1,8
 61 283 61 283 72 293.5 c 128,-1,9
 83 304 83 304 97.5 310.5 c 128,-1,10
 112 317 112 317 128 317 c 0,11,12
 162 317 162 317 185 293.5 c 128,-1,13
 208 270 208 270 208 237 c 256,0,1
EndSplineSet
EndChar
StartChar: cedilla
Encoding: 184 184 122
Width: 268
Flags: W
Fore
207 -59 m 256,0,1
 210 -70 210 -70 205.5 -82 c 128,-1,2
 201 -94 201 -94 191 -104.5 c 128,-1,3
 181 -115 181 -115 167 -123 c 128,-1,4
 153 -131 153 -131 136 -134 c 0,5,6
 115 -138 115 -138 92.5 -135.5 c 128,-1,7
 70 -133 70 -133 58 -127 c 1,8,-1
 63 -108 l 1,9,10
 74 -113 74 -113 92.5 -112 c 128,-1,11
 111 -111 111 -111 122 -108 c 0,12,13
 136 -104 136 -104 149.5 -94 c 128,-1,14
 163 -84 163 -84 162 -70 c 0,15,16
 161 -63 161 -63 154.5 -59 c 128,-1,17
 148 -55 148 -55 139.5 -54 c 128,-1,18
 131 -53 131 -53 121.5 -54 c 128,-1,19
 112 -55 112 -55 104 -56 c 1,20,21
 99 -58 99 -58 86 -61 c 128,-1,22
 73 -64 73 -64 68 -67 c 1,23,-1
 68 -66 l 1,24,-1
 68 -67 l 1,25,-1
 68 -66 l 1,26,-1
 69 -64 l 1,27,-1
 72 -61 l 1,28,-1
 113 5 l 1,29,-1
 163 5 l 1,30,-1
 135 -32 l 1,31,32
 145 -31 145 -31 156.5 -31 c 128,-1,33
 168 -31 168 -31 178.5 -33.5 c 128,-1,34
 189 -36 189 -36 196.5 -42 c 128,-1,35
 204 -48 204 -48 207 -59 c 256,0,1
EndSplineSet
EndChar
StartChar: onesuperior
Encoding: 185 185 123
Width: 186
Flags: W
Fore
80 432 m 1,0,-1
 51 415 l 1,1,-1
 51 452 l 1,2,-1
 85 471 l 1,3,-1
 122 471 l 1,4,-1
 122 191 l 1,5,-1
 79 191 l 1,6,-1
 80 432 l 1,7,-1
 80 432 l 1,0,-1
EndSplineSet
EndChar
StartChar: ordmasculine
Encoding: 186 186 124
Width: 307
Flags: W
Fore
26 343 m 0,0,1
 26 371 26 371 44.5 390 c 128,-1,2
 63 409 63 409 90.5 418.5 c 128,-1,3
 118 428 118 428 150.5 428 c 128,-1,4
 183 428 183 428 210.5 418.5 c 128,-1,5
 238 409 238 409 256.5 390.5 c 128,-1,6
 275 372 275 372 275 343 c 2,7,-1
 275 272 l 2,8,9
 275 243 275 243 256.5 224.5 c 128,-1,10
 238 206 238 206 210.5 196 c 128,-1,11
 183 186 183 186 151 186 c 128,-1,12
 119 186 119 186 91.5 195.5 c 128,-1,13
 64 205 64 205 45 224.5 c 128,-1,14
 26 244 26 244 26 272 c 0,15,16
 25 287 25 287 25.5 307 c 128,-1,17
 26 327 26 327 26 343 c 0,0,1
69 332 m 0,18,19
 69 329 69 329 69 322 c 128,-1,20
 69 315 69 315 68.5 307.5 c 128,-1,21
 68 300 68 300 68 292.5 c 128,-1,22
 68 285 68 285 68 281 c 0,23,24
 68 249 68 249 93.5 233 c 128,-1,25
 119 217 119 217 150 217 c 128,-1,26
 181 217 181 217 206.5 232.5 c 128,-1,27
 232 248 232 248 232 281 c 2,28,-1
 232 332 l 2,29,30
 232 367 232 367 206.5 383.5 c 128,-1,31
 181 400 181 400 150.5 399.5 c 128,-1,32
 120 399 120 399 94.5 382 c 128,-1,33
 69 365 69 365 69 332 c 0,18,19
EndSplineSet
EndChar
StartChar: guillemotright
Encoding: 187 187 125
Width: 414
Flags: W
Fore
314 182 m 1,0,1
 303 186 303 186 284.5 199 c 128,-1,2
 266 212 266 212 245.5 229.5 c 128,-1,3
 225 247 225 247 205 267 c 128,-1,4
 185 287 185 287 173 305 c 1,5,-1
 228 305 l 1,6,7
 244 285 244 285 264.5 265.5 c 128,-1,8
 285 246 285 246 306 229.5 c 128,-1,9
 327 213 327 213 348.5 201 c 128,-1,10
 370 189 370 189 389 184 c 1,11,12
 351 167 351 167 307 135 c 128,-1,13
 263 103 263 103 230 57 c 1,14,-1
 173 57 l 1,15,16
 188 79 188 79 208 100 c 128,-1,17
 228 121 228 121 248 137.5 c 128,-1,18
 268 154 268 154 285.5 166 c 128,-1,19
 303 178 303 178 314 182 c 1,0,1
154 182 m 1,20,21
 143 186 143 186 124.5 199 c 128,-1,22
 106 212 106 212 85.5 229.5 c 128,-1,23
 65 247 65 247 45 267 c 128,-1,24
 25 287 25 287 13 305 c 1,25,-1
 68 305 l 1,26,27
 84 285 84 285 104.5 265.5 c 128,-1,28
 125 246 125 246 146 229.5 c 128,-1,29
 167 213 167 213 188.5 201 c 128,-1,30
 210 189 210 189 229 184 c 1,31,32
 191 167 191 167 147 135 c 128,-1,33
 103 103 103 103 70 57 c 1,34,-1
 13 57 l 1,35,36
 28 79 28 79 48 100 c 128,-1,37
 68 121 68 121 88 137.5 c 128,-1,38
 108 154 108 154 125.5 166 c 128,-1,39
 143 178 143 178 154 182 c 1,20,21
EndSplineSet
EndChar
StartChar: onequarter
Encoding: 188 188 126
Width: 602
Flags: W
Fore
443 240 m 1,0,1
 444 241 444 241 444 241.5 c 128,-1,2
 444 242 444 242 445 243 c 1,3,-1
 444 245 l 1,4,5
 443 243 443 243 443 240 c 1,0,1
446 243 m 1,6,-1
 445 243 l 1,7,-1
 446 244 l 1,8,-1
 446 243 l 1,6,-1
98 439 m 1,9,-1
 69 422 l 1,10,-1
 69 459 l 1,11,-1
 103 478 l 1,12,-1
 140 478 l 1,13,-1
 140 198 l 1,14,-1
 97 198 l 1,15,-1
 98 439 l 1,9,-1
531 104 m 1,16,-1
 531 63 l 1,17,-1
 498 63 l 1,18,19
 498 58 498 58 497.5 44 c 128,-1,20
 497 30 497 30 498 5 c 1,21,-1
 456 5 l 1,22,23
 456 27 456 27 456 35.5 c 128,-1,24
 456 44 456 44 456 46.5 c 128,-1,25
 456 49 456 49 456 51 c 128,-1,26
 456 53 456 53 456 63 c 1,27,-1
 307 63 l 1,28,-1
 307 98 l 1,29,30
 340 149 340 149 372 197 c 128,-1,31
 404 245 404 245 429 285 c 1,32,-1
 499 285 l 1,33,34
 499 262 499 262 498.5 235.5 c 128,-1,35
 498 209 498 209 498 183.5 c 128,-1,36
 498 158 498 158 498 137 c 128,-1,37
 498 116 498 116 498 104 c 1,38,-1
 531 104 l 1,16,-1
456 104 m 1,39,40
 455 142 455 142 456.5 184.5 c 128,-1,41
 458 227 458 227 457 262 c 1,42,-1
 354 104 l 1,43,-1
 456 104 l 1,39,40
427 481 m 1,44,-1
 136 -4 l 1,45,-1
 91 -4 l 1,46,-1
 381 481 l 1,47,-1
 427 481 l 1,44,-1
EndSplineSet
Ligature: 0 0 'frac' one fraction four
Ligature: 0 0 'frac' one slash four
EndChar
StartChar: onehalf
Encoding: 189 189 127
Width: 602
Flags: W
Fore
390 49 m 1,0,1
 406 49 406 49 427.5 49 c 128,-1,2
 449 49 449 49 470 49 c 128,-1,3
 491 49 491 49 508.5 49 c 128,-1,4
 526 49 526 49 535 49 c 1,5,-1
 535 14 l 1,6,-1
 526 14 l 1,7,-1
 526 13 l 1,8,-1
 341 13 l 1,9,-1
 341 14 l 1,10,-1
 330 14 l 1,11,-1
 330 49 l 1,12,-1
 440 147 l 2,13,14
 455 162 455 162 465 175.5 c 128,-1,15
 475 189 475 189 484 201 c 0,16,17
 503 226 503 226 499 243 c 128,-1,18
 495 260 495 260 482 266 c 0,19,20
 470 272 470 272 458 272 c 128,-1,21
 446 272 446 272 439 272 c 0,22,23
 427 272 427 272 409 265.5 c 128,-1,24
 391 259 391 259 374 249 c 0,25,26
 364 243 364 243 354 235 c 1,27,-1
 354 237 l 1,28,29
 351 235 351 235 348 233.5 c 128,-1,30
 345 232 345 232 343 230 c 1,31,-1
 343 265 l 1,32,33
 369 287 369 287 395.5 296 c 128,-1,34
 422 305 422 305 442 305 c 0,35,36
 480 305 480 305 509 291 c 128,-1,37
 538 277 538 277 540 241 c 0,38,39
 541 228 541 228 534.5 208 c 128,-1,40
 528 188 528 188 499 154 c 0,41,42
 494 148 494 148 482.5 136.5 c 128,-1,43
 471 125 471 125 456.5 111 c 128,-1,44
 442 97 442 97 427 83.5 c 128,-1,45
 412 70 412 70 402 61 c 1,46,47
 396 53 396 53 390 49 c 1,0,1
86 431 m 1,48,-1
 57 414 l 1,49,-1
 57 451 l 1,50,-1
 91 470 l 1,51,-1
 128 470 l 1,52,-1
 128 190 l 1,53,-1
 85 190 l 1,54,-1
 86 431 l 1,48,-1
417 475 m 1,55,-1
 126 -10 l 1,56,-1
 81 -10 l 1,57,-1
 371 475 l 1,58,-1
 417 475 l 1,55,-1
EndSplineSet
Ligature: 0 0 'frac' one fraction two
Ligature: 0 0 'frac' one slash two
EndChar
StartChar: threequarters
Encoding: 190 190 128
Width: 602
Flags: W
Fore
226 323 m 0,0,1
 248 303 248 303 249.5 277.5 c 128,-1,2
 251 252 251 252 236 230.5 c 128,-1,3
 221 209 221 209 191.5 196 c 128,-1,4
 162 183 162 183 123 188 c 0,5,6
 118 188 118 188 109.5 188.5 c 128,-1,7
 101 189 101 189 91.5 190.5 c 128,-1,8
 82 192 82 192 72 194.5 c 128,-1,9
 62 197 62 197 56 200 c 1,10,-1
 54 239 l 1,11,12
 72 232 72 232 88 228 c 128,-1,13
 104 224 104 224 126 223 c 0,14,15
 161 222 161 222 180 236 c 128,-1,16
 199 250 199 250 199 273 c 0,17,18
 199 290 199 290 190.5 300 c 128,-1,19
 182 310 182 310 167.5 314.5 c 128,-1,20
 153 319 153 319 133.5 320 c 128,-1,21
 114 321 114 321 92 320 c 1,22,-1
 92 368 l 1,23,24
 109 368 109 368 112 369 c 2,25,26
 124 370 124 370 140 373.5 c 128,-1,27
 156 377 156 377 167 382 c 0,28,29
 186 390 186 390 192 402.5 c 128,-1,30
 198 415 198 415 185 428 c 0,31,32
 176 437 176 437 159 440.5 c 128,-1,33
 142 444 142 444 124 444 c 0,34,35
 104 443 104 443 90.5 439 c 128,-1,36
 77 435 77 435 60 430 c 1,37,-1
 62 465 l 1,38,39
 80 470 80 470 92 472.5 c 128,-1,40
 104 475 104 475 118 476 c 0,41,42
 133 478 133 478 151.5 477 c 128,-1,43
 170 476 170 476 181 472 c 0,44,45
 200 466 200 466 218 454 c 128,-1,46
 236 442 236 442 239 418 c 0,47,48
 243 386 243 386 218 369.5 c 128,-1,49
 193 353 193 353 157 346 c 1,50,-1
 157 345 l 1,51,52
 175 345 175 345 195.5 338 c 128,-1,53
 216 331 216 331 226 323 c 0,0,1
542 104 m 1,54,-1
 542 63 l 1,55,-1
 509 63 l 1,56,57
 509 58 509 58 508.5 44 c 128,-1,58
 508 30 508 30 509 5 c 1,59,-1
 467 5 l 1,60,61
 467 27 467 27 467 35.5 c 128,-1,62
 467 44 467 44 467 46.5 c 128,-1,63
 467 49 467 49 467 51 c 128,-1,64
 467 53 467 53 467 63 c 1,65,-1
 318 63 l 1,66,-1
 318 98 l 1,67,68
 351 149 351 149 383 197 c 128,-1,69
 415 245 415 245 440 285 c 1,70,-1
 510 285 l 1,71,72
 510 262 510 262 509.5 235.5 c 128,-1,73
 509 209 509 209 509 183.5 c 128,-1,74
 509 158 509 158 509 137 c 128,-1,75
 509 116 509 116 509 104 c 1,76,-1
 542 104 l 1,54,-1
467 104 m 1,77,78
 466 142 466 142 467.5 184.5 c 128,-1,79
 469 227 469 227 468 262 c 1,80,-1
 365 104 l 1,81,-1
 467 104 l 1,77,78
486 477 m 1,82,-1
 195 -8 l 1,83,-1
 150 -8 l 1,84,-1
 440 477 l 1,85,-1
 486 477 l 1,82,-1
EndSplineSet
Ligature: 0 0 'frac' three fraction four
Ligature: 0 0 'frac' three slash four
EndChar
StartChar: questiondown
Encoding: 191 191 129
Width: 420
Flags: W
Fore
214 -23 m 0,0,1
 218 -7 218 -7 227.5 7.5 c 128,-1,2
 237 22 237 22 249.5 33 c 128,-1,3
 262 44 262 44 277 49.5 c 128,-1,4
 292 55 292 55 308 52 c 0,5,6
 322 50 322 50 332.5 39 c 128,-1,7
 343 28 343 28 350 13 c 128,-1,8
 357 -2 357 -2 358.5 -20 c 128,-1,9
 360 -38 360 -38 356 -54 c 0,10,11
 354 -66 354 -66 351.5 -73.5 c 128,-1,12
 349 -81 349 -81 344 -89 c 0,13,14
 327 -115 327 -115 306 -129.5 c 128,-1,15
 285 -144 285 -144 248 -153 c 0,16,17
 195 -162 195 -162 152.5 -146 c 128,-1,18
 110 -130 110 -130 85.5 -98.5 c 128,-1,19
 61 -67 61 -67 59.5 -25.5 c 128,-1,20
 58 16 58 16 88 56 c 0,21,22
 97 68 97 68 109 77.5 c 128,-1,23
 121 87 121 87 133 97 c 128,-1,24
 145 107 145 107 155.5 118 c 128,-1,25
 166 129 166 129 171 143 c 0,26,27
 176 158 176 158 178.5 171.5 c 128,-1,28
 181 185 181 185 182 195 c 0,29,30
 183 206 183 206 182 216 c 1,31,-1
 241 217 l 1,32,33
 243 207 243 207 243 195 c 0,34,35
 243 184 243 184 240.5 169 c 128,-1,36
 238 154 238 154 230 134 c 0,37,38
 224 118 224 118 210.5 103.5 c 128,-1,39
 197 89 197 89 183 77 c 0,40,41
 167 63 167 63 149 51 c 1,42,43
 119 22 119 22 113.5 -8.5 c 128,-1,44
 108 -39 108 -39 119 -64.5 c 128,-1,45
 130 -90 130 -90 154 -106.5 c 128,-1,46
 178 -123 178 -123 207 -123 c 0,47,48
 216 -123 216 -123 231 -121.5 c 128,-1,49
 246 -120 246 -120 257 -114 c 1,50,51
 246 -110 246 -110 236.5 -103.5 c 128,-1,52
 227 -97 227 -97 221 -86.5 c 128,-1,53
 215 -76 215 -76 213 -61 c 128,-1,54
 211 -46 211 -46 214 -23 c 0,0,1
314 -47 m 0,55,56
 316 -38 316 -38 317 -27 c 128,-1,57
 318 -16 318 -16 316.5 -6 c 128,-1,58
 315 4 315 4 311.5 11 c 128,-1,59
 308 18 308 18 301 20 c 0,60,61
 295 21 295 21 288 17 c 128,-1,62
 281 13 281 13 274.5 6 c 128,-1,63
 268 -1 268 -1 263 -10 c 128,-1,64
 258 -19 258 -19 256 -28 c 0,65,66
 251 -46 251 -46 253.5 -65 c 128,-1,67
 256 -84 256 -84 270 -89 c 0,68,69
 284 -93 284 -93 296.5 -78.5 c 128,-1,70
 309 -64 309 -64 314 -47 c 0,55,56
211 261 m 1,71,72
 196 259 196 259 186 272 c 128,-1,73
 176 285 176 285 176 305 c 0,74,75
 176 324 176 324 186 337.5 c 128,-1,76
 196 351 196 351 211 351 c 0,77,78
 228 351 228 351 238.5 337.5 c 128,-1,79
 249 324 249 324 248 305 c 0,80,81
 248 285 248 285 237 272 c 128,-1,82
 226 259 226 259 211 261 c 1,71,72
EndSplineSet
EndChar
StartChar: Aring
Encoding: 197 197 134
Width: 521
Flags: W
Fore
359 383 m 0,0,1
 383 286 383 286 407.5 191 c 128,-1,2
 432 96 432 96 460 0 c 1,3,-1
 409 0 l 1,4,-1
 369 144 l 1,5,-1
 149 144 l 1,6,-1
 114 0 l 1,7,-1
 62 0 l 1,8,-1
 151 363 l 2,9,10
 157 383 157 383 163.5 401.5 c 128,-1,11
 170 420 170 420 178.5 435 c 128,-1,12
 187 450 187 450 198.5 461.5 c 128,-1,13
 210 473 210 473 227 478 c 1,14,15
 206 488 206 488 193 508 c 128,-1,16
 180 528 180 528 180 552 c 0,17,18
 181 585 181 585 204 607.5 c 128,-1,19
 227 630 227 630 259 630 c 0,20,21
 274 630 274 630 288 624 c 128,-1,22
 302 618 302 618 313 607 c 128,-1,23
 324 596 324 596 330.5 581.5 c 128,-1,24
 337 567 337 567 337 551 c 0,25,26
 338 526 338 526 323.5 506 c 128,-1,27
 309 486 309 486 288 477 c 1,28,29
 320 466 320 466 335.5 439 c 128,-1,30
 351 412 351 412 359 383 c 0,0,1
259 601 m 0,31,32
 241 600 241 600 231 584.5 c 128,-1,33
 221 569 221 569 222 552 c 0,34,35
 222 533 222 533 231 516 c 128,-1,36
 240 499 240 499 259 498 c 0,37,38
 277 498 277 498 286.5 515 c 128,-1,39
 296 532 296 532 296 552 c 0,40,41
 297 569 297 569 287 584.5 c 128,-1,42
 277 600 277 600 259 601 c 0,31,32
359 184 m 1,43,-1
 317 346 l 2,44,45
 310 365 310 365 305 380 c 128,-1,46
 300 395 300 395 294 408 c 0,47,48
 287 425 287 425 276.5 433 c 128,-1,49
 266 441 266 441 255.5 440.5 c 128,-1,50
 245 440 245 440 235.5 432 c 128,-1,51
 226 424 226 424 221 410 c 0,52,53
 217 400 217 400 214.5 392.5 c 128,-1,54
 212 385 212 385 210 378 c 128,-1,55
 208 371 208 371 206.5 363.5 c 128,-1,56
 205 356 205 356 202 346 c 2,57,-1
 160 184 l 1,58,-1
 359 184 l 1,43,-1
EndSplineSet
EndChar
StartChar: AE
Encoding: 198 198 135
Width: 759
Flags: W
Fore
573 439 m 2,0,1
 547 439 547 439 524 436 c 128,-1,2
 501 433 501 433 483 423.5 c 128,-1,3
 465 414 465 414 454 394.5 c 128,-1,4
 443 375 443 375 440 341 c 2,5,-1
 441 261 l 1,6,-1
 635 261 l 1,7,-1
 635 214 l 1,8,-1
 441 214 l 1,9,-1
 441 173 l 2,10,11
 439 137 439 137 448 114 c 128,-1,12
 457 91 457 91 475 78 c 128,-1,13
 493 65 493 65 518.5 59.5 c 128,-1,14
 544 54 544 54 573 53 c 2,15,-1
 711 53 l 1,16,-1
 711 1 l 1,17,-1
 575 1 l 2,18,19
 528 2 528 2 489.5 11.5 c 128,-1,20
 451 21 451 21 427 54 c 1,21,-1
 427 1 l 1,22,-1
 375 1 l 1,23,-1
 375 157 l 1,24,-1
 150 157 l 1,25,-1
 69 1 l 1,26,-1
 12 1 l 1,27,-1
 201 372 l 2,28,29
 212 395 212 395 224.5 417 c 128,-1,30
 237 439 237 439 253.5 456.5 c 128,-1,31
 270 474 270 474 291 484.5 c 128,-1,32
 312 495 312 495 339 495 c 0,33,34
 354 495 354 495 368 490 c 128,-1,35
 382 485 382 485 393 476.5 c 128,-1,36
 404 468 404 468 412 457 c 128,-1,37
 420 446 420 446 422 435 c 1,38,39
 445 468 445 468 486.5 479 c 128,-1,40
 528 490 528 490 575 491 c 2,41,-1
 711 491 l 1,42,-1
 711 439 l 1,43,-1
 573 439 l 2,0,1
376 355 m 2,44,45
 376 366 376 366 376 372.5 c 128,-1,46
 376 379 376 379 376.5 385 c 128,-1,47
 377 391 377 391 376.5 397.5 c 128,-1,48
 376 404 376 404 374 414 c 0,49,50
 372 432 372 432 360 439.5 c 128,-1,51
 348 447 348 447 332.5 446 c 128,-1,52
 317 445 317 445 301.5 436.5 c 128,-1,53
 286 428 286 428 277 413 c 0,54,55
 271 403 271 403 267.5 397 c 128,-1,56
 264 391 264 391 261.5 385 c 128,-1,57
 259 379 259 379 256 372 c 128,-1,58
 253 365 253 365 247 355 c 2,59,-1
 175 204 l 1,60,-1
 376 205 l 1,61,-1
 376 355 l 2,44,45
EndSplineSet
EndChar
StartChar: Eth
Encoding: 208 208 145
Width: 533
Flags: W
Fore
67 483 m 1,0,1
 114 483 114 483 160.5 481.5 c 128,-1,2
 207 480 207 480 250 473 c 128,-1,3
 293 466 293 466 330 450.5 c 128,-1,4
 367 435 367 435 394 408 c 128,-1,5
 421 381 421 381 437 339.5 c 128,-1,6
 453 298 453 298 454 239 c 0,7,8
 453 173 453 173 435.5 129 c 128,-1,9
 418 85 418 85 389 58 c 128,-1,10
 360 31 360 31 321.5 17.5 c 128,-1,11
 283 4 283 4 240 -1 c 128,-1,12
 197 -6 197 -6 152.5 -6 c 128,-1,13
 108 -6 108 -6 67 -6 c 1,14,-1
 67 210 l 1,15,-1
 0 210 l 1,16,-1
 0 257 l 1,17,-1
 67 257 l 1,18,-1
 67 483 l 1,0,1
126 39 m 1,19,20
 204 36 204 36 255 45.5 c 128,-1,21
 306 55 306 55 336 79 c 128,-1,22
 366 103 366 103 379 142.5 c 128,-1,23
 392 182 392 182 394 239 c 256,24,25
 396 296 396 296 381.5 335 c 128,-1,26
 367 374 367 374 335 397 c 128,-1,27
 303 420 303 420 251 429.5 c 128,-1,28
 199 439 199 439 126 438 c 1,29,-1
 126 257 l 1,30,-1
 267 257 l 1,31,-1
 267 210 l 1,32,-1
 126 210 l 1,33,-1
 126 39 l 1,19,20
EndSplineSet
EndChar
StartChar: multiply
Encoding: 215 215 152
Width: 450
Flags: W
Fore
367 -4 m 1,0,-1
 218 151 l 1,1,2
 196 128 196 128 177 108.5 c 128,-1,3
 158 89 158 89 140 71.5 c 128,-1,4
 122 54 122 54 105 36.5 c 128,-1,5
 88 19 88 19 70 0 c 1,6,-1
 23 24 l 1,7,-1
 184 185 l 1,8,-1
 23 355 l 1,9,-1
 68 379 l 1,10,-1
 223 215 l 1,11,-1
 382 377 l 1,12,-1
 422 350 l 1,13,-1
 254 182 l 1,14,-1
 412 20 l 1,15,-1
 367 -4 l 1,0,-1
EndSplineSet
EndChar
StartChar: Oslash
Encoding: 216 216 153
Width: 513
Flags: W
Fore
386 451 m 1,0,1
 412 436 412 436 427.5 413 c 128,-1,2
 443 390 443 390 443 360 c 2,3,-1
 443 114 l 2,4,5
 443 84 443 84 426.5 61 c 128,-1,6
 410 38 410 38 383 22.5 c 128,-1,7
 356 7 356 7 321 -1 c 128,-1,8
 286 -9 286 -9 250 -10 c 0,9,10
 227 -10 227 -10 206.5 -6.5 c 128,-1,11
 186 -3 186 -3 168 3 c 1,12,-1
 154 -25 l 1,13,-1
 93 -25 l 1,14,-1
 119 28 l 1,15,16
 68 64 68 64 68 114 c 2,17,-1
 68 360 l 2,18,19
 68 393 68 393 87 417.5 c 128,-1,20
 106 442 106 442 135.5 457.5 c 128,-1,21
 165 473 165 473 201 480 c 128,-1,22
 237 487 237 487 270 485 c 0,23,24
 287 483 287 483 303.5 480.5 c 128,-1,25
 320 478 320 478 336 473 c 1,26,-1
 348 497 l 1,27,-1
 408 497 l 1,28,-1
 386 451 l 1,0,1
126 127 m 2,29,30
 126 110 126 110 130 97 c 128,-1,31
 134 84 134 84 141 74 c 1,32,-1
 318 435 l 1,33,34
 290 442 290 442 255 442 c 0,35,36
 231 442 231 442 208 437.5 c 128,-1,37
 185 433 185 433 167 422 c 128,-1,38
 149 411 149 411 137.5 393 c 128,-1,39
 126 375 126 375 126 347 c 2,40,-1
 126 127 l 2,29,30
385 347 m 2,41,42
 385 384 385 384 364 407 c 1,43,-1
 187 42 l 1,44,45
 202 37 202 37 219.5 34.5 c 128,-1,46
 237 32 237 32 255 32 c 0,47,48
 279 32 279 32 302.5 36.5 c 128,-1,49
 326 41 326 41 344.5 51.5 c 128,-1,50
 363 62 363 62 374 80.5 c 128,-1,51
 385 99 385 99 385 127 c 2,52,-1
 385 347 l 2,41,42
EndSplineSet
EndChar
StartChar: Thorn
Encoding: 222 222 159
Width: 478
Flags: W
Fore
237 418 m 0,0,1
 288 417 288 417 323.5 400.5 c 128,-1,2
 359 384 359 384 381 356.5 c 128,-1,3
 403 329 403 329 412 293.5 c 128,-1,4
 421 258 421 258 419 220 c 0,5,6
 417 190 417 190 404 161.5 c 128,-1,7
 391 133 391 133 368.5 111.5 c 128,-1,8
 346 90 346 90 316 77 c 128,-1,9
 286 64 286 64 252 64 c 0,10,11
 223 64 223 64 203 68 c 128,-1,12
 183 72 183 72 169 78 c 128,-1,13
 155 84 155 84 144 91.5 c 128,-1,14
 133 99 133 99 121 107 c 1,15,-1
 121 4 l 1,16,-1
 68 4 l 1,17,-1
 68 478 l 1,18,-1
 121 478 l 1,19,-1
 121 372 l 1,20,21
 130 385 130 385 146 394 c 128,-1,22
 162 403 162 403 180 408.5 c 128,-1,23
 198 414 198 414 213.5 416.5 c 128,-1,24
 229 419 229 419 237 418 c 0,0,1
360 223 m 0,25,26
 363 252 363 252 357 278 c 128,-1,27
 351 304 351 304 336 324.5 c 128,-1,28
 321 345 321 345 296.5 359 c 128,-1,29
 272 373 272 373 238 377 c 0,30,31
 226 378 226 378 210 374 c 128,-1,32
 194 370 194 370 177.5 362 c 128,-1,33
 161 354 161 354 146 341.5 c 128,-1,34
 131 329 131 329 121 313 c 1,35,-1
 121 156 l 1,36,37
 144 134 144 134 173 118.5 c 128,-1,38
 202 103 202 103 245 105 c 0,39,40
 296 107 296 107 325.5 139.5 c 128,-1,41
 355 172 355 172 360 223 c 0,25,26
EndSplineSet
EndChar
StartChar: uni00DF
Encoding: 223 223 160
Width: 541
Flags: W
Fore
314 289 m 1,0,1
 332 285 332 285 358.5 279 c 128,-1,2
 385 273 385 273 410 258 c 128,-1,3
 435 243 435 243 453 216 c 128,-1,4
 471 189 471 189 471 143 c 0,5,6
 471 93 471 93 450 64.5 c 128,-1,7
 429 36 429 36 399 21 c 128,-1,8
 369 6 369 6 336.5 2 c 128,-1,9
 304 -2 304 -2 281 -2 c 2,10,-1
 203 -2 l 1,11,-1
 203 44 l 1,12,-1
 288 44 l 2,13,14
 308 44 308 44 329.5 48 c 128,-1,15
 351 52 351 52 368.5 63 c 128,-1,16
 386 74 386 74 397.5 94 c 128,-1,17
 409 114 409 114 409 146 c 0,18,19
 409 176 409 176 396 196.5 c 128,-1,20
 383 217 383 217 363.5 229.5 c 128,-1,21
 344 242 344 242 321 248 c 128,-1,22
 298 254 298 254 279 256 c 2,23,-1
 229 256 l 1,24,-1
 229 319 l 1,25,-1
 279 322 l 2,26,27
 294 322 294 322 308 326.5 c 128,-1,28
 322 331 322 331 333 339.5 c 128,-1,29
 344 348 344 348 351.5 359 c 128,-1,30
 359 370 359 370 359 384 c 0,31,32
 360 415 360 415 339.5 427 c 128,-1,33
 319 439 319 439 288 438 c 2,34,-1
 209 438 l 2,35,36
 171 439 171 439 154 422.5 c 128,-1,37
 137 406 137 406 137 357 c 0,38,39
 137 312 137 312 137 264 c 128,-1,40
 137 216 137 216 137.5 174 c 128,-1,41
 138 132 138 132 138 100.5 c 128,-1,42
 138 69 138 69 138 57 c 0,43,44
 140 16 140 16 135 -11.5 c 128,-1,45
 130 -39 130 -39 115.5 -55.5 c 128,-1,46
 101 -72 101 -72 77.5 -78.5 c 128,-1,47
 54 -85 54 -85 18 -85 c 2,48,-1
 3 -85 l 1,49,-1
 3 -45 l 1,50,-1
 18 -45 l 2,51,52
 48 -45 48 -45 61.5 -36 c 128,-1,53
 75 -27 75 -27 78.5 -13 c 128,-1,54
 82 1 82 1 80 18.5 c 128,-1,55
 78 36 78 36 78 55 c 2,56,-1
 77 360 l 2,57,58
 78 368 78 368 80.5 388 c 128,-1,59
 83 408 83 408 93 429 c 128,-1,60
 103 450 103 450 123.5 466.5 c 128,-1,61
 144 483 144 483 182 483 c 2,62,-1
 289 483 l 2,63,64
 311 483 311 483 334 479 c 128,-1,65
 357 475 357 475 375.5 464.5 c 128,-1,66
 394 454 394 454 405.5 435 c 128,-1,67
 417 416 417 416 418 386 c 0,68,69
 418 360 418 360 408 343.5 c 128,-1,70
 398 327 398 327 382.5 316.5 c 128,-1,71
 367 306 367 306 348.5 299.5 c 128,-1,72
 330 293 330 293 314 289 c 1,0,1
EndSplineSet
EndChar
StartChar: ae
Encoding: 230 230 167
Width: 681
Flags: W
Fore
393 46 m 0,0,1
 413 34 413 34 442.5 29.5 c 128,-1,2
 472 25 472 25 502 28.5 c 128,-1,3
 532 32 532 32 556.5 46 c 128,-1,4
 581 60 581 60 592 86 c 1,5,-1
 629 65 l 1,6,7
 613 32 613 32 579 14.5 c 128,-1,8
 545 -3 545 -3 505 -7.5 c 128,-1,9
 465 -12 465 -12 426 -5 c 128,-1,10
 387 2 387 2 361 17 c 0,11,12
 360 18 360 18 355 21.5 c 128,-1,13
 350 25 350 25 344 30 c 128,-1,14
 338 35 338 35 332.5 40.5 c 128,-1,15
 327 46 327 46 325 51 c 1,16,17
 325 52 325 52 323 48.5 c 128,-1,18
 321 45 321 45 313 37 c 0,19,20
 291 14 291 14 247 -1.5 c 128,-1,21
 203 -17 203 -17 144 -6 c 0,22,23
 125 -2 125 -2 107 5.5 c 128,-1,24
 89 13 89 13 74.5 24.5 c 128,-1,25
 60 36 60 36 51.5 51.5 c 128,-1,26
 43 67 43 67 43 87 c 0,27,28
 43 121 43 121 60 140.5 c 128,-1,29
 77 160 77 160 102.5 171 c 128,-1,30
 128 182 128 182 158.5 187.5 c 128,-1,31
 189 193 189 193 215 199 c 0,32,33
 224 201 224 201 238 204.5 c 128,-1,34
 252 208 252 208 266 214 c 128,-1,35
 280 220 280 220 290 228 c 128,-1,36
 300 236 300 236 300 247 c 0,37,38
 300 274 300 274 268 297 c 0,39,40
 250 310 250 310 224.5 314 c 128,-1,41
 199 318 199 318 170.5 315 c 128,-1,42
 142 312 142 312 114 303 c 128,-1,43
 86 294 86 294 64 283 c 1,44,-1
 80 325 l 1,45,46
 105 337 105 337 133 343.5 c 128,-1,47
 161 350 161 350 189.5 350.5 c 128,-1,48
 218 351 218 351 245 345.5 c 128,-1,49
 272 340 272 340 295 329 c 0,50,51
 319 318 319 318 332 296 c 1,52,53
 346 313 346 313 369 326 c 0,54,55
 388 337 388 337 414 342.5 c 128,-1,56
 440 348 440 348 468.5 347.5 c 128,-1,57
 497 347 497 347 524.5 340 c 128,-1,58
 552 333 552 333 575 320 c 0,59,60
 597 307 597 307 613 286.5 c 128,-1,61
 629 266 629 266 631 239 c 0,62,63
 632 210 632 210 626 191.5 c 128,-1,64
 620 173 620 173 602 163.5 c 128,-1,65
 584 154 584 154 552.5 151 c 128,-1,66
 521 148 521 148 472 150 c 2,67,-1
 355 150 l 1,68,-1
 355 94 l 1,69,70
 360 77 360 77 368 67 c 128,-1,71
 376 57 376 57 393 46 c 0,0,1
393 292 m 0,72,73
 376 281 376 281 368 271.5 c 128,-1,74
 360 262 360 262 355 244 c 1,75,-1
 355 241 l 1,76,-1
 355 187 l 1,77,-1
 472 187 l 2,78,79
 533 186 533 186 560 193.5 c 128,-1,80
 587 201 587 201 586 236 c 0,81,82
 585 247 585 247 573.5 265 c 128,-1,83
 562 283 562 283 547 293 c 0,84,85
 529 305 529 305 508.5 309.5 c 128,-1,86
 488 314 488 314 467.5 313 c 128,-1,87
 447 312 447 312 427.5 306.5 c 128,-1,88
 408 301 408 301 393 292 c 0,72,73
302 188 m 1,89,90
 282 177 282 177 261.5 171 c 128,-1,91
 241 165 241 165 218 161 c 0,92,93
 174 153 l 128,-1,94
 152 149 152 149 134 141.5 c 128,-1,95
 116 134 116 134 104.5 121.5 c 128,-1,96
 93 109 93 109 93 87 c 0,97,98
 93 60 93 60 109.5 46.5 c 128,-1,99
 126 33 126 33 152 30 c 0,100,101
 186 25 186 25 210.5 29.5 c 128,-1,102
 235 34 235 34 253 43 c 128,-1,103
 271 52 271 52 282.5 64 c 128,-1,104
 294 76 294 76 302 88 c 1,105,-1
 302 188 l 1,89,90
EndSplineSet
EndChar
StartChar: eth
Encoding: 240 240 177
Width: 497
Flags: W
Fore
422 205 m 0,0,1
 427 181 427 181 425 152.5 c 128,-1,2
 423 124 423 124 412 97.5 c 128,-1,3
 401 71 401 71 379 48.5 c 128,-1,4
 357 26 357 26 322 14 c 0,5,6
 309 9 309 9 286.5 6 c 128,-1,7
 264 3 264 3 238 3 c 128,-1,8
 212 3 212 3 186 8 c 128,-1,9
 160 13 160 13 140 24 c 0,10,11
 131 29 131 29 116.5 38.5 c 128,-1,12
 102 48 102 48 88 63 c 128,-1,13
 74 78 74 78 64 100 c 128,-1,14
 54 122 54 122 53 153 c 0,15,16
 52 181 52 181 60.5 202.5 c 128,-1,17
 69 224 69 224 81 239.5 c 128,-1,18
 93 255 93 255 106 264.5 c 128,-1,19
 119 274 119 274 127 278 c 0,20,21
 143 287 143 287 173 292.5 c 128,-1,22
 203 298 203 298 229 297 c 0,23,24
 269 295 269 295 303 280 c 128,-1,25
 337 265 337 265 357 253 c 1,26,27
 353 261 353 261 345 275.5 c 128,-1,28
 337 290 337 290 326.5 307 c 128,-1,29
 316 324 316 324 305 341 c 128,-1,30
 294 358 294 358 285 371 c 1,31,-1
 191 329 l 1,32,-1
 169 367 l 1,33,-1
 257 405 l 1,34,35
 240 429 240 429 225 447.5 c 128,-1,36
 210 466 210 466 187 490 c 1,37,-1
 243 490 l 1,38,39
 262 467 262 467 274.5 453 c 128,-1,40
 287 439 287 439 301 420 c 1,41,-1
 384 458 l 1,42,-1
 402 422 l 1,43,-1
 322 387 l 1,44,45
 345 360 345 360 364 330 c 0,46,47
 381 304 381 304 397.5 272 c 128,-1,48
 414 240 414 240 422 205 c 0,0,1
246 47 m 0,49,50
 284 46 284 46 308.5 55.5 c 128,-1,51
 333 65 333 65 347.5 80 c 128,-1,52
 362 95 362 95 368.5 113 c 128,-1,53
 375 131 375 131 377 148 c 128,-1,54
 379 165 379 165 377 178.5 c 128,-1,55
 375 192 375 192 374 197 c 1,56,57
 346 225 346 225 308.5 238 c 128,-1,58
 271 251 271 251 227 252 c 0,59,60
 195 253 195 253 168 244.5 c 128,-1,61
 141 236 141 236 124 216 c 0,62,63
 109 198 109 198 104 180 c 128,-1,64
 99 162 99 162 100.5 147 c 128,-1,65
 102 132 102 132 107.5 120 c 128,-1,66
 113 108 113 108 118 101 c 0,67,68
 131 82 131 82 148.5 71 c 128,-1,69
 166 60 166 60 183.5 55 c 128,-1,70
 201 50 201 50 217.5 48.5 c 128,-1,71
 234 47 234 47 246 47 c 0,49,50
EndSplineSet
EndChar
StartChar: divide
Encoding: 247 247 184
Width: 445
Flags: W
Fore
208 262 m 0,0,1
 191 262 191 262 180 277.5 c 128,-1,2
 169 293 169 293 169 315 c 256,3,4
 169 337 169 337 180.5 352.5 c 128,-1,5
 192 368 192 368 208 369 c 0,6,7
 225 368 225 368 237 352.5 c 128,-1,8
 249 337 249 337 248 315 c 0,9,10
 248 293 248 293 236 277.5 c 128,-1,11
 224 262 224 262 208 262 c 0,0,1
214 127 m 0,12,13
 231 126 231 126 243 110.5 c 128,-1,14
 255 95 255 95 254 73 c 0,15,16
 254 51 254 51 242 35.5 c 128,-1,17
 230 20 230 20 214 20 c 0,18,19
 197 20 197 20 186 35.5 c 128,-1,20
 175 51 175 51 175 73 c 256,21,22
 175 95 175 95 186.5 110.5 c 128,-1,23
 198 126 198 126 214 127 c 0,12,13
405 218 m 1,24,-1
 405 168 l 1,25,-1
 33 168 l 1,26,-1
 33 218 l 1,27,-1
 405 218 l 1,24,-1
EndSplineSet
EndChar
StartChar: oslash
Encoding: 248 248 185
Width: 426
Flags: W
Fore
370 221 m 0,0,1
 370 198 370 198 370 186.5 c 128,-1,2
 370 175 370 175 370 170 c 128,-1,3
 370 165 370 165 370 163 c 128,-1,4
 370 161 370 161 370 157 c 128,-1,5
 370 153 370 153 370 144 c 128,-1,6
 370 135 370 135 370 115 c 0,7,8
 370 77 370 77 349 50.5 c 128,-1,9
 328 24 328 24 296.5 9 c 128,-1,10
 265 -6 265 -6 227 -9 c 128,-1,11
 189 -12 189 -12 154 -3 c 1,12,-1
 143 -25 l 1,13,-1
 87 -25 l 1,14,-1
 107 16 l 1,15,16
 81 32 81 32 64 56.5 c 128,-1,17
 47 81 47 81 46 115 c 0,18,19
 46 124 46 124 45.5 140.5 c 128,-1,20
 45 157 45 157 45 174 c 128,-1,21
 45 191 45 191 44.5 205.5 c 128,-1,22
 44 220 44 220 44 225 c 0,23,24
 46 263 46 263 67.5 289 c 128,-1,25
 89 315 89 315 121 329 c 128,-1,26
 153 343 153 343 191.5 345.5 c 128,-1,27
 230 348 230 348 265 339 c 1,28,-1
 276 361 l 1,29,-1
 331 361 l 1,30,-1
 311 321 l 1,31,32
 337 305 337 305 353.5 280.5 c 128,-1,33
 370 256 370 256 370 221 c 0,0,1
248 304 m 1,34,35
 223 313 223 313 196 310.5 c 128,-1,36
 169 308 169 308 146.5 295 c 128,-1,37
 124 282 124 282 109.5 258 c 128,-1,38
 95 234 95 234 95 199 c 2,39,-1
 95 135 l 2,40,41
 95 109 95 109 103.5 89 c 128,-1,42
 112 69 112 69 126 55 c 1,43,-1
 248 304 l 1,34,35
169 29 m 1,44,45
 193 21 193 21 219.5 23.5 c 128,-1,46
 246 26 246 26 268.5 39.5 c 128,-1,47
 291 53 291 53 305.5 77 c 128,-1,48
 320 101 320 101 321 135 c 0,49,50
 321 150 321 150 321 153 c 128,-1,51
 321 156 321 156 321 158 c 128,-1,52
 321 160 321 160 320.5 167.5 c 128,-1,53
 320 175 320 175 320 198 c 0,54,55
 320 224 320 224 312 244 c 128,-1,56
 304 264 304 264 290 278 c 1,57,-1
 169 29 l 1,44,45
44 221 m 1,58,-1
 44 225 l 1,59,-1
 44 221 l 1,58,-1
EndSplineSet
EndChar
StartChar: thorn
Encoding: 254 254 191
Width: 485
Flags: W
Fore
237 344 m 0,0,1
 288 343 288 343 323.5 326.5 c 128,-1,2
 359 310 359 310 381 282.5 c 128,-1,3
 403 255 403 255 412 219.5 c 128,-1,4
 421 184 421 184 419 146 c 0,5,6
 417 116 417 116 404 87.5 c 128,-1,7
 391 59 391 59 368.5 37.5 c 128,-1,8
 346 16 346 16 316 3 c 128,-1,9
 286 -10 286 -10 252 -10 c 0,10,11
 223 -10 223 -10 203 -6 c 128,-1,12
 183 -2 183 -2 169 4 c 128,-1,13
 155 10 155 10 144 17.5 c 128,-1,14
 133 25 133 25 121 33 c 1,15,-1
 121 -144 l 1,16,-1
 68 -145 l 1,17,-1
 68 479 l 1,18,-1
 121 480 l 1,19,-1
 121 298 l 1,20,21
 130 311 130 311 146 320 c 128,-1,22
 162 329 162 329 180 334.5 c 128,-1,23
 198 340 198 340 213.5 342.5 c 128,-1,24
 229 345 229 345 237 344 c 0,0,1
360 149 m 0,25,26
 363 178 363 178 357 204 c 128,-1,27
 351 230 351 230 336 250.5 c 128,-1,28
 321 271 321 271 296.5 285 c 128,-1,29
 272 299 272 299 238 303 c 0,30,31
 226 304 226 304 210 300 c 128,-1,32
 194 296 194 296 177.5 288 c 128,-1,33
 161 280 161 280 146 267.5 c 128,-1,34
 131 255 131 255 121 239 c 1,35,-1
 121 82 l 1,36,37
 144 60 144 60 173 44.5 c 128,-1,38
 202 29 202 29 245 31 c 0,39,40
 296 33 296 33 325.5 65.5 c 128,-1,41
 355 98 355 98 360 149 c 0,25,26
EndSplineSet
EndChar
StartChar: Lslash
Encoding: 321 321 193
Width: 406
Flags: W
Fore
67 0 m 1,0,-1
 65 201 l 1,1,2
 48 190 48 190 31.5 177.5 c 128,-1,3
 15 165 15 165 0 154 c 1,4,-1
 0 210 l 1,5,-1
 65 257 l 1,6,-1
 65 484 l 1,7,-1
 119 484 l 1,8,-1
 119 281 l 1,9,10
 145 298 145 298 171 316.5 c 128,-1,11
 197 335 197 335 223 352 c 1,12,-1
 223 295 l 1,13,-1
 119 225 l 1,14,-1
 119 54 l 1,15,-1
 363 54 l 1,16,-1
 365 0 l 1,17,-1
 67 0 l 1,0,-1
EndSplineSet
EndChar
StartChar: lslash
Encoding: 322 322 194
Width: 184
Flags: W
Fore
114 251 m 1,0,-1
 116 0 l 1,1,-1
 62 0 l 1,2,-1
 60 224 l 1,3,-1
 9 181 l 1,4,-1
 9 239 l 1,5,-1
 60 280 l 1,6,-1
 60 515 l 1,7,-1
 114 515 l 1,8,-1
 114 311 l 1,9,10
 126 321 126 321 140 331.5 c 128,-1,11
 154 342 154 342 165 352 c 1,12,-1
 165 294 l 1,13,-1
 114 251 l 1,0,-1
EndSplineSet
EndChar
StartChar: OE
Encoding: 338 338 195
Width: 726
Flags: W
Fore
546 439 m 2,0,1
 518 439 518 439 490.5 435.5 c 128,-1,2
 463 432 463 432 441.5 418.5 c 128,-1,3
 420 405 420 405 406.5 378 c 128,-1,4
 393 351 393 351 394 305 c 2,5,-1
 394 258 l 1,6,-1
 605 258 l 1,7,-1
 605 218 l 1,8,-1
 394 218 l 1,9,-1
 394 173 l 2,10,11
 393 126 393 126 406.5 99.5 c 128,-1,12
 420 73 420 73 441.5 59.5 c 128,-1,13
 463 46 463 46 490.5 42.5 c 128,-1,14
 518 39 518 39 546 39 c 2,15,-1
 681 39 l 1,16,-1
 683 0 l 1,17,-1
 549 0 l 2,18,19
 504 1 504 1 461 9.5 c 128,-1,20
 418 18 418 18 388 47 c 1,21,22
 368 24 368 24 335.5 12 c 128,-1,23
 303 0 303 0 267.5 -3 c 128,-1,24
 232 -6 232 -6 198 0 c 128,-1,25
 164 6 164 6 141 19 c 0,26,27
 130 25 130 25 117.5 36.5 c 128,-1,28
 105 48 105 48 94 63.5 c 128,-1,29
 83 79 83 79 75.5 99 c 128,-1,30
 68 119 68 119 68 143 c 2,31,-1
 68 346 l 2,32,33
 68 366 68 366 75.5 383.5 c 128,-1,34
 83 401 83 401 94 415 c 128,-1,35
 105 429 105 429 117.5 440 c 128,-1,36
 130 451 130 451 141 457 c 0,37,38
 164 470 164 470 198 476.5 c 128,-1,39
 232 483 232 483 267.5 480 c 128,-1,40
 303 477 303 477 335.5 465 c 128,-1,41
 368 453 368 453 388 430 c 1,42,43
 418 459 418 459 460.5 467.5 c 128,-1,44
 503 476 503 476 547 478 c 0,45,46
 552 478 552 478 571.5 478.5 c 128,-1,47
 591 479 591 479 613.5 479 c 128,-1,48
 636 479 636 479 656 478.5 c 128,-1,49
 676 478 676 478 681 478 c 1,50,-1
 681 439 l 1,51,-1
 546 439 l 2,0,1
165 56 m 0,52,53
 183 45 183 45 210.5 40 c 128,-1,54
 238 35 238 35 267.5 37 c 128,-1,55
 297 39 297 39 323.5 49 c 128,-1,56
 350 59 350 59 365 79 c 1,57,58
 345 116 345 116 345 175 c 2,59,-1
 345 303 l 2,60,61
 345 361 345 361 365 398 c 1,62,63
 350 417 350 417 323.5 427.5 c 128,-1,64
 297 438 297 438 267.5 440 c 128,-1,65
 238 442 238 442 210.5 436.5 c 128,-1,66
 183 431 183 431 165 420 c 0,67,68
 145 408 145 408 131 389 c 128,-1,69
 117 370 117 370 117 348 c 2,70,-1
 117 128 l 2,71,72
 117 106 117 106 131 87 c 128,-1,73
 145 68 145 68 165 56 c 0,52,53
EndSplineSet
EndChar
StartChar: oe
Encoding: 339 339 196
Width: 697
Flags: W
Fore
626 203 m 1,0,-1
 624 203 l 1,1,-1
 624 201 l 1,2,-1
 626 203 l 1,0,-1
431 48 m 0,3,4
 451 37 451 37 477.5 32.5 c 128,-1,5
 504 28 504 28 530 31.5 c 128,-1,6
 556 35 556 35 578 48 c 128,-1,7
 600 61 600 61 611 87 c 1,8,-1
 641 65 l 1,9,10
 626 35 626 35 594 18.5 c 128,-1,11
 562 2 562 2 525 -3 c 128,-1,12
 488 -8 488 -8 451.5 -2.5 c 128,-1,13
 415 3 415 3 390 18 c 2,14,15
 383 20 383 20 375.5 25.5 c 128,-1,16
 368 31 368 31 361 40 c 1,17,18
 340 19 340 19 308.5 8 c 128,-1,19
 277 -3 277 -3 243 -5 c 128,-1,20
 209 -7 209 -7 177.5 -1 c 128,-1,21
 146 5 146 5 124 18 c 0,22,23
 101 31 101 31 84.5 50.5 c 128,-1,24
 68 70 68 70 68 96 c 2,25,-1
 68 245 l 2,26,27
 68 271 68 271 84.5 290.5 c 128,-1,28
 101 310 101 310 124 323 c 0,29,30
 146 336 146 336 177.5 342 c 128,-1,31
 209 348 209 348 243 346 c 128,-1,32
 277 344 277 344 308.5 333 c 128,-1,33
 340 322 340 322 361 301 c 1,34,35
 375 315 375 315 390 323 c 0,36,37
 409 334 409 334 433 340.5 c 128,-1,38
 457 347 457 347 482.5 348 c 128,-1,39
 508 349 508 349 534 344 c 128,-1,40
 560 339 560 339 582 326 c 256,41,42
 604 313 604 313 622 288 c 128,-1,43
 640 263 640 263 642 237 c 0,44,45
 644 208 644 208 636.5 190.5 c 128,-1,46
 629 173 629 173 611 164 c 128,-1,47
 593 155 593 155 563.5 152 c 128,-1,48
 534 149 534 149 491 149 c 2,49,-1
 383 149 l 1,50,-1
 383 113 l 2,51,52
 383 84 383 84 398.5 70.5 c 128,-1,53
 414 57 414 57 431 48 c 0,3,4
383 187 m 1,54,-1
 491 187 l 2,55,56
 522 187 522 187 542.5 187 c 128,-1,57
 563 187 563 187 576 190 c 128,-1,58
 589 193 589 193 594 200.5 c 128,-1,59
 599 208 599 208 599 223 c 0,60,61
 598 242 598 242 589 260.5 c 128,-1,62
 580 279 580 279 565 289 c 0,63,64
 530 312 530 312 494.5 311 c 128,-1,65
 459 310 459 310 431 293 c 0,66,67
 411 281 411 281 397 265.5 c 128,-1,68
 383 250 383 250 383 228 c 2,69,-1
 383 187 l 1,54,-1
169 48 m 0,70,71
 188 37 188 37 213 32 c 128,-1,72
 238 27 238 27 262 30.5 c 128,-1,73
 286 34 286 34 307 46.5 c 128,-1,74
 328 59 328 59 339 83 c 1,75,76
 334 103 334 103 334 127 c 2,77,-1
 334 245 l 2,78,79
 334 258 334 258 338 267 c 1,80,81
 325 288 325 288 303.5 298.5 c 128,-1,82
 282 309 282 309 258 311.5 c 128,-1,83
 234 314 234 314 210.5 309 c 128,-1,84
 187 304 187 304 169 293 c 0,85,86
 149 281 149 281 134.5 267.5 c 128,-1,87
 120 254 120 254 120 232 c 2,88,-1
 120 109 l 2,89,90
 120 87 120 87 134.5 73.5 c 128,-1,91
 149 60 149 60 169 48 c 0,70,71
EndSplineSet
EndChar
StartChar: florin
Encoding: 402 402 202
Width: 280
Flags: W
Fore
251 474 m 1,0,-1
 245 436 l 1,1,-1
 227 436 l 2,2,3
 186 436 186 436 169 414 c 128,-1,4
 152 392 152 392 144 337 c 2,5,-1
 140 310 l 1,6,-1
 136 281 l 1,7,-1
 207 281 l 1,8,-1
 207 248 l 1,9,-1
 132 248 l 1,10,-1
 106 36 l 1,11,-1
 99 -22 l 1,12,13
 94 -36 94 -36 84.5 -47.5 c 128,-1,14
 75 -59 75 -59 61 -64 c 1,15,16
 59 -62 59 -62 53 -60 c 128,-1,17
 47 -58 47 -58 40.5 -55.5 c 128,-1,18
 34 -53 34 -53 28 -50 c 128,-1,19
 22 -47 22 -47 19 -44 c 1,20,21
 37 -31 37 -31 41.5 -19 c 128,-1,22
 46 -7 46 -7 48 9 c 2,23,-1
 79 245 l 1,24,-1
 14 245 l 1,25,-1
 14 281 l 1,26,-1
 82 281 l 1,27,-1
 89 333 l 2,28,29
 94 373 94 373 103 400 c 128,-1,30
 112 427 112 427 128.5 443.5 c 128,-1,31
 145 460 145 460 170.5 467 c 128,-1,32
 196 474 196 474 234 474 c 2,33,-1
 251 474 l 1,0,-1
EndSplineSet
EndChar
StartChar: circumflex
Encoding: 710 710 203
Width: 326
Flags: W
Fore
38 475 m 1,0,1
 56 487 56 487 75.5 503.5 c 128,-1,2
 95 520 95 520 112 538 c 128,-1,3
 129 556 129 556 142.5 574.5 c 128,-1,4
 156 593 156 593 161 609 c 1,5,6
 167 593 167 593 180 575 c 128,-1,7
 193 557 193 557 210.5 539 c 128,-1,8
 228 521 228 521 247.5 504.5 c 128,-1,9
 267 488 267 488 286 475 c 1,10,-1
 229 475 l 1,11,12
 217 486 217 486 208.5 494.5 c 128,-1,13
 200 503 200 503 192.5 511 c 128,-1,14
 185 519 185 519 178 527.5 c 128,-1,15
 171 536 171 536 162 548 c 1,16,17
 150 531 150 531 141 520.5 c 128,-1,18
 132 510 132 510 125 502.5 c 128,-1,19
 118 495 118 495 112 488.5 c 128,-1,20
 106 482 106 482 99 475 c 1,21,-1
 38 475 l 1,0,1
EndSplineSet
EndChar
StartChar: caron
Encoding: 711 711 204
Width: 346
Flags: W
Fore
294 595 m 1,0,1
 276 583 276 583 256.5 566.5 c 128,-1,2
 237 550 237 550 219.5 532 c 128,-1,3
 202 514 202 514 189 495.5 c 128,-1,4
 176 477 176 477 171 461 c 1,5,6
 165 477 165 477 151.5 495 c 128,-1,7
 138 513 138 513 121 531 c 128,-1,8
 104 549 104 549 84.5 565.5 c 128,-1,9
 65 582 65 582 46 595 c 1,10,-1
 100 595 l 1,11,12
 123 574 123 574 139.5 556.5 c 128,-1,13
 156 539 156 539 171 513 c 1,14,15
 189 545 189 545 205.5 563 c 128,-1,16
 222 581 222 581 238 595 c 1,17,-1
 294 595 l 1,0,1
EndSplineSet
EndChar
StartChar: breve
Encoding: 728 728 205
Width: 300
Flags: W
Fore
276 528 m 1,0,1
 276 506 276 506 267.5 486.5 c 128,-1,2
 259 467 259 467 241 451 c 128,-1,3
 223 435 223 435 197 426 c 128,-1,4
 171 417 171 417 148 417 c 0,5,6
 126 417 126 417 98 424.5 c 128,-1,7
 70 432 70 432 53.5 449 c 128,-1,8
 37 466 37 466 29 486 c 128,-1,9
 21 506 21 506 21 528 c 1,10,-1
 72 528 l 1,11,12
 72 494 72 494 93.5 471 c 128,-1,13
 115 448 115 448 148 448 c 256,14,15
 181 448 181 448 202.5 471 c 128,-1,16
 224 494 224 494 224 528 c 1,17,-1
 276 528 l 1,0,1
EndSplineSet
EndChar
StartChar: dotaccent
Encoding: 729 729 206
Width: 158
Flags: W
Fore
78 503 m 1,0,1
 93 505 93 505 103 492 c 128,-1,2
 113 479 113 479 113 459 c 0,3,4
 113 440 113 440 103 426.5 c 128,-1,5
 93 413 93 413 78 413 c 0,6,7
 61 413 61 413 50.5 426.5 c 128,-1,8
 40 440 40 440 41 459 c 0,9,10
 41 479 41 479 52 492 c 128,-1,11
 63 505 63 505 78 503 c 1,0,1
EndSplineSet
EndChar
StartChar: ring
Encoding: 730 730 207
Width: 276
Flags: W
Fore
59 474 m 0,0,1
 59 507 59 507 82.5 529.5 c 128,-1,2
 106 552 106 552 138 552 c 0,3,4
 153 552 153 552 167 546 c 128,-1,5
 181 540 181 540 192 529 c 128,-1,6
 203 518 203 518 209.5 503.5 c 128,-1,7
 216 489 216 489 216 473 c 0,8,9
 216 456 216 456 209.5 441.5 c 128,-1,10
 203 427 203 427 192 416.5 c 128,-1,11
 181 406 181 406 167 399.5 c 128,-1,12
 153 393 153 393 138 393 c 0,13,14
 121 393 121 393 106.5 399.5 c 128,-1,15
 92 406 92 406 81.5 417.5 c 128,-1,16
 71 429 71 429 65 443.5 c 128,-1,17
 59 458 59 458 59 474 c 0,0,1
100 474 m 0,18,19
 100 455 100 455 109 438 c 128,-1,20
 118 421 118 421 138 420 c 0,21,22
 155 420 155 420 164.5 437 c 128,-1,23
 174 454 174 454 175 474 c 0,24,25
 175 491 175 491 165.5 506.5 c 128,-1,26
 156 522 156 522 138 523 c 0,27,28
 120 522 120 522 110 506.5 c 128,-1,29
 100 491 100 491 100 474 c 0,18,19
EndSplineSet
EndChar
StartChar: tilde
Encoding: 732 732 209
Width: 251
Flags: W
Fore
225 475 m 1,0,1
 225 446 225 446 208 425 c 128,-1,2
 191 404 191 404 162 406 c 0,3,4
 154 407 154 407 143 411.5 c 128,-1,5
 132 416 132 416 120 421 c 128,-1,6
 108 426 108 426 97 430.5 c 128,-1,7
 86 435 86 435 79 435 c 0,8,9
 70 435 70 435 62.5 427 c 128,-1,10
 55 419 55 419 54 405 c 1,11,-1
 16 405 l 1,12,13
 15 431 15 431 34 452.5 c 128,-1,14
 53 474 53 474 78 475 c 0,15,16
 88 475 88 475 102.5 470.5 c 128,-1,17
 117 466 117 466 130.5 460 c 128,-1,18
 144 454 144 454 154.5 449.5 c 128,-1,19
 165 445 165 445 168 445 c 0,20,21
 174 445 174 445 181 451 c 128,-1,22
 188 457 188 457 190 475 c 1,23,-1
 223 475 l 1,24,-1
 225 475 l 1,0,1
EndSplineSet
EndChar
StartChar: uni0E01
Encoding: 3585 3585 212
Width: 456
Flags: W
Fore
125 357 m 1,0,1
 127 355 127 355 133.5 348.5 c 128,-1,2
 140 342 140 342 147.5 334.5 c 128,-1,3
 155 327 155 327 160.5 321 c 128,-1,4
 165 316 165 316 166 315 c 1,5,-1
 166 284 l 1,6,7
 162 281 162 281 157 278 c 128,-1,8
 152 275 152 275 149 271 c 0,9,10
 134 255 134 255 127.5 235.5 c 128,-1,11
 121 216 121 216 120 191 c 2,12,-1
 120 -1 l 1,13,-1
 68 -1 l 1,14,-1
 68 163 l 2,15,16
 67 202 67 202 82 242 c 128,-1,17
 97 282 97 282 131 304 c 1,18,-1
 65 367 l 1,19,-1
 64 367 l 1,20,-1
 63 394 l 1,21,-1
 149 396 l 2,22,23
 194 396 194 396 236 394 c 128,-1,24
 278 392 278 392 311 376 c 128,-1,25
 344 360 344 360 364 324 c 128,-1,26
 384 288 384 288 384 221 c 2,27,-1
 384 -1 l 1,28,-1
 335 -1 l 1,29,-1
 332 222 l 2,30,31
 334 263 334 263 325.5 289.5 c 128,-1,32
 317 316 317 316 302 330.5 c 128,-1,33
 287 345 287 345 266 351 c 128,-1,34
 245 357 245 357 221.5 358 c 128,-1,35
 198 359 198 359 173 357.5 c 128,-1,36
 148 356 148 356 125 357 c 1,0,1
EndSplineSet
EndChar
StartChar: uni0E02
Encoding: 3586 3586 213
Width: 360
Flags: W
Fore
122 398 m 0,0,1
 133 393 133 393 142 383.5 c 128,-1,2
 151 374 151 374 156 359 c 0,3,4
 165 326 165 326 164.5 302 c 128,-1,5
 164 278 164 278 158 259 c 128,-1,6
 152 240 152 240 142.5 224 c 128,-1,7
 133 208 133 208 124 191 c 128,-1,8
 115 174 115 174 108.5 154.5 c 128,-1,9
 102 135 102 135 102 108 c 0,10,11
 102 68 102 68 123 48 c 128,-1,12
 144 28 144 28 169 28.5 c 128,-1,13
 194 29 194 29 215 50.5 c 128,-1,14
 236 72 236 72 236 114 c 0,15,16
 235 183 235 183 235.5 255 c 128,-1,17
 236 327 236 327 236 396 c 1,18,-1
 288 396 l 1,19,-1
 288 99 l 2,20,21
 288 64 288 64 270 40.5 c 128,-1,22
 252 17 252 17 225.5 5 c 128,-1,23
 199 -7 199 -7 168.5 -7.5 c 128,-1,24
 138 -8 138 -8 111.5 3 c 128,-1,25
 85 14 85 14 67.5 37 c 128,-1,26
 50 60 50 60 50 95 c 0,27,28
 50 126 50 126 55.5 148 c 128,-1,29
 61 170 61 170 70 187.5 c 128,-1,30
 79 205 79 205 90.5 221 c 128,-1,31
 102 237 102 237 113 256 c 1,32,33
 105 250 105 250 97 248 c 0,34,35
 91 246 91 246 84.5 245 c 128,-1,36
 78 244 78 244 73 246 c 0,37,38
 52 252 52 252 42 278.5 c 128,-1,39
 32 305 32 305 40 337 c 0,40,41
 46 362 46 362 63 378.5 c 128,-1,42
 80 395 80 395 97 400 c 0,43,44
 109 403 109 403 122 398 c 0,0,1
97 281 m 1,45,46
 105 286 105 286 112.5 297 c 128,-1,47
 120 308 120 308 122 318 c 0,48,49
 126 331 126 331 122 348 c 128,-1,50
 118 365 118 365 108 369 c 1,51,52
 103 370 103 370 97 367 c 0,53,54
 88 362 88 362 81 350.5 c 128,-1,55
 74 339 74 339 72 329 c 0,56,57
 68 316 68 316 71 299 c 128,-1,58
 74 282 74 282 84 279 c 0,59,60
 89 278 89 278 97 281 c 1,45,46
EndSplineSet
EndChar
StartChar: uni0E03
Encoding: 3587 3587 214
Width: 400
Flags: W
Fore
166 355 m 1,0,-1
 173 399 l 1,1,-1
 192 399 l 1,2,-1
 210 358 l 2,3,4
 221 321 221 321 219.5 295.5 c 128,-1,5
 218 270 218 270 208.5 251 c 128,-1,6
 199 232 199 232 185 217.5 c 128,-1,7
 171 203 171 203 158 187.5 c 128,-1,8
 145 172 145 172 136 153.5 c 128,-1,9
 127 135 127 135 127 108 c 0,10,11
 127 80 127 80 138.5 61.5 c 128,-1,12
 150 43 150 43 167 34.5 c 128,-1,13
 184 26 184 26 203 27 c 128,-1,14
 222 28 222 28 238.5 38 c 128,-1,15
 255 48 255 48 266.5 67 c 128,-1,16
 278 86 278 86 278 114 c 2,17,-1
 278 397 l 1,18,-1
 329 397 l 1,19,20
 329 320 329 320 329.5 248.5 c 128,-1,21
 330 177 330 177 329 99 c 0,22,23
 329 64 329 64 309.5 40 c 128,-1,24
 290 16 290 16 261.5 3.5 c 128,-1,25
 233 -9 233 -9 199.5 -9.5 c 128,-1,26
 166 -10 166 -10 137.5 1 c 128,-1,27
 109 12 109 12 89.5 35.5 c 128,-1,28
 70 59 70 59 70 95 c 256,29,30
 70 131 70 131 83.5 155 c 128,-1,31
 97 179 97 179 116 198.5 c 128,-1,32
 135 218 135 218 153 237 c 128,-1,33
 171 256 171 256 180 280 c 1,34,35
 182 303 182 303 173 317.5 c 128,-1,36
 164 332 164 332 150 346 c 1,37,38
 151 337 151 337 151.5 328 c 128,-1,39
 152 319 152 319 150 309 c 0,40,41
 147 295 147 295 140 281.5 c 128,-1,42
 133 268 133 268 122.5 258 c 128,-1,43
 112 248 112 248 99.5 243.5 c 128,-1,44
 87 239 87 239 73 243 c 0,45,46
 45 251 45 251 37.5 278 c 128,-1,47
 30 305 30 305 38 337 c 0,48,49
 42 353 42 353 50.5 366 c 128,-1,50
 59 379 59 379 69.5 387.5 c 128,-1,51
 80 396 80 396 92 400 c 128,-1,52
 104 404 104 404 115 401 c 0,53,54
 128 397 128 397 144 381.5 c 128,-1,55
 160 366 160 366 166 355 c 1,0,-1
67 331 m 0,56,57
 62 315 62 315 63.5 296 c 128,-1,58
 65 277 65 277 79 273 c 256,59,60
 93 269 93 269 104.5 283.5 c 128,-1,61
 116 298 116 298 121 315 c 0,62,63
 126 333 126 333 122 347 c 128,-1,64
 118 361 118 361 108 365 c 0,65,66
 97 370 97 370 85 359 c 128,-1,67
 73 348 73 348 67 331 c 0,56,57
EndSplineSet
EndChar
StartChar: uni0E04
Encoding: 3588 3588 215
Width: 488
Flags: W
Fore
371 374 m 0,0,1
 395 360 395 360 405.5 339.5 c 128,-1,2
 416 319 416 319 416 290 c 2,3,-1
 416 -1 l 1,4,-1
 363 -1 l 1,5,-1
 363 261 l 2,6,7
 363 287 363 287 361.5 305 c 128,-1,8
 360 323 360 323 339 337 c 0,9,10
 321 348 321 348 295.5 353.5 c 128,-1,11
 270 359 270 359 243 359 c 128,-1,12
 216 359 216 359 190 353.5 c 128,-1,13
 164 348 164 348 146 337 c 0,14,15
 135 330 135 330 129.5 322 c 128,-1,16
 124 314 124 314 122 304.5 c 128,-1,17
 120 295 120 295 120 284 c 128,-1,18
 120 273 120 273 120 261 c 2,19,-1
 120 204 l 1,20,21
 158 245 158 245 222 250 c 0,22,23
 227 251 227 251 231.5 251.5 c 128,-1,24
 236 252 236 252 241 252 c 0,25,26
 273 252 273 252 296.5 236.5 c 128,-1,27
 320 221 320 221 319 198 c 0,28,29
 319 176 319 176 296 160.5 c 128,-1,30
 273 145 273 145 241 145 c 256,31,32
 209 145 209 145 186.5 159.5 c 128,-1,33
 164 174 164 174 162 194 c 1,34,35
 150 185 150 185 140 173 c 0,36,37
 126 157 126 157 123 138 c 128,-1,38
 120 119 120 119 120 95 c 2,39,-1
 120 -1 l 1,40,-1
 68 -1 l 1,41,-1
 68 293 l 2,42,43
 68 318 68 318 79.5 339.5 c 128,-1,44
 91 361 91 361 113 374 c 0,45,46
 136 388 136 388 170.5 395 c 128,-1,47
 205 402 205 402 242 402 c 128,-1,48
 279 402 279 402 313.5 395 c 128,-1,49
 348 388 348 388 371 374 c 0,0,1
240 230 m 2,50,51
 218 230 218 230 207 219.5 c 128,-1,52
 196 209 196 209 195 198 c 256,53,54
 194 187 194 187 206 176.5 c 128,-1,55
 218 166 218 166 241 166 c 2,56,-1
 242 166 l 2,57,58
 265 166 265 166 275.5 177 c 128,-1,59
 286 188 286 188 287 199 c 0,60,61
 287 210 287 210 274.5 219.5 c 128,-1,62
 262 229 262 229 241 230 c 2,63,-1
 240 230 l 2,50,51
EndSplineSet
EndChar
StartChar: uni0E05
Encoding: 3589 3589 216
Width: 488
Flags: W
Fore
305 398 m 1,0,1
 324 395 324 395 343.5 384 c 128,-1,2
 363 373 363 373 379.5 357 c 128,-1,3
 396 341 396 341 406.5 321 c 128,-1,4
 417 301 417 301 417 282 c 2,5,-1
 417 -1 l 1,6,-1
 363 -1 l 1,7,-1
 363 264 l 2,8,9
 363 277 363 277 360 291 c 128,-1,10
 357 305 357 305 351.5 317.5 c 128,-1,11
 346 330 346 330 337.5 339.5 c 128,-1,12
 329 349 329 349 317 352 c 1,13,-1
 245 293 l 1,14,-1
 171 351 l 1,15,16
 149 340 149 340 134 320.5 c 128,-1,17
 119 301 119 301 119 269 c 2,18,-1
 119 205 l 1,19,20
 139 228 139 228 172 239 c 128,-1,21
 205 250 205 250 240 251 c 1,22,-1
 240 250 l 1,23,24
 242 251 242 251 246 251 c 0,25,26
 279 251 279 251 302.5 235.5 c 128,-1,27
 326 220 326 220 325 197 c 0,28,29
 325 175 325 175 302 159.5 c 128,-1,30
 279 144 279 144 245 144 c 0,31,32
 213 144 213 144 190 159.5 c 128,-1,33
 167 175 167 175 167 197 c 2,34,-1
 167 200 l 1,35,36
 159 194 159 194 152 187.5 c 128,-1,37
 145 181 145 181 140 175 c 0,38,39
 126 160 126 160 122.5 140 c 128,-1,40
 119 120 119 120 119 96 c 2,41,-1
 119 -1 l 1,42,-1
 68 -1 l 1,43,-1
 68 286 l 2,44,45
 68 302 68 302 79.5 320.5 c 128,-1,46
 91 339 91 339 108.5 355.5 c 128,-1,47
 126 372 126 372 145.5 384 c 128,-1,48
 165 396 165 396 181 398 c 1,49,50
 196 383 196 383 215 366.5 c 128,-1,51
 234 350 234 350 245 338 c 1,52,-1
 305 398 l 1,0,1
292 198 m 0,53,54
 293 209 293 209 280 218.5 c 128,-1,55
 267 228 267 228 245 229 c 0,56,57
 223 229 223 229 212 218.5 c 128,-1,58
 201 208 201 208 200 197 c 256,59,60
 199 186 199 186 211 175.5 c 128,-1,61
 223 165 223 165 247 165 c 0,62,63
 270 165 270 165 281 176 c 128,-1,64
 292 187 292 187 292 198 c 0,53,54
EndSplineSet
EndChar
StartChar: uni0E06
Encoding: 3590 3590 217
Width: 494
Flags: W
Fore
59 92 m 0,0,1
 59 110 59 110 63.5 127.5 c 128,-1,2
 68 145 68 145 77 158 c 128,-1,3
 86 171 86 171 98.5 178.5 c 128,-1,4
 111 186 111 186 127 186 c 0,5,6
 140 186 140 186 149 180 c 1,7,8
 151 207 151 207 163 228 c 0,9,10
 170 241 170 241 175.5 253.5 c 128,-1,11
 181 266 181 266 187 282 c 1,12,13
 189 305 189 305 180.5 316 c 128,-1,14
 172 327 172 327 161 335 c 1,15,-1
 153 345 l 1,16,17
 154 328 154 328 149 311 c 0,18,19
 141 279 141 279 119.5 260 c 128,-1,20
 98 241 98 241 76 247 c 0,21,22
 55 253 55 253 46 279.5 c 128,-1,23
 37 306 37 306 45 338 c 0,24,25
 54 371 54 371 75 389.5 c 128,-1,26
 96 408 96 408 118 402 c 0,27,28
 124 400 124 400 133.5 395 c 128,-1,29
 143 390 143 390 152 383.5 c 128,-1,30
 161 377 161 377 168.5 370 c 128,-1,31
 176 363 176 363 179 357 c 1,32,-1
 186 400 l 1,33,-1
 215 400 l 1,34,-1
 224 360 l 2,35,36
 232 334 232 334 233 313.5 c 128,-1,37
 234 293 234 293 230.5 276 c 128,-1,38
 227 259 227 259 220 245 c 128,-1,39
 206 217 l 256,40,41
 199 203 199 203 197 186 c 128,-1,42
 195 169 195 169 196.5 151.5 c 128,-1,43
 198 134 198 134 201 118 c 128,-1,44
 204 102 204 102 207 92 c 1,45,46
 222 72 222 72 242 56.5 c 128,-1,47
 262 41 262 41 294 41 c 0,48,49
 336 41 336 41 355 59 c 128,-1,50
 374 77 374 77 374 127 c 2,51,-1
 374 401 l 1,52,-1
 424 401 l 1,53,54
 424 326 424 326 424 261 c 128,-1,55
 424 196 424 196 423 123 c 0,56,57
 423 93 423 93 412 69.5 c 128,-1,58
 401 46 401 46 383 30 c 128,-1,59
 365 14 365 14 342.5 6.5 c 128,-1,60
 320 -1 320 -1 296 -1 c 0,61,62
 254 -1 254 -1 229 18.5 c 128,-1,63
 204 38 204 38 187 59 c 1,64,65
 181 33 181 33 164 15 c 128,-1,66
 147 -3 147 -3 127 -3 c 0,67,68
 95 -3 95 -3 77 25.5 c 128,-1,69
 59 54 59 54 59 92 c 0,0,1
73 331 m 256,70,71
 68 314 68 314 68.5 299 c 128,-1,72
 69 284 69 284 83 279 c 0,73,74
 97 275 97 275 108 287.5 c 128,-1,75
 119 300 119 300 123 317 c 0,76,77
 128 334 128 334 126.5 351 c 128,-1,78
 125 368 125 368 112 373 c 0,79,80
 98 378 98 378 88 363 c 128,-1,81
 78 348 78 348 73 331 c 256,70,71
95 92 m 256,82,83
 95 84 95 84 97 74 c 128,-1,84
 99 64 99 64 103 55 c 128,-1,85
 107 46 107 46 113 40.5 c 128,-1,86
 119 35 119 35 126 35 c 256,87,88
 133 35 133 35 139.5 41 c 128,-1,89
 146 47 146 47 150.5 55.5 c 128,-1,90
 155 64 155 64 157.5 74 c 128,-1,91
 160 84 160 84 160 92 c 256,92,93
 160 100 160 100 157.5 110 c 128,-1,94
 155 120 155 120 150 129 c 128,-1,95
 145 138 145 138 138.5 144 c 128,-1,96
 132 150 132 150 124 150 c 256,97,98
 116 150 116 150 111 144 c 128,-1,99
 106 138 106 138 102 129 c 128,-1,100
 98 120 98 120 96.5 110 c 128,-1,101
 95 100 95 100 95 92 c 256,82,83
EndSplineSet
EndChar
StartChar: uni0E07
Encoding: 3591 3591 218
Width: 356
Flags: W
Fore
241 401 m 1,0,1
 259 395 259 395 271.5 378 c 128,-1,2
 284 361 284 361 284 339 c 2,3,-1
 284 109 l 2,4,5
 284 86 284 86 273.5 66 c 128,-1,6
 263 46 263 46 245.5 30.5 c 128,-1,7
 228 15 228 15 205.5 5 c 128,-1,8
 183 -5 183 -5 160 -8 c 1,9,-1
 32 269 l 1,10,-1
 73 289 l 1,11,12
 102 231 102 231 131.5 167 c 128,-1,13
 161 103 161 103 189 40 c 1,14,15
 209 51 209 51 219.5 68.5 c 128,-1,16
 230 86 230 86 230 120 c 2,17,-1
 230 262 l 1,18,19
 220 252 220 252 208 249 c 0,20,21
 196 245 196 245 187 248 c 0,22,23
 166 254 166 254 157 280 c 128,-1,24
 148 306 148 306 156 338 c 0,25,26
 163 363 163 363 177 379.5 c 128,-1,27
 191 396 191 396 208 401 c 0,28,29
 213 403 213 403 224 403 c 128,-1,30
 235 403 235 403 240 401 c 1,31,32
 241 401 241 401 241 400 c 1,33,-1
 241 401 l 1,0,1
208 282 m 0,34,35
 216 287 216 287 223 298 c 128,-1,36
 230 309 230 309 232 319 c 0,37,38
 236 332 236 332 232.5 348.5 c 128,-1,39
 229 365 229 365 218 370 c 0,40,41
 213 372 213 372 208 368 c 0,42,43
 200 363 200 363 192.5 351.5 c 128,-1,44
 185 340 185 340 183 330 c 0,45,46
 179 317 179 317 182 300 c 128,-1,47
 185 283 185 283 196 280 c 0,48,49
 201 278 201 278 208 282 c 0,34,35
EndSplineSet
EndChar
StartChar: uni0E08
Encoding: 3592 3592 219
Width: 426
Flags: W
Fore
301 373 m 0,0,1
 324 359 324 359 339.5 341 c 128,-1,2
 355 323 355 323 355 297 c 2,3,-1
 355 99 l 2,4,5
 355 94 355 94 353 84 c 128,-1,6
 351 74 351 74 345 62 c 128,-1,7
 339 50 339 50 328 38 c 128,-1,8
 317 26 317 26 299 19 c 0,9,10
 287 13 287 13 273 8.5 c 128,-1,11
 259 4 259 4 244 -1 c 1,12,-1
 212 -1 l 1,13,-1
 212 103 l 1,14,15
 211 103 211 103 211 102 c 1,16,-1
 210 121 l 1,17,18
 202 113 202 113 192 110 c 0,19,20
 183 107 183 107 171 111 c 0,21,22
 154 116 154 116 140.5 133 c 128,-1,23
 127 150 127 150 120 174 c 0,24,25
 112 205 112 205 121 231.5 c 128,-1,26
 130 258 130 258 151 263 c 0,27,28
 161 266 161 266 171 263 c 0,29,30
 179 261 179 261 188.5 256.5 c 128,-1,31
 198 252 198 252 204 245 c 1,32,-1
 204 246 l 1,33,34
 208 241 208 241 211 237.5 c 128,-1,35
 214 234 214 234 216 229 c 2,36,37
 226 212 226 212 232 187.5 c 128,-1,38
 238 163 238 163 241.5 136 c 128,-1,39
 245 109 245 109 246 82 c 128,-1,40
 247 55 247 55 247 34 c 1,41,42
 280 40 280 40 291.5 58.5 c 128,-1,43
 303 77 303 77 303 99 c 2,44,-1
 303 266 l 2,45,46
 303 289 303 289 299.5 306.5 c 128,-1,47
 296 324 296 324 276 336 c 0,48,49
 257 347 257 347 232 352.5 c 128,-1,50
 207 358 207 358 181 358 c 128,-1,51
 155 358 155 358 131 352.5 c 128,-1,52
 107 347 107 347 89 336 c 0,53,54
 83 332 83 332 78 327.5 c 128,-1,55
 73 323 73 323 68 319 c 1,56,-1
 36 346 l 1,57,58
 40 354 40 354 48 360 c 128,-1,59
 56 366 56 366 65 373 c 0,60,61
 87 386 87 386 118 392.5 c 128,-1,62
 149 399 149 399 182 399 c 128,-1,63
 215 399 215 399 246.5 392.5 c 128,-1,64
 278 386 278 386 301 373 c 0,0,1
183 143 m 0,65,66
 194 146 194 146 196.5 163 c 128,-1,67
 199 180 199 180 196 193 c 0,68,69
 193 203 193 203 186 214 c 128,-1,70
 179 225 179 225 171 230 c 0,71,72
 166 234 166 234 161 232 c 0,73,74
 150 228 150 228 146.5 211.5 c 128,-1,75
 143 195 143 195 146 182 c 0,76,77
 149 172 149 172 156 161 c 128,-1,78
 163 150 163 150 171 145 c 1,79,80
 178 142 178 142 183 143 c 0,65,66
EndSplineSet
EndChar
StartChar: uni0E09
Encoding: 3593 3593 220
Width: 482
Flags: W
Fore
391 161 m 2,0,1
 420 161 420 161 434 135 c 128,-1,2
 448 109 448 109 448 72 c 0,3,4
 448 36 448 36 430.5 14 c 128,-1,5
 413 -8 413 -8 391 -9 c 2,6,-1
 387 -9 l 2,7,8
 368 -8 368 -8 358 4.5 c 128,-1,9
 348 17 348 17 343 32 c 0,10,11
 337 50 337 50 335 71 c 1,12,13
 328 45 328 45 310.5 27 c 128,-1,14
 293 9 293 9 271.5 0.5 c 128,-1,15
 250 -8 250 -8 226 -7 c 128,-1,16
 202 -6 202 -6 180.5 5 c 128,-1,17
 159 16 159 16 143.5 37.5 c 128,-1,18
 128 59 128 59 123 91 c 1,19,20
 122 92 122 92 120 102 c 1,21,22
 117 100 117 100 111 98 c 0,23,24
 101 95 101 95 89 98 c 0,25,26
 68 103 68 103 58 129.5 c 128,-1,27
 48 156 48 156 56 188 c 0,28,29
 62 212 62 212 78 228.5 c 128,-1,30
 94 245 94 245 111 250 c 0,31,32
 121 253 121 253 131 251 c 1,33,34
 145 246 145 246 155.5 232 c 128,-1,35
 166 218 166 218 166 198 c 2,36,-1
 166 114 l 2,37,38
 166 70 166 70 186 52 c 128,-1,39
 206 34 206 34 240 35 c 0,40,41
 270 37 270 37 295.5 64.5 c 128,-1,42
 321 92 321 92 321 147 c 2,43,-1
 321 275 l 2,44,45
 321 295 321 295 315 311.5 c 128,-1,46
 309 328 309 328 290 339 c 0,47,48
 272 349 272 349 244.5 354.5 c 128,-1,49
 217 360 217 360 187 360 c 128,-1,50
 157 360 157 360 129.5 354.5 c 128,-1,51
 102 349 102 349 84 339 c 0,52,53
 78 335 78 335 73 331 c 128,-1,54
 63 323 l 1,55,-1
 30 350 l 1,56,57
 36 358 36 358 43.5 364 c 128,-1,58
 51 370 51 370 61 376 c 0,59,60
 83 389 83 389 119 395.5 c 128,-1,61
 155 402 155 402 193 402 c 128,-1,62
 231 402 231 402 266.5 395.5 c 128,-1,63
 302 389 302 389 324 376 c 0,64,65
 344 363 344 363 358 345 c 128,-1,66
 372 327 372 327 372 301 c 0,67,68
 374 265 374 265 373.5 228.5 c 128,-1,69
 373 192 373 192 372 155 c 1,70,71
 379 159 379 159 387 161 c 1,72,-1
 391 161 l 2,0,1
111 131 m 0,73,74
 119 136 119 136 125.5 143 c 128,-1,75
 132 150 132 150 136 169 c 0,76,77
 140 182 140 182 136 199 c 128,-1,78
 132 216 132 216 122 219 c 0,79,80
 115 221 115 221 109 217 c 128,-1,81
 103 213 103 213 98.5 206.5 c 128,-1,82
 94 200 94 200 90.5 192.5 c 128,-1,83
 87 185 87 185 86 180 c 0,84,85
 82 167 82 167 85 150 c 128,-1,86
 88 133 88 133 99 129 c 0,87,88
 106 127 106 127 111 131 c 0,73,74
386 26 m 1,89,90
 400 24 400 24 409 38 c 128,-1,91
 418 52 418 52 418 72 c 0,92,93
 418 80 418 80 416.5 89.5 c 128,-1,94
 415 99 415 99 411 107 c 128,-1,95
 407 115 407 115 401.5 120 c 128,-1,96
 396 125 396 125 388 125 c 0,97,98
 382 125 382 125 377.5 119 c 128,-1,99
 373 113 373 113 370 105 c 128,-1,100
 367 97 367 97 365 88 c 128,-1,101
 363 79 363 79 363 72 c 0,102,103
 363 58 363 58 369 44 c 128,-1,104
 375 30 375 30 386 26 c 1,89,90
EndSplineSet
EndChar
StartChar: uni0E0A
Encoding: 3594 3594 221
Width: 361
Flags: W
Fore
300 417 m 1,0,1
 301 400 301 400 297 380.5 c 128,-1,2
 293 361 293 361 283.5 343.5 c 128,-1,3
 274 326 274 326 258 313.5 c 128,-1,4
 242 301 242 301 220 298 c 1,5,6
 253 279 253 279 268 262.5 c 128,-1,7
 283 246 283 246 287.5 224.5 c 128,-1,8
 292 203 292 203 290.5 173.5 c 128,-1,9
 289 144 289 144 289 99 c 0,10,11
 289 64 289 64 271.5 40.5 c 128,-1,12
 254 17 254 17 227.5 5 c 128,-1,13
 201 -7 201 -7 170.5 -7.5 c 128,-1,14
 140 -8 140 -8 113.5 3 c 128,-1,15
 87 14 87 14 69 37 c 128,-1,16
 51 60 51 60 51 95 c 0,17,18
 51 126 51 126 56.5 147.5 c 128,-1,19
 62 169 62 169 71 186.5 c 128,-1,20
 80 204 80 204 90.5 219.5 c 128,-1,21
 101 235 101 235 112 253 c 1,22,23
 104 247 104 247 97 246 c 2,24,25
 85 242 85 242 76 245 c 0,26,27
 55 251 55 251 46 277 c 128,-1,28
 37 303 37 303 45 335 c 0,29,30
 52 360 52 360 66 376.5 c 128,-1,31
 80 393 80 393 97 398 c 0,32,33
 107 401 107 401 118 398 c 0,34,35
 124 396 124 396 130 392 c 0,36,37
 147 380 147 380 156 357 c 0,38,39
 166 324 166 324 165.5 300 c 128,-1,40
 165 276 165 276 159.5 257.5 c 128,-1,41
 154 239 154 239 144.5 223 c 128,-1,42
 135 207 135 207 126 190.5 c 128,-1,43
 117 174 117 174 110.5 154.5 c 128,-1,44
 104 135 104 135 104 108 c 0,45,46
 104 68 104 68 124 48 c 128,-1,47
 144 28 144 28 168.5 28.5 c 128,-1,48
 193 29 193 29 214 50.5 c 128,-1,49
 235 72 235 72 237 114 c 0,50,51
 238 132 238 132 238 139.5 c 128,-1,52
 238 147 238 147 238 154 c 128,-1,53
 238 161 238 161 238 171 c 128,-1,54
 238 181 238 181 239 204 c 0,55,56
 239 223 239 223 235 235 c 128,-1,57
 231 247 231 247 223.5 257 c 128,-1,58
 216 267 216 267 204.5 277 c 128,-1,59
 193 287 193 287 178 302 c 1,60,61
 190 305 190 305 205 316 c 128,-1,62
 220 327 220 327 232 343 c 128,-1,63
 244 359 244 359 250.5 378 c 128,-1,64
 257 397 257 397 254 417 c 1,65,-1
 300 417 l 1,0,1
85 277 m 0,66,67
 94 275 94 275 101.5 279 c 128,-1,68
 109 283 109 283 114 290 c 128,-1,69
 119 297 119 297 122.5 304.5 c 128,-1,70
 126 312 126 312 127 316 c 0,71,72
 129 322 129 322 128.5 331.5 c 128,-1,73
 128 341 128 341 126 349.5 c 128,-1,74
 124 358 124 358 119 364.5 c 128,-1,75
 114 371 114 371 107 371 c 256,76,77
 100 371 100 371 97 369 c 0,78,79
 89 364 89 364 81.5 351 c 128,-1,80
 74 338 74 338 72 327 c 0,81,82
 68 314 68 314 71 297 c 128,-1,83
 74 280 74 280 85 277 c 0,66,67
EndSplineSet
EndChar
StartChar: uni0E0B
Encoding: 3595 3595 222
Width: 411
Flags: W
Fore
334 104 m 2,0,1
 334 69 334 69 315 45.5 c 128,-1,2
 296 22 296 22 268 10 c 128,-1,3
 240 -2 240 -2 206.5 -3 c 128,-1,4
 173 -4 173 -4 144.5 7.5 c 128,-1,5
 116 19 116 19 96.5 42 c 128,-1,6
 77 65 77 65 76 100 c 0,7,8
 74 140 74 140 85 165 c 128,-1,9
 96 190 96 190 111.5 208.5 c 128,-1,10
 127 227 127 227 142.5 243.5 c 128,-1,11
 158 260 158 260 167 285 c 0,12,13
 174 301 174 301 172 317.5 c 128,-1,14
 170 334 170 334 162 340 c 1,15,-1
 153 349 l 1,16,17
 155 329 155 329 152 312 c 0,18,19
 149 296 149 296 141 283 c 128,-1,20
 133 270 133 270 122.5 262 c 128,-1,21
 112 254 112 254 100 250.5 c 128,-1,22
 88 247 88 247 78 250 c 0,23,24
 56 255 56 255 47 281.5 c 128,-1,25
 38 308 38 308 46 340 c 0,26,27
 55 372 55 372 76.5 390.5 c 128,-1,28
 98 409 98 409 119 404 c 0,29,30
 132 400 132 400 148 384.5 c 128,-1,31
 164 369 164 369 170 358 c 1,32,-1
 176 402 l 1,33,-1
 195 402 l 1,34,-1
 205 361 l 2,35,36
 215 328 215 328 213 305 c 128,-1,37
 211 282 211 282 203 264.5 c 128,-1,38
 195 247 195 247 183 232.5 c 128,-1,39
 171 218 171 218 160 202.5 c 128,-1,40
 149 187 149 187 141 168.5 c 128,-1,41
 133 150 133 150 133 123 c 0,42,43
 133 77 133 77 156 54.5 c 128,-1,44
 179 32 179 32 206.5 32.5 c 128,-1,45
 234 33 234 33 257 57.5 c 128,-1,46
 280 82 280 82 280 130 c 2,47,-1
 280 221 l 2,48,49
 280 244 280 244 276.5 258 c 128,-1,50
 273 272 273 272 266 281.5 c 128,-1,51
 259 291 259 291 248.5 299 c 128,-1,52
 238 307 238 307 225 318 c 1,53,54
 240 318 240 318 256.5 327.5 c 128,-1,55
 273 337 273 337 286 352 c 128,-1,56
 299 367 299 367 306.5 386 c 128,-1,57
 314 405 314 405 312 424 c 1,58,-1
 368 424 l 1,59,60
 366 407 366 407 362.5 389.5 c 128,-1,61
 359 372 359 372 350 357 c 128,-1,62
 341 342 341 342 324 330 c 128,-1,63
 307 318 307 318 279 314 c 1,64,65
 292 303 292 303 302 294.5 c 128,-1,66
 312 286 312 286 318.5 277 c 128,-1,67
 325 268 325 268 329 257 c 128,-1,68
 333 246 333 246 334 231 c 2,69,-1
 334 104 l 2,0,1
72 329 m 0,70,71
 68 315 68 315 70.5 298 c 128,-1,72
 73 281 73 281 87 278 c 0,73,74
 100 275 100 275 111 289.5 c 128,-1,75
 122 304 122 304 126 319 c 0,76,77
 128 326 128 326 128 335 c 128,-1,78
 128 344 128 344 126.5 352 c 128,-1,79
 125 360 125 360 121 366.5 c 128,-1,80
 117 373 117 373 111 375 c 1,81,82
 104 376 104 376 98 372 c 128,-1,83
 92 368 92 368 86.5 360.5 c 128,-1,84
 81 353 81 353 77.5 344.5 c 128,-1,85
 74 336 74 336 72 329 c 0,70,71
EndSplineSet
EndChar
StartChar: uni0E0C
Encoding: 3596 3596 223
Width: 664
Flags: W
Fore
593 396 m 1,0,1
 593 359 593 359 593 325.5 c 128,-1,2
 593 292 593 292 593 259 c 128,-1,3
 593 226 593 226 592.5 193 c 128,-1,4
 592 160 592 160 592 124 c 0,5,6
 592 94 592 94 580 71.5 c 128,-1,7
 568 49 568 49 549.5 34 c 128,-1,8
 531 19 531 19 508 11.5 c 128,-1,9
 485 4 485 4 463 4 c 0,10,11
 431 4 431 4 408 16 c 128,-1,12
 385 28 385 28 368 44 c 1,13,14
 359 26 359 26 344.5 14.5 c 128,-1,15
 330 3 330 3 315 3 c 0,16,17
 291 3 291 3 269.5 26.5 c 128,-1,18
 248 50 248 50 248 95 c 0,19,20
 248 138 248 138 268 163 c 128,-1,21
 288 188 288 188 315 188 c 0,22,23
 322 188 322 188 330 185 c 1,24,-1
 329 224 l 2,25,26
 332 285 332 285 313 313.5 c 128,-1,27
 294 342 294 342 263.5 351.5 c 128,-1,28
 233 361 233 361 196 359 c 128,-1,29
 159 357 159 357 125 358 c 1,30,31
 126 356 126 356 132.5 349.5 c 128,-1,32
 139 343 139 343 146.5 335.5 c 128,-1,33
 154 328 154 328 159.5 322 c 128,-1,34
 165 316 165 316 165 315 c 2,35,-1
 165 284 l 1,36,37
 161 281 161 281 156 278.5 c 128,-1,38
 151 276 151 276 148 272 c 0,39,40
 120 240 120 240 120 193 c 2,41,-1
 120 154 l 1,42,43
 131 158 131 158 143 155 c 0,44,45
 153 152 153 152 161 143.5 c 128,-1,46
 169 135 169 135 173.5 122.5 c 128,-1,47
 178 110 178 110 178.5 94.5 c 128,-1,48
 179 79 179 79 175 64 c 0,49,50
 167 33 167 33 145 16 c 128,-1,51
 123 -1 123 -1 102 4 c 0,52,53
 84 9 84 9 74.5 30 c 128,-1,54
 65 51 65 51 68 77 c 2,55,-1
 68 165 l 2,56,57
 66 204 66 204 81.5 243.5 c 128,-1,58
 97 283 97 283 131 305 c 1,59,-1
 64 367 l 1,60,-1
 64 395 l 1,61,-1
 148 396 l 2,62,63
 192 396 192 396 234 394 c 128,-1,64
 276 392 276 392 308.5 376 c 128,-1,65
 341 360 341 360 361 324.5 c 128,-1,66
 381 289 381 289 381 222 c 2,67,-1
 381 85 l 1,68,-1
 380 86 l 1,69,-1
 380 84 l 1,70,71
 394 68 394 68 411.5 55.5 c 128,-1,72
 429 43 429 43 451 43 c 0,73,74
 492 43 492 43 516 61 c 128,-1,75
 540 79 540 79 540 129 c 2,76,-1
 540 396 l 1,77,-1
 593 396 l 1,0,1
133 124 m 0,78,79
 123 127 123 127 112.5 112.5 c 128,-1,80
 102 98 102 98 98 85 c 0,81,82
 95 72 95 72 97.5 55.5 c 128,-1,83
 100 39 100 39 111 36 c 256,84,85
 122 33 122 33 133 47 c 128,-1,86
 144 61 144 61 148 74 c 0,87,88
 151 87 151 87 147.5 103.5 c 128,-1,89
 144 120 144 120 133 124 c 0,78,79
316 43 m 1,90,91
 330 42 330 42 338.5 59.5 c 128,-1,92
 347 77 347 77 347 95 c 256,93,94
 347 113 347 113 339 131 c 128,-1,95
 331 149 331 149 314 149 c 256,96,97
 297 149 297 149 288 131 c 128,-1,98
 279 113 279 113 279 95 c 0,99,100
 279 86 279 86 281 76.5 c 128,-1,101
 283 67 283 67 287.5 59.5 c 128,-1,102
 292 52 292 52 299 47 c 128,-1,103
 306 42 306 42 316 43 c 1,90,91
EndSplineSet
EndChar
StartChar: uni0E0D
Encoding: 3597 3597 224
Width: 651
Flags: W
Fore
580 396 m 1,0,-1
 580 167 l 2,1,2
 580 107 580 107 564 72.5 c 128,-1,3
 548 38 548 38 521 21.5 c 128,-1,4
 494 5 494 5 459 1 c 128,-1,5
 424 -3 424 -3 385 -3 c 1,6,-1
 385 -4 l 1,7,-1
 334 -4 l 1,8,-1
 333 222 l 2,9,10
 334 263 334 263 326 289 c 128,-1,11
 318 315 318 315 302.5 330 c 128,-1,12
 287 345 287 345 266.5 351 c 128,-1,13
 246 357 246 357 222.5 358 c 128,-1,14
 199 359 199 359 174.5 358 c 128,-1,15
 150 357 150 357 127 358 c 1,16,17
 128 356 128 356 134.5 349 c 128,-1,18
 141 342 141 342 148.5 334.5 c 128,-1,19
 156 327 156 327 161.5 321 c 128,-1,20
 167 315 167 315 167 314 c 2,21,-1
 167 283 l 1,22,23
 163 280 163 280 158 277.5 c 128,-1,24
 153 275 153 275 150 271 c 0,25,26
 122 239 122 239 122 190 c 2,27,-1
 122 165 l 1,28,29
 126 168 126 168 130 168 c 2,30,31
 141 172 141 172 153 168 c 0,32,33
 165 165 165 165 173.5 156 c 128,-1,34
 182 147 182 147 186.5 133.5 c 128,-1,35
 191 120 191 120 191 103 c 128,-1,36
 191 86 191 86 187 69 c 0,37,38
 180 43 180 43 164.5 24 c 128,-1,39
 149 5 149 5 132 0 c 0,40,41
 117 -3 117 -3 108 -1 c 0,42,43
 91 4 91 4 81 20 c 128,-1,44
 71 36 71 36 69 58 c 1,45,-1
 69 57 l 1,46,-1
 69 162 l 2,47,48
 68 202 68 202 83 242 c 128,-1,49
 98 282 98 282 132 304 c 1,50,-1
 66 367 l 1,51,-1
 66 395 l 1,52,-1
 150 396 l 2,53,54
 195 396 195 396 237.5 394 c 128,-1,55
 280 392 280 392 312.5 375.5 c 128,-1,56
 345 359 345 359 365 323 c 128,-1,57
 385 287 385 287 385 220 c 2,58,-1
 385 31 l 1,59,60
 413 30 413 30 439.5 32.5 c 128,-1,61
 466 35 466 35 485.5 48 c 128,-1,62
 505 61 505 61 516.5 88.5 c 128,-1,63
 528 116 528 116 527 165 c 2,64,-1
 527 396 l 1,65,-1
 580 396 l 1,0,-1
130 132 m 0,66,67
 122 127 122 127 114 114.5 c 128,-1,68
 106 102 106 102 103 91 c 0,69,70
 101 84 101 84 101 75 c 128,-1,71
 101 66 101 66 102.5 57.5 c 128,-1,72
 104 49 104 49 108 42.5 c 128,-1,73
 112 36 112 36 118 35 c 0,74,75
 122 34 122 34 130 37 c 1,76,77
 139 43 139 43 147 55 c 128,-1,78
 155 67 155 67 158 78 c 0,79,80
 160 85 160 85 160 94 c 128,-1,81
 160 103 160 103 158 111 c 128,-1,82
 156 119 156 119 152 125.5 c 128,-1,83
 148 132 148 132 142 134 c 0,84,85
 137 136 137 136 130 132 c 0,66,67
478 -91 m 1,86,87
 495 -79 495 -79 508 -64 c 128,-1,88
 521 -49 521 -49 530 -35 c 1,89,-1
 579 -35 l 1,90,91
 563 -61 563 -61 542.5 -82.5 c 128,-1,92
 522 -104 522 -104 498 -118.5 c 128,-1,93
 474 -133 474 -133 448 -139.5 c 128,-1,94
 422 -146 422 -146 395 -140 c 0,95,96
 372 -136 372 -136 356 -123.5 c 128,-1,97
 340 -111 340 -111 340 -94 c 0,98,99
 340 -75 340 -75 360 -61.5 c 128,-1,100
 380 -48 380 -48 409 -48 c 0,101,102
 437 -48 437 -48 456.5 -61 c 128,-1,103
 476 -74 476 -74 478 -91 c 1,86,87
409 -117 m 256,104,105
 416 -117 416 -117 424.5 -115.5 c 128,-1,106
 433 -114 433 -114 440.5 -111 c 128,-1,107
 448 -108 448 -108 453 -103.5 c 128,-1,108
 458 -99 458 -99 458 -93 c 256,109,110
 458 -87 458 -87 453 -83 c 128,-1,111
 448 -79 448 -79 440.5 -76.5 c 128,-1,112
 433 -74 433 -74 424.5 -72.5 c 128,-1,113
 416 -71 416 -71 409 -71 c 0,114,115
 395 -71 395 -71 378.5 -77 c 128,-1,116
 362 -83 362 -83 361 -95 c 0,117,118
 361 -101 361 -101 365.5 -105 c 128,-1,119
 370 -109 370 -109 377.5 -111.5 c 128,-1,120
 385 -114 385 -114 393.5 -115.5 c 128,-1,121
 402 -117 402 -117 409 -117 c 256,104,105
EndSplineSet
Substitution: 0 65534 'L026' uni0E0D.alt1
Substitution: 0 65534 'L026' uni0E0D.alt1
EndChar
StartChar: uni0E0E
Encoding: 3598 3598 225
Width: 461
Flags: W
Fore
138 394 m 2,0,1
 183 394 183 394 228 392 c 128,-1,2
 273 390 273 390 309 374 c 128,-1,3
 345 358 345 358 367.5 322.5 c 128,-1,4
 390 287 390 287 390 220 c 2,5,-1
 390 -205 l 1,6,-1
 340 -205 l 1,7,-1
 340 -204 l 1,8,-1
 339 -204 l 1,9,10
 330 -188 330 -188 309.5 -175.5 c 128,-1,11
 289 -163 289 -163 266 -153 c 1,12,13
 250 -178 250 -178 225 -186 c 128,-1,14
 200 -194 200 -194 171 -194 c 0,15,16
 139 -194 139 -194 116.5 -181 c 128,-1,17
 94 -168 94 -168 94 -149 c 256,18,19
 94 -130 94 -130 116 -115 c 128,-1,20
 138 -100 138 -100 169 -100 c 0,21,22
 189 -98 189 -98 208 -102.5 c 128,-1,23
 227 -107 227 -107 247 -113 c 1,24,25
 251 -103 251 -103 252 -92 c 128,-1,26
 254 -70 l 1,27,-1
 294 -70 l 2,28,29
 295 -70 295 -70 294 -77 c 128,-1,30
 293 -84 293 -84 290.5 -93.5 c 128,-1,31
 288 -103 288 -103 285 -112 c 128,-1,32
 282 -121 282 -121 280 -124 c 1,33,34
 314 -138 314 -138 340 -158 c 1,35,-1
 337 222 l 2,36,37
 338 280 338 280 318.5 308 c 128,-1,38
 299 336 299 336 268.5 347 c 128,-1,39
 238 358 238 358 201.5 357 c 128,-1,40
 165 356 165 356 131 355 c 1,41,42
 132 353 132 353 136.5 348.5 c 128,-1,43
 141 344 141 344 145.5 339 c 128,-1,44
 150 334 150 334 153.5 330 c 128,-1,45
 157 326 157 326 157 325 c 2,46,-1
 157 74 l 2,47,48
 159 45 159 45 149 23.5 c 128,-1,49
 139 2 139 2 120 -3 c 0,50,51
 96 -10 96 -10 72.5 11 c 128,-1,52
 49 32 49 32 40 67 c 0,53,54
 30 102 30 102 40 131.5 c 128,-1,55
 50 161 50 161 74 167 c 0,56,57
 94 172 94 172 112 160 c 1,58,-1
 112 324 l 1,59,-1
 67 365 l 1,60,-1
 66 365 l 1,61,-1
 66 393 l 1,62,-1
 138 394 l 2,0,1
110 32 m 256,63,64
 116 34 116 34 119.5 40 c 128,-1,65
 123 46 123 46 124.5 54.5 c 128,-1,66
 126 63 126 63 126 72 c 128,-1,67
 126 81 126 81 124 88 c 256,68,69
 122 95 122 95 118 103.5 c 128,-1,70
 114 112 114 112 108.5 119 c 128,-1,71
 103 126 103 126 97 130 c 128,-1,72
 91 134 91 134 85 132 c 256,73,74
 79 130 79 130 75 123.5 c 128,-1,75
 71 117 71 117 69 109 c 128,-1,76
 67 101 67 101 67 92 c 128,-1,77
 67 83 67 83 69 76 c 256,78,79
 71 69 71 69 75.5 60.5 c 128,-1,80
 80 52 80 52 85.5 45 c 128,-1,81
 91 38 91 38 97.5 34 c 128,-1,82
 104 30 104 30 110 32 c 256,63,64
171 -171 m 256,83,84
 188 -171 188 -171 207 -162 c 128,-1,85
 226 -153 226 -153 234 -145 c 1,86,87
 216 -135 216 -135 194 -131.5 c 128,-1,88
 172 -128 172 -128 164 -128 c 0,89,90
 144 -130 144 -130 135.5 -134 c 128,-1,91
 127 -138 127 -138 127 -149 c 256,92,93
 127 -160 127 -160 140.5 -165.5 c 128,-1,94
 154 -171 154 -171 171 -171 c 256,83,84
EndSplineSet
Substitution: 0 65534 'L026' uni0E0E.alt1
Substitution: 0 65534 'L026' uni0E0E.alt1
EndChar
StartChar: uni0E0F
Encoding: 3599 3599 226
Width: 456
Flags: W
Fore
135 398 m 2,0,1
 180 398 180 398 224.5 396 c 128,-1,2
 269 394 269 394 304.5 378 c 128,-1,3
 340 362 340 362 362.5 326 c 128,-1,4
 385 290 385 290 385 223 c 2,5,-1
 385 -202 l 1,6,-1
 335 -202 l 1,7,-1
 335 -201 l 1,8,-1
 334 -201 l 1,9,-1
 274 -135 l 1,10,-1
 221 -201 l 1,11,12
 214 -190 214 -190 202.5 -179.5 c 128,-1,13
 191 -169 191 -169 180 -158 c 1,14,15
 150 -191 150 -191 105 -191 c 0,16,17
 77 -191 77 -191 57 -178 c 128,-1,18
 37 -165 37 -165 37 -147 c 0,19,20
 37 -128 37 -128 53 -117.5 c 128,-1,21
 69 -107 69 -107 86 -104 c 0,22,23
 107 -100 107 -100 127 -105.5 c 128,-1,24
 147 -111 147 -111 164 -122 c 1,25,26
 172 -111 172 -111 178 -97 c 128,-1,27
 184 -83 184 -83 186 -69 c 1,28,-1
 222 -69 l 1,29,30
 220 -76 l 130,-1,31
 218 -83 218 -83 214.5 -93 c 128,-1,32
 211 -103 211 -103 206 -114 c 128,-1,33
 201 -125 201 -125 197 -133 c 1,34,35
 202 -138 202 -138 209.5 -144 c 128,-1,36
 217 -150 217 -150 221 -156 c 1,37,-1
 274 -88 l 1,38,-1
 334 -153 l 1,39,-1
 332 225 l 2,40,41
 333 283 333 283 314 311.5 c 128,-1,42
 295 340 295 340 265 351 c 128,-1,43
 235 362 235 362 197.5 361 c 128,-1,44
 160 360 160 360 126 359 c 1,45,46
 128 357 128 357 132.5 352.5 c 128,-1,47
 137 348 137 348 141.5 343 c 128,-1,48
 146 338 146 338 149.5 334 c 128,-1,49
 153 330 153 330 153 329 c 2,50,-1
 153 77 l 2,51,52
 155 48 155 48 145 26.5 c 128,-1,53
 135 5 135 5 117 0 c 0,54,55
 92 -7 92 -7 68.5 14 c 128,-1,56
 45 35 45 35 35 70 c 0,57,58
 26 105 26 105 36 134.5 c 128,-1,59
 46 164 46 164 69 170 c 0,60,61
 89 175 89 175 107 163 c 1,62,-1
 108 328 l 1,63,-1
 62 369 l 1,64,-1
 62 397 l 1,65,-1
 135 398 l 2,0,1
105 35 m 0,66,67
 114 38 114 38 118 45 c 128,-1,68
 122 52 122 52 123 60 c 128,-1,69
 124 68 124 68 122.5 76.5 c 128,-1,70
 121 85 121 85 120 91 c 0,71,72
 118 98 118 98 114.5 106.5 c 128,-1,73
 111 115 111 115 106 122 c 128,-1,74
 101 129 101 129 94.5 133 c 128,-1,75
 88 137 88 137 80 135 c 0,76,77
 74 133 74 133 70.5 127 c 128,-1,78
 67 121 67 121 64.5 112.5 c 128,-1,79
 62 104 62 104 62 95 c 128,-1,80
 62 86 62 86 64 79 c 256,81,82
 66 72 66 72 70 63.5 c 128,-1,83
 74 55 74 55 79.5 48 c 128,-1,84
 85 41 85 41 91.5 37 c 128,-1,85
 98 33 98 33 105 35 c 0,66,67
103 -168 m 0,86,87
 118 -167 118 -167 133 -159.5 c 128,-1,88
 148 -152 148 -152 154 -139 c 1,89,90
 146 -132 146 -132 131.5 -128 c 128,-1,91
 117 -124 117 -124 103 -123 c 0,92,93
 85 -123 85 -123 75.5 -131.5 c 128,-1,94
 66 -140 66 -140 66 -147 c 256,95,96
 66 -154 66 -154 75.5 -161 c 128,-1,97
 85 -168 85 -168 103 -168 c 0,86,87
EndSplineSet
Substitution: 0 65534 'L026' uni0E0F.alt1
Substitution: 0 65534 'L026' uni0E0F.alt1
EndChar
StartChar: uni0E10
Encoding: 3600 3600 227
Width: 442
Flags: W
Fore
323 194 m 0,0,1
 323 206 323 206 306.5 216.5 c 128,-1,2
 290 227 290 227 264.5 235.5 c 128,-1,3
 239 244 239 244 207.5 252 c 128,-1,4
 176 260 176 260 147 268.5 c 128,-1,5
 118 277 118 277 95 286 c 128,-1,6
 72 295 72 295 62 306 c 0,7,8
 44 326 44 326 54 347.5 c 128,-1,9
 64 369 64 369 89 383 c 0,10,11
 108 393 108 393 145 396.5 c 128,-1,12
 182 400 182 400 223.5 398.5 c 128,-1,13
 265 397 265 397 303 392.5 c 128,-1,14
 341 388 341 388 362 383 c 1,15,-1
 369 338 l 1,16,17
 358 342 358 342 337 346.5 c 128,-1,18
 316 351 316 351 290 355 c 128,-1,19
 264 359 264 359 236 361.5 c 128,-1,20
 208 364 208 364 182.5 363.5 c 128,-1,21
 157 363 157 363 136.5 359.5 c 128,-1,22
 116 356 116 356 105 348 c 0,23,24
 85 334 85 334 97 323.5 c 128,-1,25
 109 313 109 313 138 304 c 128,-1,26
 167 295 167 295 207 286.5 c 128,-1,27
 247 278 247 278 283 266.5 c 128,-1,28
 319 255 319 255 344 239.5 c 128,-1,29
 369 224 369 224 370 203 c 256,30,31
 371 182 371 182 371 152 c 128,-1,32
 371 122 371 122 371 98 c 0,33,34
 370 81 370 81 356 63.5 c 128,-1,35
 342 46 342 46 321 31.5 c 128,-1,36
 300 17 300 17 274.5 8.5 c 128,-1,37
 249 0 249 0 225 0 c 2,38,-1
 184 0 l 1,39,40
 182 14 182 14 183 32 c 128,-1,41
 184 50 184 50 184 69 c 1,42,43
 178 65 178 65 175 64 c 0,44,45
 165 62 165 62 153 65 c 0,46,47
 137 70 137 70 121 86 c 128,-1,48
 105 102 105 102 99 126 c 0,49,50
 95 142 95 142 96 157 c 128,-1,51
 97 172 97 172 101.5 184.5 c 128,-1,52
 106 197 106 197 114 205.5 c 128,-1,53
 122 214 122 214 133 217 c 256,54,55
 144 220 144 220 153 217 c 0,56,57
 175 211 175 211 192 186 c 0,58,59
 209 162 209 162 216 128.5 c 128,-1,60
 223 95 223 95 223 65 c 2,61,-1
 223 26 l 1,62,63
 237 31 237 31 253.5 38 c 128,-1,64
 270 45 270 45 285 54.5 c 128,-1,65
 300 64 300 64 310 75 c 128,-1,66
 320 86 320 86 322 98 c 0,67,68
 324 107 324 107 324.5 119 c 128,-1,69
 325 131 325 131 324.5 144.5 c 128,-1,70
 324 158 324 158 323.5 171 c 128,-1,71
 323 184 323 184 323 194 c 0,0,1
165 97 m 0,72,73
 173 99 173 99 176.5 109 c 128,-1,74
 180 119 180 119 181 130 c 1,75,76
 179 137 179 137 178 143.5 c 128,-1,77
 177 150 177 150 175 156 c 0,78,79
 171 165 171 165 165.5 172.5 c 128,-1,80
 160 180 160 180 153 184 c 1,81,82
 148 188 148 188 143 186 c 0,83,84
 132 182 132 182 128.5 165.5 c 128,-1,85
 125 149 125 149 129 136 c 0,86,87
 131 126 131 126 138 115 c 128,-1,88
 145 104 145 104 153 99 c 1,89,90
 160 96 160 96 165 97 c 0,72,73
329 -30 m 0,91,92
 346 -40 346 -40 357 -55 c 128,-1,93
 368 -70 368 -70 369 -86 c 2,94,-1
 369 -204 l 1,95,-1
 322 -204 l 1,96,-1
 261 -163 l 1,97,-1
 207 -204 l 1,98,99
 199 -190 199 -190 188 -179.5 c 128,-1,100
 177 -169 177 -169 166 -161 c 1,101,102
 138 -193 138 -193 90 -194 c 0,103,104
 62 -194 62 -194 43 -181 c 128,-1,105
 24 -168 24 -168 24 -150 c 0,106,107
 24 -131 24 -131 39.5 -120.5 c 128,-1,108
 55 -110 55 -110 72 -107 c 0,109,110
 115 -101 115 -101 150 -126 c 1,111,112
 158 -117 158 -117 164 -101.5 c 128,-1,113
 170 -86 170 -86 172 -72 c 1,114,-1
 209 -72 l 1,115,116
 205 -85 205 -85 201 -97 c 0,117,118
 197 -108 197 -108 192 -119 c 128,-1,119
 187 -130 187 -130 181 -138 c 1,120,121
 188 -143 188 -143 199 -153 c 128,-1,122
 210 -163 210 -163 215 -169 c 1,123,-1
 261 -131 l 1,124,-1
 327 -170 l 1,125,-1
 327 -127 l 1,126,127
 314 -127 314 -127 301 -121.5 c 128,-1,128
 288 -116 288 -116 277.5 -106.5 c 128,-1,129
 267 -97 267 -97 260.5 -85 c 128,-1,130
 254 -73 254 -73 254 -62 c 0,131,132
 254 -57 254 -57 254.5 -53 c 128,-1,133
 255 -49 255 -49 257 -44 c 0,134,135
 260 -34 260 -34 268.5 -29 c 128,-1,136
 277 -24 277 -24 287.5 -22.5 c 128,-1,137
 298 -21 298 -21 309 -23 c 128,-1,138
 320 -25 320 -25 329 -30 c 0,91,92
95 -170 m 1,139,140
 109 -168 109 -168 120.5 -161 c 128,-1,141
 132 -154 132 -154 139 -142 c 1,142,143
 131 -136 131 -136 117 -131 c 128,-1,144
 103 -126 103 -126 89 -126 c 0,145,146
 70 -126 70 -126 61 -134.5 c 128,-1,147
 52 -143 52 -143 52 -150 c 256,148,149
 52 -157 52 -157 57 -161 c 128,-1,150
 62 -165 62 -165 68.5 -167.5 c 128,-1,151
 75 -170 75 -170 82.5 -170 c 128,-1,152
 90 -170 90 -170 95 -170 c 1,139,140
338 -91 m 0,153,154
 343 -81 343 -81 335.5 -69.5 c 128,-1,155
 328 -58 328 -58 319 -52 c 0,156,157
 311 -47 311 -47 298.5 -45.5 c 128,-1,158
 286 -44 286 -44 281 -54 c 0,159,160
 276 -65 276 -65 284 -77 c 128,-1,161
 292 -89 292 -89 303 -96 c 0,162,163
 313 -101 313 -101 322.5 -101.5 c 128,-1,164
 332 -102 332 -102 338 -91 c 0,153,154
EndSplineSet
Substitution: 0 65534 'L026' uni0E10.alt1
Substitution: 0 65534 'L026' uni0E10.alt1
EndChar
StartChar: uni0E11
Encoding: 3601 3601 228
Width: 584
Flags: W
Fore
228 228 m 1,0,1
 237 264 237 264 250.5 295.5 c 128,-1,2
 264 327 264 327 283 350 c 128,-1,3
 302 373 302 373 325 386 c 128,-1,4
 348 399 348 399 375 399 c 0,5,6
 398 399 398 399 422 392 c 128,-1,7
 446 385 446 385 466 370.5 c 128,-1,8
 486 356 486 356 499 333 c 128,-1,9
 512 310 512 310 512 278 c 2,10,-1
 514 0 l 1,11,-1
 458 0 l 1,12,-1
 456 261 l 2,13,14
 456 309 456 309 435 334.5 c 128,-1,15
 414 360 414 360 372 359 c 0,16,17
 344 358 344 358 318.5 329 c 128,-1,18
 293 300 293 300 274 259 c 128,-1,19
 255 218 255 218 244 172.5 c 128,-1,20
 233 127 233 127 233 93 c 2,21,-1
 235 0 l 1,22,-1
 179 0 l 1,23,-1
 177 246 l 2,24,25
 177 270 177 270 173.5 294.5 c 128,-1,26
 170 319 170 319 152 336 c 1,27,-1
 149 341 l 1,28,29
 151 324 151 324 146 306 c 0,30,31
 138 274 138 274 116.5 256 c 128,-1,32
 95 238 95 238 74 244 c 0,33,34
 52 249 52 249 43.5 275.5 c 128,-1,35
 35 302 35 302 43 334 c 256,36,37
 51 366 51 366 72 384.5 c 128,-1,38
 93 403 93 403 114 398 c 0,39,40
 122 396 122 396 127.5 391.5 c 128,-1,41
 133 387 133 387 138 381 c 1,42,43
 150 372 150 372 160.5 361.5 c 128,-1,44
 171 351 171 351 175 343 c 1,45,-1
 167 398 l 1,46,-1
 195 398 l 1,47,48
 202 387 202 387 208.5 372 c 128,-1,49
 215 357 215 357 219.5 340.5 c 128,-1,50
 224 324 224 324 226.5 308.5 c 128,-1,51
 229 293 229 293 228 281 c 2,52,-1
 228 228 l 1,0,1
70 326 m 0,53,54
 65 312 65 312 66.5 295.5 c 128,-1,55
 68 279 68 279 80 275 c 0,56,57
 86 273 86 273 92 276.5 c 128,-1,58
 98 280 98 280 103 286 c 128,-1,59
 108 292 108 292 111.5 299.5 c 128,-1,60
 115 307 115 307 117 314 c 0,61,62
 122 328 122 328 120 345 c 128,-1,63
 118 362 118 362 106 366 c 0,64,65
 100 368 100 368 94.5 364.5 c 128,-1,66
 89 361 89 361 84 355 c 128,-1,67
 79 349 79 349 75.5 341 c 128,-1,68
 72 333 72 333 70 326 c 0,53,54
EndSplineSet
EndChar
